Panamera-Regular.ufo
<glyph name="exclam" format="2">
  <advance width="310.0"/>
  <unicode hex="0021"/>
  <note>
exclam
</note>
  <outline>
    <contour>
      <point x="89.0" y="730.0" type="line"/>
      <point x="89.0" y="583.0" type="line"/>
      <point x="110.0" y="203.0" type="line"/>
      <point x="200.0" y="203.0" type="line"/>
      <point x="221.0" y="583.0" type="line"/>
      <point x="221.0" y="730.0" type="line"/>
    </contour>
    <contour>
      <point x="221.0" y="-1.0" type="line"/>
      <point x="221.0" y="131.0" type="line"/>
      <point x="89.0" y="131.0" type="line"/>
      <point x="89.0" y="-1.0" type="line"/>
    </contour>
  </outline>
</glyph>
<glyph name="quotedbl" format="2">
  <advance width="644.0"/>
  <unicode hex="0022"/>
  <note>
quotedbl
</note>
  <outline>
    <contour>
      <point x="231.0" y="478.0" type="line"/>
      <point x="242.0" y="750.0" type="line"/>
      <point x="110.0" y="750.0" type="line"/>
      <point x="121.0" y="478.0" type="line"/>
    </contour>
    <contour>
      <point x="445.0" y="478.0" type="line"/>
      <point x="456.0" y="750.0" type="line"/>
      <point x="324.0" y="750.0" type="line"/>
      <point x="335.0" y="478.0" type="line"/>
    </contour>
  </outline>
</glyph>
<glyph name="numbersign" format="2">
  <advance width="823.0"/>
  <unicode hex="0023"/>
  <note>
numbersign
</note>
  <outline>
    <contour>
      <point x="734.0" y="173.0" type="line"/>
      <point x="734.0" y="277.0" type="line"/>
      <point x="597.7" y="277.0" type="line"/>
      <point x="657.61" y="456.0" type="line"/>
      <point x="806.0" y="456.0" type="line"/>
      <point x="806.0" y="559.0" type="line"/>
      <point x="692.08" y="559.0" type="line"/>
      <point x="757.0" y="753.0" type="line"/>
      <point x="646.0" y="753.0" type="line"/>
      <point x="581.08" y="559.0" type="line"/>
      <point x="379.08" y="559.0" type="line"/>
      <point x="444.0" y="753.0" type="line"/>
      <point x="333.0" y="753.0" type="line"/>
      <point x="268.08" y="559.0" type="line"/>
      <point x="96.0" y="559.0" type="line"/>
      <point x="96.0" y="456.0" type="line"/>
      <point x="233.61" y="456.0" type="line"/>
      <point x="173.7" y="277.0" type="line"/>
      <point x="35.0" y="277.0" type="line"/>
      <point x="35.0" y="173.0" type="line"/>
      <point x="138.9" y="173.0" type="line"/>
      <point x="80.0" y="-3.0" type="line"/>
      <point x="191.0" y="-3.0" type="line"/>
      <point x="249.9" y="173.0" type="line"/>
      <point x="451.9" y="173.0" type="line"/>
      <point x="393.0" y="-3.0" type="line"/>
      <point x="504.0" y="-3.0" type="line"/>
      <point x="562.9" y="173.0" type="line"/>
    </contour>
    <contour>
      <point x="486.7" y="277.0" type="line"/>
      <point x="284.7" y="277.0" type="line"/>
      <point x="344.61" y="456.0" type="line"/>
      <point x="546.61" y="456.0" type="line"/>
    </contour>
  </outline>
</glyph>
<glyph name="dollar" format="2">
  <advance width="646.0"/>
  <unicode hex="0024"/>
  <note>
dollar
</note>
  <outline>
    <contour>
      <point x="596.0" y="205.99" type="curve" smooth="yes"/>
      <point x="596.0" y="315.61"/>
      <point x="499.9" y="365.4"/>
      <point x="417.19" y="394.34" type="curve"/>
      <point x="417.19" y="594.56" type="line"/>
      <point x="439.18" y="579.44"/>
      <point x="451.0" y="556.24"/>
      <point x="451.0" y="526.0" type="curve"/>
      <point x="559.0" y="554.0" type="line"/>
      <point x="547.85" y="630.54"/>
      <point x="490.87" y="678.37"/>
      <point x="417.19" y="697.89" type="curve"/>
      <point x="417.19" y="804.0" type="line"/>
      <point x="355.96" y="804.0" type="line"/>
      <point x="355.96" y="707.43" type="line"/>
      <point x="349.36" y="707.81"/>
      <point x="342.7" y="708.0"/>
      <point x="336.0" y="708.0" type="curve" smooth="yes"/>
      <point x="331.31" y="708.0"/>
      <point x="326.65" y="707.89"/>
      <point x="322.04" y="707.68" type="curve"/>
      <point x="322.04" y="804.0" type="line"/>
      <point x="260.81" y="804.0" type="line"/>
      <point x="260.81" y="698.18" type="line"/>
      <point x="171.55" y="673.82"/>
      <point x="110.0" y="606.63"/>
      <point x="110.0" y="525.0" type="curve" smooth="yes"/>
      <point x="110.0" y="446.63"/>
      <point x="163.26" y="386.01"/>
      <point x="260.81" y="344.94" type="curve"/>
      <point x="260.81" y="99.61" type="line"/>
      <point x="195.5" y="121.57"/>
      <point x="164.39" y="173.03"/>
      <point x="151.0" y="240.0" type="curve"/>
      <point x="50.0" y="189.0" type="line"/>
      <point x="81.37" y="95.71"/>
      <point x="145.45" y="22.87"/>
      <point x="260.81" y="0.29" type="curve"/>
      <point x="260.81" y="-101.01" type="line"/>
      <point x="322.04" y="-101.01" type="line"/>
      <point x="322.04" y="-6.64" type="line"/>
      <point x="328.24" y="-6.88"/>
      <point x="334.56" y="-7.01"/>
      <point x="341.0" y="-7.01" type="curve" smooth="yes"/>
      <point x="346.07" y="-7.01"/>
      <point x="351.05" y="-6.92"/>
      <point x="355.96" y="-6.76" type="curve"/>
      <point x="355.96" y="-101.01" type="line"/>
      <point x="417.19" y="-101.01" type="line"/>
      <point x="417.19" y="0.2" type="line"/>
      <point x="539.38" y="25.05"/>
      <point x="596.0" y="110.92"/>
    </contour>
    <contour>
      <point x="336.0" y="614.99" type="curve" smooth="yes"/>
      <point x="342.94" y="614.99"/>
      <point x="349.59" y="614.7"/>
      <point x="355.96" y="614.13" type="curve"/>
      <point x="355.96" y="413.79" type="line"/>
      <point x="354.62" y="414.19"/>
      <point x="353.3" y="414.59"/>
      <point x="352.0" y="414.99" type="curve" smooth="yes"/>
      <point x="341.3" y="418.18"/>
      <point x="331.32" y="421.47"/>
      <point x="322.04" y="424.87" type="curve"/>
      <point x="322.04" y="614.46" type="line"/>
      <point x="326.58" y="614.81"/>
      <point x="331.23" y="614.99"/>
    </contour>
    <contour>
      <point x="220.0" y="524.99" type="curve" smooth="yes"/>
      <point x="220.0" y="554.08"/>
      <point x="234.97" y="579.27"/>
      <point x="260.81" y="595.54" type="curve"/>
      <point x="260.81" y="455.4" type="line"/>
      <point x="232.48" y="475.56"/>
      <point x="220.0" y="498.64"/>
    </contour>
    <contour>
      <point x="341.0" y="88.0" type="curve" smooth="yes"/>
      <point x="334.48" y="87.99"/>
      <point x="328.16" y="88.17"/>
      <point x="322.05" y="88.52" type="curve"/>
      <point x="322.05" y="323.36" type="line"/>
      <point x="333.45" y="319.79"/>
      <point x="344.83" y="316.32"/>
      <point x="355.96" y="312.78" type="curve"/>
      <point x="355.96" y="88.36" type="line"/>
      <point x="351.13" y="88.12"/>
      <point x="346.14" y="88.0"/>
    </contour>
    <contour>
      <point x="417.19" y="100.31" type="curve"/>
      <point x="417.19" y="290.21" type="line"/>
      <point x="457.02" y="271.89"/>
      <point x="485.0" y="247.48"/>
      <point x="485.0" y="206.0" type="curve" smooth="yes"/>
      <point x="485.0" y="157.58"/>
      <point x="464.82" y="119.02"/>
    </contour>
  </outline>
</glyph>
<glyph name="percent" format="2">
  <advance width="845.0"/>
  <unicode hex="0025"/>
  <note>
percent
</note>
  <outline>
    <contour>
      <point x="192.0" y="724.0" type="curve" smooth="yes"/>
      <point x="86.0" y="724.0"/>
      <point x="23.0" y="635.0"/>
      <point x="23.0" y="512.0" type="curve" smooth="yes"/>
      <point x="23.0" y="390.0"/>
      <point x="86.0" y="302.0"/>
      <point x="192.0" y="302.0" type="curve" smooth="yes"/>
      <point x="297.0" y="302.0"/>
      <point x="363.0" y="390.0"/>
      <point x="363.0" y="512.0" type="curve" smooth="yes"/>
      <point x="363.0" y="635.0"/>
      <point x="297.0" y="724.0"/>
    </contour>
    <contour>
      <point x="711.0" y="724.0" type="line"/>
      <point x="589.0" y="724.0" type="line"/>
      <point x="108.0" y="-39.0" type="line"/>
      <point x="229.0" y="-39.0" type="line"/>
    </contour>
    <contour>
      <point x="192.0" y="632.0" type="curve" smooth="yes"/>
      <point x="241.0" y="632.0"/>
      <point x="271.0" y="593.0"/>
      <point x="271.0" y="512.0" type="curve" smooth="yes"/>
      <point x="271.0" y="433.0"/>
      <point x="241.0" y="393.0"/>
      <point x="192.0" y="393.0" type="curve" smooth="yes"/>
      <point x="145.0" y="393.0"/>
      <point x="115.0" y="433.0"/>
      <point x="115.0" y="512.0" type="curve" smooth="yes"/>
      <point x="115.0" y="593.0"/>
      <point x="145.0" y="632.0"/>
    </contour>
    <contour>
      <point x="658.0" y="415.0" type="curve" smooth="yes"/>
      <point x="552.0" y="415.0"/>
      <point x="489.0" y="326.0"/>
      <point x="489.0" y="203.0" type="curve" smooth="yes"/>
      <point x="489.0" y="81.0"/>
      <point x="552.0" y="-7.0"/>
      <point x="658.0" y="-7.0" type="curve" smooth="yes"/>
      <point x="763.0" y="-7.0"/>
      <point x="829.0" y="81.0"/>
      <point x="829.0" y="203.0" type="curve" smooth="yes"/>
      <point x="829.0" y="326.0"/>
      <point x="763.0" y="415.0"/>
    </contour>
    <contour>
      <point x="658.0" y="323.0" type="curve" smooth="yes"/>
      <point x="707.0" y="323.0"/>
      <point x="737.0" y="284.0"/>
      <point x="737.0" y="203.0" type="curve" smooth="yes"/>
      <point x="737.0" y="124.0"/>
      <point x="707.0" y="84.0"/>
      <point x="658.0" y="84.0" type="curve" smooth="yes"/>
      <point x="611.0" y="84.0"/>
      <point x="581.0" y="124.0"/>
      <point x="581.0" y="203.0" type="curve" smooth="yes"/>
      <point x="581.0" y="284.0"/>
      <point x="611.0" y="323.0"/>
    </contour>
  </outline>
</glyph>
<glyph name="ampersand" format="2">
  <advance width="890.0"/>
  <unicode hex="0026"/>
  <note>
ampersand
</note>
  <outline>
    <contour>
      <point x="802.01" y="242.01" type="curve"/>
      <point x="718.0" y="184.0" type="line"/>
      <point x="759.94" y="144.36"/>
      <point x="777.24" y="111.94"/>
      <point x="777.24" y="88.51" type="curve" smooth="yes"/>
      <point x="777.24" y="61.11"/>
      <point x="753.58" y="46.0"/>
      <point x="718.0" y="46.0" type="curve" smooth="yes"/>
      <point x="689.3" y="46.0"/>
      <point x="651.58" y="65.25"/>
      <point x="610.22" y="96.7" type="curve"/>
      <point x="668.27" y="172.72"/>
      <point x="707.0" y="282.68"/>
      <point x="707.0" y="434.0" type="curve"/>
      <point x="587.0" y="434.0" type="line"/>
      <point x="587.0" y="309.94"/>
      <point x="568.82" y="222.23"/>
      <point x="535.57" y="162.42" type="curve"/>
      <point x="470.52" y="226.67"/>
      <point x="404.34" y="308.81"/>
      <point x="354.69" y="385.65" type="curve"/>
      <point x="470.2" y="422.85"/>
      <point x="587.0" y="463.22"/>
      <point x="587.0" y="580.0" type="curve" smooth="yes"/>
      <point x="587.0" y="673.0"/>
      <point x="503.0" y="751.0"/>
      <point x="384.0" y="751.0" type="curve" smooth="yes"/>
      <point x="270.0" y="751.0"/>
      <point x="163.0" y="687.0"/>
      <point x="163.0" y="575.0" type="curve" smooth="yes"/>
      <point x="163.0" y="536.67"/>
      <point x="179.75" y="485.43"/>
      <point x="208.07" y="428.78" type="curve"/>
      <point x="108.78" y="389.28"/>
      <point x="20.01" y="332.47"/>
      <point x="20.01" y="217.0" type="curve" smooth="yes"/>
      <point x="20.01" y="76.0"/>
      <point x="148.01" y="-44.0"/>
      <point x="327.01" y="-44.0" type="curve" smooth="yes"/>
      <point x="399.18" y="-44.0"/>
      <point x="476.85" y="-21.8"/>
      <point x="543.05" y="29.08" type="curve"/>
      <point x="605.2" y="-15.84"/>
      <point x="666.14" y="-43.99"/>
      <point x="718.01" y="-43.99" type="curve" smooth="yes"/>
      <point x="809.02" y="-43.99"/>
      <point x="869.67" y="9.13"/>
      <point x="869.67" y="86.86" type="curve" smooth="yes"/>
      <point x="869.67" y="132.11"/>
      <point x="849.11" y="185.71"/>
    </contour>
    <contour>
      <point x="273.01" y="575.01" type="curve" smooth="yes"/>
      <point x="273.01" y="633.01"/>
      <point x="321.01" y="661.01"/>
      <point x="384.01" y="661.01" type="curve" smooth="yes"/>
      <point x="445.01" y="661.01"/>
      <point x="477.01" y="625.01"/>
      <point x="477.01" y="580.01" type="curve" smooth="yes"/>
      <point x="477.01" y="522.07"/>
      <point x="399.83" y="494.69"/>
      <point x="308.91" y="464.36" type="curve"/>
      <point x="286.44" y="508.53"/>
      <point x="273.01" y="547.34"/>
    </contour>
    <contour>
      <point x="327.01" y="52.01" type="curve" smooth="yes"/>
      <point x="212.01" y="52.01"/>
      <point x="130.01" y="119.01"/>
      <point x="130.01" y="217.01" type="curve" smooth="yes"/>
      <point x="130.01" y="284.98"/>
      <point x="182.79" y="322.0"/>
      <point x="252.48" y="350.32" type="curve"/>
      <point x="309.58" y="259.27"/>
      <point x="388.01" y="163.47"/>
      <point x="469.71" y="89.1" type="curve"/>
      <point x="430.41" y="62.87"/>
      <point x="382.29" y="52.01"/>
    </contour>
  </outline>
</glyph>
<glyph name="quotesingle" format="2">
  <advance width="342.0"/>
  <unicode hex="0027"/>
  <note>
quotesingle
</note>
  <outline>
    <contour>
      <point x="231.0" y="478.0" type="line"/>
      <point x="242.0" y="750.0" type="line"/>
      <point x="110.0" y="750.0" type="line"/>
      <point x="121.0" y="478.0" type="line"/>
    </contour>
  </outline>
</glyph>
<glyph name="parenleft" format="2">
  <advance width="373.0"/>
  <unicode hex="0028"/>
  <note>
parenleft
</note>
  <outline>
    <contour>
      <point x="344.0" y="769.0" type="curve"/>
      <point x="240.0" y="769.0" type="line"/>
      <point x="177.0" y="687.0"/>
      <point x="82.0" y="534.0"/>
      <point x="79.0" y="311.0" type="curve" smooth="yes"/>
      <point x="82.0" y="98.0"/>
      <point x="177.0" y="-55.0"/>
      <point x="240.0" y="-147.0" type="curve"/>
      <point x="344.0" y="-147.0" type="line"/>
      <point x="281.0" y="-55.0"/>
      <point x="206.0" y="96.0"/>
      <point x="203.0" y="309.0" type="curve"/>
      <point x="206.0" y="533.0"/>
      <point x="281.0" y="686.0"/>
    </contour>
  </outline>
</glyph>
<glyph name="parenright" format="2">
  <advance width="373.0"/>
  <unicode hex="0029"/>
  <note>
parenright
</note>
  <outline>
    <contour>
      <point x="133.0" y="769.0" type="curve"/>
      <point x="29.0" y="769.0" type="line"/>
      <point x="92.0" y="686.0"/>
      <point x="167.0" y="533.0"/>
      <point x="170.0" y="309.0" type="curve" smooth="yes"/>
      <point x="167.0" y="96.0"/>
      <point x="92.0" y="-55.0"/>
      <point x="29.0" y="-147.0" type="curve"/>
      <point x="133.0" y="-147.0" type="line"/>
      <point x="196.0" y="-55.0"/>
      <point x="291.0" y="98.0"/>
      <point x="294.0" y="311.0" type="curve"/>
      <point x="291.0" y="534.0"/>
      <point x="196.0" y="687.0"/>
    </contour>
  </outline>
</glyph>
<glyph name="plus" format="2">
  <advance width="641.0"/>
  <unicode hex="002B"/>
  <note>
plus
</note>
  <outline>
    <contour>
      <point x="271.0" y="0.0" type="line"/>
      <point x="371.0" y="0.0" type="line"/>
      <point x="371.0" y="213.0" type="line"/>
      <point x="586.0" y="213.0" type="line"/>
      <point x="586.0" y="313.0" type="line"/>
      <point x="371.0" y="313.0" type="line"/>
      <point x="371.0" y="527.0" type="line"/>
      <point x="271.0" y="527.0" type="line"/>
      <point x="271.0" y="313.0" type="line"/>
      <point x="55.0" y="313.0" type="line"/>
      <point x="55.0" y="213.0" type="line"/>
      <point x="271.0" y="213.0" type="line"/>
    </contour>
  </outline>
</glyph>
<glyph name="period" format="2">
  <advance width="296.0"/>
  <unicode hex="002E"/>
  <note>
period
</note>
  <outline>
    <contour>
      <point x="201.0" y="-1.0" type="line"/>
      <point x="201.0" y="131.0" type="line"/>
      <point x="69.0" y="131.0" type="line"/>
      <point x="69.0" y="-1.0" type="line"/>
    </contour>
  </outline>
</glyph>
<glyph name="slash" format="2">
  <advance width="413.0"/>
  <unicode hex="002F"/>
  <note>
slash
</note>
  <outline>
    <contour>
      <point x="29.0" y="-119.0" type="line"/>
      <point x="134.0" y="-119.0" type="line"/>
      <point x="384.0" y="724.0" type="line"/>
      <point x="279.0" y="724.0" type="line"/>
    </contour>
  </outline>
</glyph>
<glyph name="zero" format="2">
  <advance width="652.0"/>
  <unicode hex="0030"/>
  <note>
zero
</note>
  <outline>
    <contour>
      <point x="325.0" y="-12.0" type="curve" smooth="yes"/>
      <point x="515.0" y="-12.0"/>
      <point x="622.0" y="135.0"/>
      <point x="622.0" y="348.0" type="curve" smooth="yes"/>
      <point x="622.0" y="561.0"/>
      <point x="515.0" y="708.0"/>
      <point x="325.0" y="708.0" type="curve" smooth="yes"/>
      <point x="136.0" y="708.0"/>
      <point x="30.0" y="561.0"/>
      <point x="30.0" y="348.0" type="curve" smooth="yes"/>
      <point x="30.0" y="135.0"/>
      <point x="136.0" y="-12.0"/>
    </contour>
    <contour>
      <point x="325.0" y="82.0" type="curve" smooth="yes"/>
      <point x="210.0" y="82.0"/>
      <point x="140.0" y="177.0"/>
      <point x="140.0" y="348.0" type="curve" smooth="yes"/>
      <point x="140.0" y="519.0"/>
      <point x="210.0" y="614.0"/>
      <point x="325.0" y="614.0" type="curve" smooth="yes"/>
      <point x="440.0" y="614.0"/>
      <point x="512.0" y="519.0"/>
      <point x="512.0" y="348.0" type="curve" smooth="yes"/>
      <point x="512.0" y="177.0"/>
      <point x="440.0" y="82.0"/>
    </contour>
  </outline>
</glyph>
<glyph name="one" format="2">
  <advance width="377.0"/>
  <unicode hex="0031"/>
  <note>
one
</note>
  <outline>
    <contour>
      <point x="199.0" y="552.0" type="line"/>
      <point x="199.0" y="0.0" type="line"/>
      <point x="307.0" y="0.0" type="line"/>
      <point x="307.0" y="700.0" type="line"/>
      <point x="199.0" y="700.0" type="line"/>
      <point x="199.0" y="653.97"/>
      <point x="156.97" y="626.85"/>
      <point x="91.09" y="626.85" type="curve" smooth="yes"/>
      <point x="78.26" y="626.85"/>
      <point x="64.51" y="627.88"/>
      <point x="50.0" y="630.0" type="curve"/>
      <point x="50.0" y="552.0" type="line"/>
    </contour>
  </outline>
</glyph>
<glyph name="two" format="2">
  <advance width="537.0"/>
  <unicode hex="0032"/>
  <note>
two
</note>
  <outline>
    <contour>
      <point x="51.01" y="525.99" type="curve"/>
      <point x="160.0" y="536.0" type="line"/>
      <point x="160.0" y="582.0"/>
      <point x="189.0" y="621.0"/>
      <point x="268.0" y="621.0" type="curve" smooth="yes"/>
      <point x="337.2" y="621.0"/>
      <point x="380.02" y="573.11"/>
      <point x="380.02" y="501.48" type="curve" smooth="yes"/>
      <point x="380.02" y="310.63"/>
      <point x="97.5" y="200.79"/>
      <point x="31.0" y="94.0" type="curve"/>
      <point x="30.0" y="0.0" type="line"/>
      <point x="507.0" y="0.0" type="line"/>
      <point x="507.0" y="106.0" type="line"/>
      <point x="177.0" y="106.0" type="line"/>
      <point x="238.76" y="193.65"/>
      <point x="488.02" y="267.41"/>
      <point x="488.02" y="507.12" type="curve" smooth="yes"/>
      <point x="488.02" y="625.7"/>
      <point x="415.1" y="712.99"/>
      <point x="268.01" y="712.99" type="curve" smooth="yes"/>
      <point x="136.19" y="712.99"/>
      <point x="50.24" y="640.15"/>
      <point x="50.24" y="542.21" type="curve" smooth="yes"/>
      <point x="50.24" y="536.88"/>
      <point x="50.49" y="531.47"/>
    </contour>
  </outline>
</glyph>
<glyph name="three" format="2">
  <advance width="537.0"/>
  <unicode hex="0033"/>
  <note>
three
</note>
  <outline>
    <contour>
      <point x="316.0" y="426.0" type="curve"/>
      <point x="495.0" y="609.0" type="line"/>
      <point x="495.0" y="700.0" type="line"/>
      <point x="55.0" y="700.0" type="line"/>
      <point x="55.0" y="609.0" type="line"/>
      <point x="352.0" y="609.0" type="line"/>
      <point x="163.0" y="406.0" type="line"/>
      <point x="217.0" y="341.0" type="line"/>
      <point x="238.0" y="347.0"/>
      <point x="253.0" y="350.0"/>
      <point x="274.0" y="350.0" type="curve" smooth="yes"/>
      <point x="348.0" y="350.0"/>
      <point x="400.0" y="302.0"/>
      <point x="400.0" y="216.0" type="curve" smooth="yes"/>
      <point x="400.0" y="129.0"/>
      <point x="328.0" y="81.0"/>
      <point x="264.0" y="81.0" type="curve" smooth="yes"/>
      <point x="179.0" y="81.0"/>
      <point x="127.0" y="119.0"/>
      <point x="127.0" y="216.0" type="curve"/>
      <point x="20.0" y="216.0" type="line"/>
      <point x="20.0" y="63.0"/>
      <point x="128.0" y="-10.0"/>
      <point x="264.0" y="-10.0" type="curve" smooth="yes"/>
      <point x="379.0" y="-10.0"/>
      <point x="507.0" y="73.0"/>
      <point x="507.0" y="216.0" type="curve" smooth="yes"/>
      <point x="507.0" y="346.0"/>
      <point x="418.0" y="418.0"/>
    </contour>
  </outline>
</glyph>
<glyph name="four" format="2">
  <advance width="617.0"/>
  <unicode hex="0034"/>
  <note>
four
</note>
  <outline>
    <contour>
      <point x="356.0" y="0.0" type="line"/>
      <point x="464.0" y="0.0" type="line"/>
      <point x="464.0" y="191.21" type="line"/>
      <point x="577.0" y="191.0" type="line"/>
      <point x="577.0" y="289.0" type="line"/>
      <point x="464.0" y="289.0" type="line"/>
      <point x="464.0" y="700.0" type="line"/>
      <point x="376.0" y="700.0" type="line"/>
      <point x="45.0" y="289.0" type="line"/>
      <point x="44.0" y="192.0" type="line"/>
      <point x="356.0" y="191.41" type="line"/>
    </contour>
    <contour>
      <point x="356.0" y="289.0" type="line"/>
      <point x="172.0" y="289.0" type="line"/>
      <point x="356.0" y="520.88" type="line"/>
    </contour>
  </outline>
</glyph>
<glyph name="five" format="2">
  <advance width="600.0"/>
  <unicode hex="0035"/>
  <note>
five
</note>
  <outline>
    <contour>
      <point x="304.0" y="452.0" type="curve" smooth="yes"/>
      <point x="271.39" y="452.0"/>
      <point x="239.47" y="446.24"/>
      <point x="210.0" y="433.33" type="curve"/>
      <point x="210.0" y="592.0" type="line"/>
      <point x="515.0" y="592.0" type="line"/>
      <point x="515.0" y="700.0" type="line"/>
      <point x="102.0" y="700.0" type="line"/>
      <point x="102.0" y="317.0" type="line"/>
      <point x="210.0" y="317.0" type="line"/>
      <point x="235.0" y="349.0"/>
      <point x="268.0" y="361.0"/>
      <point x="304.0" y="361.0" type="curve" smooth="yes"/>
      <point x="378.0" y="361.0"/>
      <point x="445.0" y="318.0"/>
      <point x="445.0" y="221.0" type="curve" smooth="yes"/>
      <point x="445.0" y="134.0"/>
      <point x="378.0" y="81.0"/>
      <point x="304.0" y="81.0" type="curve" smooth="yes"/>
      <point x="230.0" y="81.0"/>
      <point x="168.0" y="129.0"/>
      <point x="168.0" y="216.0" type="curve"/>
      <point x="61.0" y="216.0" type="line"/>
      <point x="61.0" y="73.0"/>
      <point x="179.0" y="-10.0"/>
      <point x="304.0" y="-10.0" type="curve" smooth="yes"/>
      <point x="429.0" y="-10.0"/>
      <point x="552.0" y="78.0"/>
      <point x="552.0" y="221.0" type="curve" smooth="yes"/>
      <point x="552.0" y="374.0"/>
      <point x="429.0" y="452.0"/>
    </contour>
  </outline>
</glyph>
<glyph name="six" format="2">
  <advance width="547.0"/>
  <unicode hex="0036"/>
  <note>
six
</note>
  <outline>
    <contour>
      <point x="272.0" y="443.0" type="curve" smooth="yes"/>
      <point x="268.79" y="443.0"/>
      <point x="265.58" y="442.94"/>
      <point x="262.38" y="442.83" type="curve"/>
      <point x="422.0" y="700.0" type="line"/>
      <point x="290.0" y="700.0" type="line"/>
      <point x="64.2" y="339.1" type="line" smooth="yes"/>
      <point x="42.1" y="305.63"/>
      <point x="29.0" y="264.64"/>
      <point x="29.0" y="217.0" type="curve" smooth="yes"/>
      <point x="29.0" y="74.0"/>
      <point x="148.0" y="-10.0"/>
      <point x="273.0" y="-10.0" type="curve" smooth="yes"/>
      <point x="398.0" y="-10.0"/>
      <point x="516.0" y="73.0"/>
      <point x="516.0" y="216.0" type="curve" smooth="yes"/>
      <point x="516.0" y="359.0"/>
      <point x="397.0" y="443.0"/>
    </contour>
    <contour>
      <point x="272.0" y="82.0" type="curve" smooth="yes"/>
      <point x="198.0" y="82.0"/>
      <point x="137.0" y="129.0"/>
      <point x="137.0" y="216.0" type="curve" smooth="yes"/>
      <point x="137.0" y="303.0"/>
      <point x="199.0" y="351.0"/>
      <point x="273.0" y="351.0" type="curve" smooth="yes"/>
      <point x="347.0" y="351.0"/>
      <point x="408.0" y="304.0"/>
      <point x="408.0" y="217.0" type="curve" smooth="yes"/>
      <point x="408.0" y="130.0"/>
      <point x="346.0" y="82.0"/>
    </contour>
  </outline>
</glyph>
<glyph name="seven" format="2">
  <advance width="504.0"/>
  <unicode hex="0037"/>
  <note>
seven
</note>
  <outline>
    <contour>
      <point x="323.54" y="592.0" type="line"/>
      <point x="36.0" y="0.0" type="line"/>
      <point x="164.0" y="0.0" type="line"/>
      <point x="494.0" y="700.0" type="line"/>
      <point x="46.0" y="700.0" type="line"/>
      <point x="46.0" y="592.0" type="line"/>
    </contour>
  </outline>
</glyph>
<glyph name="eight" format="2">
  <advance width="527.0"/>
  <unicode hex="0038"/>
  <note>
eight
</note>
  <outline>
    <contour>
      <point x="406.15" y="395.74" type="curve"/>
      <point x="442.31" y="425.42"/>
      <point x="467.0" y="468.58"/>
      <point x="467.0" y="525.0" type="curve" smooth="yes"/>
      <point x="467.0" y="643.0"/>
      <point x="358.0" y="705.0"/>
      <point x="263.0" y="705.0" type="curve" smooth="yes"/>
      <point x="168.0" y="705.0"/>
      <point x="60.0" y="644.0"/>
      <point x="60.0" y="526.0" type="curve" smooth="yes"/>
      <point x="60.0" y="469.76"/>
      <point x="84.75" y="426.47"/>
      <point x="120.95" y="396.56" type="curve"/>
      <point x="61.31" y="360.18"/>
      <point x="19.99" y="299.07"/>
      <point x="19.99" y="218.0" type="curve" smooth="yes"/>
      <point x="19.99" y="80.0"/>
      <point x="138.99" y="0.0"/>
      <point x="263.99" y="0.0" type="curve" smooth="yes"/>
      <point x="388.99" y="0.0"/>
      <point x="506.99" y="79.0"/>
      <point x="506.99" y="217.0" type="curve" smooth="yes"/>
      <point x="506.99" y="297.73"/>
      <point x="465.67" y="359.01"/>
    </contour>
    <contour>
      <point x="168.0" y="525.0" type="curve" smooth="yes"/>
      <point x="168.0" y="590.0"/>
      <point x="220.0" y="617.0"/>
      <point x="264.0" y="617.0" type="curve" smooth="yes"/>
      <point x="308.0" y="617.0"/>
      <point x="359.0" y="591.0"/>
      <point x="359.0" y="526.0" type="curve" smooth="yes"/>
      <point x="359.0" y="471.0"/>
      <point x="317.0" y="435.0"/>
      <point x="263.0" y="435.0" type="curve" smooth="yes"/>
      <point x="209.0" y="435.0"/>
      <point x="168.0" y="471.0"/>
    </contour>
    <contour>
      <point x="263.0" y="88.0" type="curve" smooth="yes"/>
      <point x="189.0" y="88.0"/>
      <point x="128.0" y="133.0"/>
      <point x="128.0" y="217.0" type="curve" smooth="yes"/>
      <point x="128.0" y="300.0"/>
      <point x="190.0" y="347.0"/>
      <point x="264.0" y="347.0" type="curve" smooth="yes"/>
      <point x="338.0" y="347.0"/>
      <point x="399.0" y="301.0"/>
      <point x="399.0" y="218.0" type="curve" smooth="yes"/>
      <point x="399.0" y="134.0"/>
      <point x="337.0" y="88.0"/>
    </contour>
  </outline>
</glyph>
<glyph name="nine" format="2">
  <advance width="600.0"/>
  <unicode hex="0039"/>
  <note>
nine
</note>
  <outline>
    <contour>
      <point x="554.0" y="494.0" type="curve" smooth="yes"/>
      <point x="554.0" y="631.0"/>
      <point x="435.0" y="712.0"/>
      <point x="310.0" y="712.0" type="curve" smooth="yes"/>
      <point x="185.0" y="712.0"/>
      <point x="67.0" y="632.0"/>
      <point x="67.0" y="495.0" type="curve" smooth="yes"/>
      <point x="67.0" y="357.0"/>
      <point x="186.0" y="277.0"/>
      <point x="311.0" y="277.0" type="curve" smooth="yes"/>
      <point x="318.17" y="277.0"/>
      <point x="325.31" y="277.26"/>
      <point x="332.41" y="277.77" type="curve"/>
      <point x="160.0" y="0.0" type="line"/>
      <point x="292.0" y="0.0" type="line"/>
      <point x="520.83" y="379.45" type="line"/>
      <point x="541.7" y="411.03"/>
      <point x="554.0" y="449.44"/>
    </contour>
    <contour>
      <point x="310.0" y="365.0" type="curve" smooth="yes"/>
      <point x="236.0" y="365.0"/>
      <point x="175.0" y="410.0"/>
      <point x="175.0" y="494.0" type="curve" smooth="yes"/>
      <point x="175.0" y="577.0"/>
      <point x="237.0" y="624.0"/>
      <point x="311.0" y="624.0" type="curve" smooth="yes"/>
      <point x="385.0" y="624.0"/>
      <point x="446.0" y="578.0"/>
      <point x="446.0" y="495.0" type="curve" smooth="yes"/>
      <point x="446.0" y="411.0"/>
      <point x="384.0" y="365.0"/>
    </contour>
  </outline>
</glyph>
<glyph name="colon" format="2">
  <advance width="270.0"/>
  <unicode hex="003A"/>
  <note>
colon
</note>
  <outline>
    <contour>
      <point x="201.0" y="397.0" type="line"/>
      <point x="201.0" y="529.0" type="line"/>
      <point x="69.0" y="529.0" type="line"/>
      <point x="69.0" y="397.0" type="line"/>
    </contour>
    <contour>
      <point x="201.61" y="-2.01" type="line"/>
      <point x="201.61" y="131.05" type="line"/>
      <point x="68.55" y="131.05" type="line"/>
      <point x="68.55" y="-2.01" type="line"/>
    </contour>
  </outline>
</glyph>
<glyph name="semicolon" format="2">
  <advance width="385.0"/>
  <unicode hex="003B"/>
  <note>
semicolon
</note>
  <outline>
    <contour>
      <point x="94.0" y="385.0" type="line"/>
      <point x="226.0" y="385.0" type="line"/>
      <point x="226.0" y="517.0" type="line"/>
      <point x="94.0" y="517.0" type="line"/>
    </contour>
    <contour>
      <point x="206.0" y="1.0" type="line"/>
      <point x="206.0" y="133.0" type="line"/>
      <point x="74.0" y="133.0" type="line"/>
      <point x="74.0" y="1.0" type="line"/>
      <point x="137.0" y="1.0" type="line"/>
      <point x="136.98" y="-35.67"/>
      <point x="135.59" y="-72.24"/>
      <point x="91.0" y="-99.0" type="curve"/>
      <point x="91.0" y="-157.0" type="line"/>
      <point x="184.12" y="-133.22"/>
      <point x="205.6" y="-34.86"/>
      <point x="205.99" y="1.0" type="curve"/>
    </contour>
  </outline>
</glyph>
<glyph name="less" format="2">
  <advance width="600.0"/>
  <unicode hex="003C"/>
  <note>
less
</note>
  <outline>
    <contour>
      <point x="557.0" y="-6.0" type="line"/>
      <point x="557.0" y="118.0" type="line"/>
      <point x="224.0" y="287.0" type="line"/>
      <point x="557.0" y="456.0" type="line"/>
      <point x="557.0" y="579.0" type="line"/>
      <point x="25.0" y="287.0" type="line"/>
    </contour>
  </outline>
</glyph>
<glyph name="equal" format="2">
  <advance width="600.0"/>
  <unicode hex="003D"/>
  <note>
equal
</note>
  <outline>
    <contour>
      <point x="559.0" y="310.0" type="line"/>
      <point x="38.0" y="310.0" type="line"/>
      <point x="38.0" y="410.0" type="line"/>
      <point x="559.0" y="410.0" type="line"/>
    </contour>
    <contour>
      <point x="559.0" y="120.0" type="line"/>
      <point x="38.0" y="120.0" type="line"/>
      <point x="38.0" y="220.0" type="line"/>
      <point x="559.0" y="220.0" type="line"/>
    </contour>
  </outline>
</glyph>
<glyph name="greater" format="2">
  <advance width="600.0"/>
  <unicode hex="003E"/>
  <note>
greater
</note>
  <outline>
    <contour>
      <point x="45.0" y="-6.0" type="line"/>
      <point x="577.0" y="287.0" type="line"/>
      <point x="45.0" y="579.0" type="line"/>
      <point x="45.0" y="456.0" type="line"/>
      <point x="378.0" y="287.0" type="line"/>
      <point x="45.0" y="118.0" type="line"/>
    </contour>
  </outline>
</glyph>
<glyph name="question" format="2">
  <advance width="501.0"/>
  <unicode hex="003F"/>
  <note>
question
</note>
  <outline>
    <contour>
      <point x="274.0" y="630.0" type="curve" smooth="yes"/>
      <point x="333.0" y="630.0"/>
      <point x="369.0" y="600.0"/>
      <point x="369.0" y="556.0" type="curve" smooth="yes"/>
      <point x="369.0" y="515.0"/>
      <point x="329.0" y="507.0"/>
      <point x="256.0" y="477.0" type="curve" smooth="yes"/>
      <point x="206.0" y="456.0"/>
      <point x="122.0" y="420.0"/>
      <point x="122.0" y="330.0" type="curve" smooth="yes"/>
      <point x="122.0" y="237.0"/>
      <point x="200.0" y="193.0"/>
      <point x="274.0" y="193.0" type="curve" smooth="yes"/>
      <point x="345.0" y="193.0"/>
      <point x="392.0" y="227.0"/>
      <point x="420.0" y="306.0" type="curve"/>
      <point x="331.0" y="334.0" type="line"/>
      <point x="332.0" y="299.0"/>
      <point x="305.0" y="280.0"/>
      <point x="279.0" y="280.0" type="curve" smooth="yes"/>
      <point x="248.0" y="280.0"/>
      <point x="229.0" y="300.0"/>
      <point x="229.0" y="330.0" type="curve" smooth="yes"/>
      <point x="229.0" y="367.0"/>
      <point x="255.0" y="384.0"/>
      <point x="286.0" y="398.0" type="curve" smooth="yes"/>
      <point x="344.0" y="425.0"/>
      <point x="473.0" y="449.0"/>
      <point x="473.0" y="558.0" type="curve" smooth="yes"/>
      <point x="473.0" y="642.0"/>
      <point x="407.0" y="720.0"/>
      <point x="274.0" y="720.0" type="curve" smooth="yes"/>
      <point x="179.0" y="720.0"/>
      <point x="84.0" y="667.0"/>
      <point x="58.0" y="578.0" type="curve"/>
      <point x="142.0" y="516.0" type="line"/>
      <point x="152.0" y="576.0"/>
      <point x="197.0" y="630.0"/>
    </contour>
    <contour>
      <point x="341.0" y="-1.0" type="line"/>
      <point x="341.0" y="131.0" type="line"/>
      <point x="209.0" y="131.0" type="line"/>
      <point x="209.0" y="-1.0" type="line"/>
    </contour>
  </outline>
</glyph>
<glyph name="at" format="2">
  <advance width="1008.0"/>
  <unicode hex="0040"/>
  <note>
at
</note>
  <outline>
    <contour>
      <point x="473.0" y="290.0" type="curve" smooth="yes"/>
      <point x="317.0" y="274.0"/>
      <point x="264.0" y="216.0"/>
      <point x="264.0" y="140.0" type="curve" smooth="yes"/>
      <point x="264.0" y="49.0"/>
      <point x="331.0" y="-12.0"/>
      <point x="453.0" y="-12.0" type="curve" smooth="yes"/>
      <point x="538.37" y="-12.0"/>
      <point x="592.66" y="27.04"/>
      <point x="622.38" y="78.82" type="curve"/>
      <point x="642.75" y="26.66"/>
      <point x="692.39" y="-12.0"/>
      <point x="765.0" y="-12.0" type="curve" smooth="yes"/>
      <point x="894.0" y="-12.0"/>
      <point x="958.0" y="93.0"/>
      <point x="958.0" y="233.0" type="curve" smooth="yes"/>
      <point x="958.0" y="488.0"/>
      <point x="777.0" y="697.0"/>
      <point x="504.0" y="697.0" type="curve" smooth="yes"/>
      <point x="231.0" y="697.0"/>
      <point x="50.0" y="488.0"/>
      <point x="50.0" y="233.0" type="curve" smooth="yes"/>
      <point x="50.0" y="-19.0"/>
      <point x="232.0" y="-226.0"/>
      <point x="504.0" y="-226.0" type="curve" smooth="yes"/>
      <point x="625.0" y="-226.0"/>
      <point x="728.0" y="-195.0"/>
      <point x="805.0" y="-128.0" type="curve"/>
      <point x="724.0" y="-51.0" type="line"/>
      <point x="668.0" y="-100.0"/>
      <point x="593.0" y="-119.0"/>
      <point x="504.0" y="-119.0" type="curve" smooth="yes"/>
      <point x="302.0" y="-119.0"/>
      <point x="172.0" y="29.0"/>
      <point x="172.0" y="233.0" type="curve" smooth="yes"/>
      <point x="172.0" y="440.0"/>
      <point x="303.0" y="591.0"/>
      <point x="504.0" y="591.0" type="curve" smooth="yes"/>
      <point x="706.0" y="591.0"/>
      <point x="836.0" y="440.0"/>
      <point x="836.0" y="233.0" type="curve" smooth="yes"/>
      <point x="836.0" y="117.0"/>
      <point x="807.0" y="88.0"/>
      <point x="772.0" y="88.0" type="curve" smooth="yes"/>
      <point x="737.0" y="88.0"/>
      <point x="720.0" y="108.0"/>
      <point x="720.0" y="134.0" type="curve" smooth="yes"/>
      <point x="720.0" y="304.0" type="line" smooth="yes"/>
      <point x="720.0" y="385.0"/>
      <point x="702.0" y="510.0"/>
      <point x="511.0" y="510.0" type="curve" smooth="yes"/>
      <point x="399.37" y="510.0"/>
      <point x="304.48" y="442.18"/>
      <point x="304.48" y="360.94" type="curve" smooth="yes"/>
      <point x="304.48" y="353.4"/>
      <point x="305.3" y="345.74"/>
      <point x="307.0" y="338.0" type="curve"/>
      <point x="426.0" y="337.0" type="line"/>
      <point x="421.0" y="349.0"/>
      <point x="432.0" y="420.0"/>
      <point x="511.0" y="420.0" type="curve" smooth="yes"/>
      <point x="541.8" y="420.0"/>
      <point x="563.25" y="413.54"/>
      <point x="578.19" y="402.39" type="curve"/>
      <point x="594.46" y="388.57"/>
      <point x="602.63" y="373.95"/>
      <point x="602.63" y="359.93" type="curve" smooth="yes"/>
      <point x="602.63" y="327.82"/>
      <point x="559.74" y="298.88"/>
    </contour>
    <contour>
      <point x="612.0" y="267.35" type="curve"/>
      <point x="612.0" y="228.0" type="line" smooth="yes"/>
      <point x="612.0" y="112.0"/>
      <point x="543.0" y="65.0"/>
      <point x="467.0" y="65.0" type="curve" smooth="yes"/>
      <point x="396.0" y="65.0"/>
      <point x="377.0" y="112.0"/>
      <point x="377.0" y="145.0" type="curve" smooth="yes"/>
      <point x="377.0" y="188.0"/>
      <point x="419.0" y="215.0"/>
      <point x="478.0" y="222.0" type="curve" smooth="yes"/>
      <point x="529.74" y="228.21"/>
      <point x="577.73" y="242.45"/>
    </contour>
  </outline>
</glyph>
<glyph name="A" format="2">
  <advance width="756.0"/>
  <unicode hex="0041"/>
  <note>
A
</note>
  <outline>
    <contour>
      <point x="30.0" y="0.0" type="line"/>
      <point x="148.0" y="0.0" type="line"/>
      <point x="222.93" y="186.0" type="line"/>
      <point x="533.07" y="186.0" type="line"/>
      <point x="608.0" y="0.0" type="line"/>
      <point x="726.0" y="0.0" type="line"/>
      <point x="442.0" y="700.0" type="line"/>
      <point x="314.0" y="700.0" type="line"/>
    </contour>
    <contour>
      <point x="495.2" y="280.0" type="line"/>
      <point x="260.8" y="280.0" type="line"/>
      <point x="378.0" y="570.92" type="line"/>
    </contour>
  </outline>
</glyph>
<glyph name="B" format="2">
  <advance width="573.0"/>
  <unicode hex="0042"/>
  <note>
B
</note>
  <outline>
    <contour>
      <point x="406.19" y="425.88" type="curve"/>
      <point x="427.91" y="451.59"/>
      <point x="441.0" y="486.49"/>
      <point x="441.0" y="533.0" type="curve" smooth="yes"/>
      <point x="441.0" y="662.0"/>
      <point x="340.0" y="700.0"/>
      <point x="231.0" y="700.0" type="curve" smooth="yes"/>
      <point x="40.0" y="700.0" type="line"/>
      <point x="40.0" y="0.0" type="line"/>
      <point x="288.0" y="0.0" type="line" smooth="yes"/>
      <point x="441.0" y="0.0"/>
      <point x="556.0" y="71.0"/>
      <point x="556.0" y="222.0" type="curve" smooth="yes"/>
      <point x="556.0" y="330.18"/>
      <point x="500.21" y="397.74"/>
    </contour>
    <contour>
      <point x="228.0" y="441.0" type="curve" smooth="yes"/>
      <point x="148.0" y="441.0" type="line"/>
      <point x="148.0" y="602.0" type="line"/>
      <point x="231.0" y="602.0" type="line" smooth="yes"/>
      <point x="300.0" y="602.0"/>
      <point x="333.0" y="572.0"/>
      <point x="333.0" y="523.0" type="curve" smooth="yes"/>
      <point x="333.0" y="474.0"/>
      <point x="301.0" y="441.0"/>
    </contour>
    <contour>
      <point x="269.0" y="98.0" type="curve" smooth="yes"/>
      <point x="148.0" y="98.0" type="line"/>
      <point x="148.0" y="352.0" type="line"/>
      <point x="274.0" y="352.0" type="line" smooth="yes"/>
      <point x="372.0" y="352.0"/>
      <point x="437.0" y="313.0"/>
      <point x="437.0" y="222.0" type="curve" smooth="yes"/>
      <point x="437.0" y="135.0"/>
      <point x="375.0" y="98.0"/>
    </contour>
  </outline>
</glyph>
<glyph name="C" format="2">
  <advance width="723.0"/>
  <unicode hex="0043"/>
  <note>
C
</note>
  <outline>
    <contour>
      <point x="399.0" y="705.0" type="curve" smooth="yes"/>
      <point x="189.0" y="705.0"/>
      <point x="50.0" y="544.0"/>
      <point x="50.0" y="348.0" type="curve" smooth="yes"/>
      <point x="50.0" y="154.0"/>
      <point x="190.0" y="-5.0"/>
      <point x="399.0" y="-5.0" type="curve" smooth="yes"/>
      <point x="529.0" y="-5.0"/>
      <point x="632.0" y="52.0"/>
      <point x="691.0" y="144.0" type="curve"/>
      <point x="589.0" y="193.0" type="line"/>
      <point x="548.0" y="129.0"/>
      <point x="478.0" y="93.0"/>
      <point x="399.0" y="93.0" type="curve" smooth="yes"/>
      <point x="263.0" y="93.0"/>
      <point x="168.0" y="200.0"/>
      <point x="168.0" y="348.0" type="curve" smooth="yes"/>
      <point x="168.0" y="498.0"/>
      <point x="264.0" y="607.0"/>
      <point x="399.0" y="607.0" type="curve" smooth="yes"/>
      <point x="480.0" y="607.0"/>
      <point x="551.0" y="569.0"/>
      <point x="592.0" y="501.0" type="curve"/>
      <point x="693.0" y="552.0" type="line"/>
      <point x="633.0" y="646.0"/>
      <point x="530.0" y="705.0"/>
    </contour>
  </outline>
</glyph>
<glyph name="D" format="2">
  <advance width="626.0"/>
  <unicode hex="0044"/>
  <note>
D
</note>
  <outline>
    <contour>
      <point x="220.0" y="700.0" type="curve" smooth="yes"/>
      <point x="40.0" y="700.0" type="line"/>
      <point x="40.0" y="0.0" type="line"/>
      <point x="236.0" y="0.0" type="line" smooth="yes"/>
      <point x="439.0" y="0.0"/>
      <point x="601.0" y="105.0"/>
      <point x="601.0" y="351.0" type="curve" smooth="yes"/>
      <point x="601.0" y="602.0"/>
      <point x="418.0" y="700.0"/>
    </contour>
    <contour>
      <point x="236.0" y="98.0" type="curve" smooth="yes"/>
      <point x="148.0" y="98.0" type="line"/>
      <point x="148.0" y="602.0" type="line"/>
      <point x="220.0" y="602.0" type="line" smooth="yes"/>
      <point x="373.0" y="602.0"/>
      <point x="488.0" y="537.0"/>
      <point x="488.0" y="351.0" type="curve" smooth="yes"/>
      <point x="488.0" y="169.0"/>
      <point x="392.0" y="98.0"/>
    </contour>
  </outline>
</glyph>
<glyph name="F" format="2">
  <advance width="630.0"/>
  <unicode hex="0046"/>
  <note>
F
</note>
  <outline>
    <contour>
      <point x="575.0" y="304.0" type="line"/>
      <point x="575.0" y="412.0" type="line"/>
      <point x="158.0" y="412.0" type="line"/>
      <point x="158.0" y="592.0" type="line"/>
      <point x="585.0" y="592.0" type="line"/>
      <point x="585.0" y="700.0" type="line"/>
      <point x="50.0" y="700.0" type="line"/>
      <point x="50.0" y="0.0" type="line"/>
      <point x="158.0" y="0.0" type="line"/>
      <point x="158.0" y="304.0" type="line"/>
    </contour>
  </outline>
</glyph>
<glyph name="G" format="2">
  <advance width="777.0"/>
  <unicode hex="0047"/>
  <note>
G
</note>
  <outline>
    <contour>
      <point x="618.0" y="90.0" type="line"/>
      <point x="618.0" y="0.0" type="line"/>
      <point x="716.0" y="0.0" type="line"/>
      <point x="716.0" y="403.0" type="line"/>
      <point x="389.0" y="403.0" type="line"/>
      <point x="389.0" y="305.0" type="line"/>
      <point x="608.0" y="305.0" type="line"/>
      <point x="608.0" y="294.0" type="line" smooth="yes"/>
      <point x="608.0" y="197.0"/>
      <point x="557.0" y="93.0"/>
      <point x="401.0" y="93.0" type="curve" smooth="yes"/>
      <point x="250.0" y="93.0"/>
      <point x="168.0" y="200.0"/>
      <point x="168.0" y="348.0" type="curve" smooth="yes"/>
      <point x="168.0" y="498.0"/>
      <point x="267.0" y="607.0"/>
      <point x="402.0" y="607.0" type="curve" smooth="yes"/>
      <point x="483.0" y="607.0"/>
      <point x="551.0" y="569.0"/>
      <point x="592.0" y="501.0" type="curve"/>
      <point x="693.0" y="552.0" type="line"/>
      <point x="633.0" y="646.0"/>
      <point x="533.0" y="705.0"/>
      <point x="402.0" y="705.0" type="curve" smooth="yes"/>
      <point x="192.0" y="705.0"/>
      <point x="50.0" y="544.0"/>
      <point x="50.0" y="348.0" type="curve" smooth="yes"/>
      <point x="50.0" y="152.54"/>
      <point x="174.85" y="-5.02"/>
      <point x="400.1" y="-5.02" type="curve" smooth="yes"/>
      <point x="494.92" y="-5.02"/>
      <point x="567.89" y="36.12"/>
      <point x="616.93" y="92.98" type="curve"/>
    </contour>
  </outline>
</glyph>
<glyph name="H" format="2">
  <advance width="701.0"/>
  <unicode hex="0048"/>
  <note>
H
</note>
  <outline>
    <contour>
      <point x="543.0" y="313.0" type="line"/>
      <point x="543.0" y="0.0" type="line"/>
      <point x="651.0" y="0.0" type="line"/>
      <point x="651.0" y="700.0" type="line"/>
      <point x="543.0" y="700.0" type="line"/>
      <point x="543.0" y="421.0" type="line"/>
      <point x="158.0" y="421.0" type="line"/>
      <point x="158.0" y="700.0" type="line"/>
      <point x="50.0" y="700.0" type="line"/>
      <point x="50.0" y="0.0" type="line"/>
      <point x="158.0" y="0.0" type="line"/>
      <point x="158.0" y="313.0" type="line"/>
    </contour>
  </outline>
</glyph>
<glyph name="J" format="2">
  <advance width="581.0"/>
  <unicode hex="004A"/>
  <note>
J
</note>
  <outline>
    <contour>
      <point x="501.0" y="245.0" type="curve"/>
      <point x="500.0" y="700.0" type="line"/>
      <point x="392.0" y="700.0" type="line"/>
      <point x="392.0" y="245.0" type="line" smooth="yes"/>
      <point x="392.0" y="134.0"/>
      <point x="331.0" y="83.0"/>
      <point x="250.0" y="83.0" type="curve" smooth="yes"/>
      <point x="157.0" y="83.0"/>
      <point x="132.0" y="130.0"/>
      <point x="115.0" y="176.0" type="curve"/>
      <point x="24.0" y="113.0" type="line"/>
      <point x="56.0" y="43.0"/>
      <point x="123.0" y="-12.0"/>
      <point x="250.0" y="-12.0" type="curve" smooth="yes"/>
      <point x="389.0" y="-12.0"/>
      <point x="501.0" y="74.0"/>
    </contour>
  </outline>
</glyph>
<glyph name="K" format="2">
  <advance width="639.0"/>
  <unicode hex="004B"/>
  <note>
K
</note>
  <outline>
    <contour>
      <point x="50.0" y="0.0" type="line"/>
      <point x="158.0" y="0.0" type="line"/>
      <point x="158.0" y="235.33" type="line"/>
      <point x="257.95" y="344.62" type="line"/>
      <point x="486.0" y="0.0" type="line"/>
      <point x="614.0" y="0.0" type="line"/>
      <point x="333.31" y="427.01" type="line"/>
      <point x="583.0" y="700.0" type="line"/>
      <point x="450.0" y="700.0" type="line"/>
      <point x="158.0" y="380.74" type="line"/>
      <point x="158.0" y="700.0" type="line"/>
      <point x="50.0" y="700.0" type="line"/>
    </contour>
  </outline>
</glyph>
<glyph name="M" format="2">
  <advance width="886.0"/>
  <unicode hex="004D"/>
  <note>
M
</note>
  <outline>
    <contour>
      <point x="728.0" y="499.59" type="line"/>
      <point x="728.0" y="0.0" type="line"/>
      <point x="836.0" y="0.0" type="line"/>
      <point x="836.0" y="700.0" type="line"/>
      <point x="693.0" y="700.0" type="line"/>
      <point x="443.0" y="118.6" type="line"/>
      <point x="193.0" y="700.0" type="line"/>
      <point x="50.0" y="700.0" type="line"/>
      <point x="50.0" y="0.0" type="line"/>
      <point x="158.0" y="0.0" type="line"/>
      <point x="158.0" y="497.96" type="line"/>
      <point x="379.0" y="0.0" type="line"/>
      <point x="507.0" y="0.0" type="line"/>
    </contour>
  </outline>
</glyph>
<glyph name="N" format="2">
  <advance width="625.0"/>
  <unicode hex="004E"/>
  <note>
N
</note>
  <outline>
    <contour>
      <point x="158.0" y="498.22" type="line"/>
      <point x="472.0" y="0.0" type="line"/>
      <point x="585.0" y="0.0" type="line"/>
      <point x="585.0" y="700.0" type="line"/>
      <point x="477.0" y="700.0" type="line"/>
      <point x="477.0" y="191.49" type="line"/>
      <point x="158.0" y="700.0" type="line"/>
      <point x="50.0" y="700.0" type="line"/>
      <point x="50.0" y="0.0" type="line"/>
      <point x="158.0" y="0.0" type="line"/>
    </contour>
  </outline>
</glyph>
<glyph name="P" format="2">
  <advance width="491.0"/>
  <unicode hex="0050"/>
  <note>
P
</note>
  <outline>
    <contour>
      <point x="244.0" y="700.0" type="curve" smooth="yes"/>
      <point x="40.0" y="700.0" type="line"/>
      <point x="40.0" y="0.0" type="line"/>
      <point x="148.0" y="0.0" type="line"/>
      <point x="148.0" y="306.0" type="line"/>
      <point x="238.0" y="306.0" type="line" smooth="yes"/>
      <point x="348.0" y="306.0"/>
      <point x="461.0" y="352.0"/>
      <point x="461.0" y="503.0" type="curve" smooth="yes"/>
      <point x="461.0" y="652.0"/>
      <point x="343.0" y="700.0"/>
    </contour>
    <contour>
      <point x="238.0" y="401.0" type="curve" smooth="yes"/>
      <point x="148.0" y="401.0" type="line"/>
      <point x="148.0" y="602.0" type="line"/>
      <point x="241.0" y="602.0" type="line" smooth="yes"/>
      <point x="310.0" y="602.0"/>
      <point x="353.0" y="572.0"/>
      <point x="353.0" y="503.0" type="curve" smooth="yes"/>
      <point x="353.0" y="434.0"/>
      <point x="311.0" y="401.0"/>
    </contour>
  </outline>
</glyph>
<glyph name="Q" format="2">
  <advance width="802.0"/>
  <unicode hex="0051"/>
  <note>
Q
</note>
  <outline>
    <contour>
      <point x="583.19" y="54.86" type="curve"/>
      <point x="642.0" y="0.0" type="line"/>
      <point x="790.0" y="0.0" type="line"/>
      <point x="654.92" y="124.12" type="line"/>
      <point x="701.47" y="185.18"/>
      <point x="728.0" y="263.25"/>
      <point x="728.0" y="348.0" type="curve" smooth="yes"/>
      <point x="728.0" y="544.0"/>
      <point x="589.0" y="705.0"/>
      <point x="389.0" y="705.0" type="curve" smooth="yes"/>
      <point x="189.0" y="705.0"/>
      <point x="50.0" y="544.0"/>
      <point x="50.0" y="348.0" type="curve" smooth="yes"/>
      <point x="50.0" y="154.0"/>
      <point x="190.0" y="-5.0"/>
      <point x="389.0" y="-5.0" type="curve" smooth="yes"/>
      <point x="463.55" y="-5.0"/>
      <point x="529.63" y="17.09"/>
    </contour>
    <contour>
      <point x="388.99" y="93.0" type="curve" smooth="yes"/>
      <point x="253.0" y="93.0"/>
      <point x="158.0" y="200.0"/>
      <point x="158.0" y="348.0" type="curve" smooth="yes"/>
      <point x="158.0" y="498.0"/>
      <point x="254.0" y="607.0"/>
      <point x="389.0" y="607.0" type="curve" smooth="yes"/>
      <point x="525.0" y="607.0"/>
      <point x="620.0" y="498.0"/>
      <point x="620.0" y="348.0" type="curve" smooth="yes"/>
      <point x="620.0" y="288.99"/>
      <point x="604.89" y="236.49"/>
      <point x="578.11" y="194.7" type="curve"/>
      <point x="456.99" y="306.0" type="line"/>
      <point x="313.99" y="306.0" type="line"/>
      <point x="507.74" y="125.24" type="line"/>
      <point x="473.85" y="104.52"/>
      <point x="433.63" y="93.0"/>
    </contour>
  </outline>
</glyph>
<glyph name="R" format="2">
  <advance width="614.0"/>
  <unicode hex="0052"/>
  <note>
R
</note>
  <outline>
    <contour>
      <point x="256.96" y="331.0" type="curve"/>
      <point x="476.0" y="0.0" type="line"/>
      <point x="604.0" y="0.0" type="line"/>
      <point x="371.97" y="353.49" type="line"/>
      <point x="428.06" y="378.98"/>
      <point x="471.0" y="429.7"/>
      <point x="471.0" y="522.99" type="curve" smooth="yes"/>
      <point x="471.0" y="661.99"/>
      <point x="360.0" y="699.99"/>
      <point x="261.0" y="699.99" type="curve" smooth="yes"/>
      <point x="40.0" y="699.99" type="line"/>
      <point x="40.0" y="-0.01" type="line"/>
      <point x="148.0" y="-0.01" type="line"/>
      <point x="148.0" y="330.23" type="line"/>
      <point x="254.0" y="330.99" type="line" smooth="yes"/>
      <point x="254.98" y="330.99"/>
      <point x="255.97" y="331.0"/>
    </contour>
    <contour>
      <point x="258.0" y="420.99" type="curve" smooth="yes"/>
      <point x="148.0" y="420.99" type="line"/>
      <point x="148.0" y="601.99" type="line"/>
      <point x="187.28" y="601.99"/>
      <point x="234.47" y="601.99"/>
      <point x="261.0" y="601.99" type="curve" smooth="yes"/>
      <point x="320.0" y="601.99"/>
      <point x="363.0" y="571.99"/>
      <point x="363.0" y="512.99" type="curve" smooth="yes"/>
      <point x="363.0" y="453.99"/>
      <point x="321.0" y="420.99"/>
    </contour>
  </outline>
</glyph>
<glyph name="S" format="2">
  <advance width="646.0"/>
  <unicode hex="0053"/>
  <note>
S
</note>
  <outline>
    <contour>
      <point x="336.0" y="708.0" type="curve" smooth="yes"/>
      <point x="208.0" y="708.0"/>
      <point x="110.0" y="628.0"/>
      <point x="110.0" y="525.0" type="curve" smooth="yes"/>
      <point x="110.0" y="432.0"/>
      <point x="185.0" y="364.0"/>
      <point x="320.0" y="324.0" type="curve" smooth="yes"/>
      <point x="403.0" y="298.0"/>
      <point x="485.0" y="277.0"/>
      <point x="485.0" y="206.0" type="curve" smooth="yes"/>
      <point x="485.0" y="137.0"/>
      <point x="444.0" y="88.0"/>
      <point x="341.0" y="88.0" type="curve" smooth="yes"/>
      <point x="219.0" y="88.0"/>
      <point x="169.0" y="150.0"/>
      <point x="151.0" y="240.0" type="curve"/>
      <point x="50.0" y="189.0" type="line"/>
      <point x="88.0" y="76.0"/>
      <point x="174.0" y="-7.0"/>
      <point x="341.0" y="-7.0" type="curve" smooth="yes"/>
      <point x="516.0" y="-7.0"/>
      <point x="596.0" y="93.0"/>
      <point x="596.0" y="206.0" type="curve" smooth="yes"/>
      <point x="596.0" y="347.0"/>
      <point x="437.0" y="389.0"/>
      <point x="352.0" y="415.0" type="curve" smooth="yes"/>
      <point x="258.0" y="443.0"/>
      <point x="220.0" y="479.0"/>
      <point x="220.0" y="525.0" type="curve" smooth="yes"/>
      <point x="220.0" y="576.0"/>
      <point x="266.0" y="615.0"/>
      <point x="336.0" y="615.0" type="curve" smooth="yes"/>
      <point x="409.0" y="615.0"/>
      <point x="451.0" y="583.0"/>
      <point x="451.0" y="526.0" type="curve"/>
      <point x="559.0" y="554.0" type="line"/>
      <point x="544.0" y="657.0"/>
      <point x="446.0" y="708.0"/>
    </contour>
  </outline>
</glyph>
<glyph name="T" format="2">
  <advance width="675.0"/>
  <unicode hex="0054"/>
  <note>
T
</note>
  <outline>
    <contour>
      <point x="284.0" y="0.0" type="line"/>
      <point x="392.0" y="0.0" type="line"/>
      <point x="392.0" y="592.0" type="line"/>
      <point x="655.0" y="592.0" type="line"/>
      <point x="655.0" y="700.0" type="line"/>
      <point x="20.0" y="700.0" type="line"/>
      <point x="20.0" y="592.0" type="line"/>
      <point x="284.0" y="592.0" type="line"/>
    </contour>
  </outline>
</glyph>
<glyph name="V" format="2">
  <advance width="629.0"/>
  <unicode hex="0056"/>
  <note>
V
</note>
  <outline>
    <contour>
      <point x="13.0" y="700.0" type="line"/>
      <point x="252.0" y="0.0" type="line"/>
      <point x="376.0" y="0.0" type="line"/>
      <point x="616.0" y="700.0" type="line"/>
      <point x="508.0" y="700.0" type="line"/>
      <point x="314.09" y="134.44" type="line"/>
      <point x="121.0" y="700.0" type="line"/>
    </contour>
  </outline>
</glyph>
<glyph name="W" format="2">
  <advance width="822.0"/>
  <unicode hex="0057"/>
  <note>
W
</note>
  <outline>
    <contour>
      <point x="409.0" y="507.11" type="line"/>
      <point x="531.0" y="0.0" type="line"/>
      <point x="639.0" y="0.0" type="line"/>
      <point x="799.0" y="700.0" type="line"/>
      <point x="691.0" y="700.0" type="line"/>
      <point x="581.55" y="189.24" type="line"/>
      <point x="456.0" y="690.0" type="line"/>
      <point x="362.0" y="690.0" type="line"/>
      <point x="237.04" y="191.6" type="line"/>
      <point x="131.0" y="700.0" type="line"/>
      <point x="23.0" y="700.0" type="line"/>
      <point x="179.0" y="0.0" type="line"/>
      <point x="287.0" y="0.0" type="line"/>
    </contour>
  </outline>
</glyph>
<glyph name="X" format="2">
  <advance width="743.0"/>
  <unicode hex="0058"/>
  <note>
X
</note>
  <outline>
    <contour>
      <point x="17.0" y="0.0" type="line"/>
      <point x="154.0" y="0.0" type="line"/>
      <point x="379.52" y="286.09" type="line"/>
      <point x="599.0" y="0.0" type="line"/>
      <point x="736.0" y="0.0" type="line"/>
      <point x="451.68" y="368.56" type="line"/>
      <point x="714.0" y="700.0" type="line"/>
      <point x="576.0" y="700.0" type="line"/>
      <point x="383.44" y="457.02" type="line"/>
      <point x="196.0" y="700.0" type="line"/>
      <point x="62.0" y="700.0" type="line"/>
      <point x="311.27" y="375.06" type="line"/>
    </contour>
  </outline>
</glyph>
<glyph name="Y" format="2">
  <advance width="649.0"/>
  <unicode hex="0059"/>
  <note>
Y
</note>
  <outline>
    <contour>
      <point x="270.0" y="0.0" type="line"/>
      <point x="378.0" y="0.0" type="line"/>
      <point x="378.0" y="307.0" type="line"/>
      <point x="634.0" y="700.0" type="line"/>
      <point x="521.0" y="700.0" type="line"/>
      <point x="324.09" y="400.18" type="line"/>
      <point x="128.0" y="700.0" type="line"/>
      <point x="15.0" y="700.0" type="line"/>
      <point x="270.0" y="307.0" type="line"/>
    </contour>
  </outline>
</glyph>
<glyph name="bracketleft" format="2">
  <advance width="500.0"/>
  <unicode hex="005B"/>
  <note>
bracketleft
</note>
  <outline>
    <contour>
      <point x="403.0" y="-151.0" type="line"/>
      <point x="403.0" y="-40.0" type="line"/>
      <point x="262.0" y="-40.0" type="line"/>
      <point x="262.0" y="703.0" type="line"/>
      <point x="403.0" y="703.0" type="line"/>
      <point x="403.0" y="814.0" type="line"/>
      <point x="147.0" y="814.0" type="line"/>
      <point x="147.0" y="-151.0" type="line"/>
    </contour>
  </outline>
</glyph>
<glyph name="backslash" format="2">
  <advance width="600.0"/>
  <unicode hex="005C"/>
  <note>
backslash
</note>
  <outline>
    <contour>
      <point x="116.0" y="724.0" type="line"/>
      <point x="366.0" y="-119.0" type="line"/>
      <point x="471.0" y="-119.0" type="line"/>
      <point x="221.0" y="724.0" type="line"/>
    </contour>
  </outline>
</glyph>
<glyph name="asciicircum" format="2">
  <advance width="600.0"/>
  <unicode hex="005E"/>
  <note>
asciicircum
</note>
  <outline>
    <contour>
      <point x="82.0" y="236.0" type="line"/>
      <point x="180.0" y="236.0" type="line"/>
      <point x="304.0" y="485.59" type="line"/>
      <point x="428.0" y="236.0" type="line"/>
      <point x="526.0" y="236.0" type="line"/>
      <point x="304.0" y="673.0" type="line"/>
    </contour>
  </outline>
</glyph>
<glyph name="grave" format="2">
  <advance width="600.0"/>
  <unicode hex="0060"/>
  <note>
grave
</note>
  <outline>
    <contour>
      <point x="315.0" y="565.0" type="line"/>
      <point x="403.0" y="592.0" type="line"/>
      <point x="219.0" y="764.0" type="line"/>
      <point x="158.0" y="663.0" type="line"/>
    </contour>
  </outline>
</glyph>
<glyph name="b" format="2">
  <advance width="583.0"/>
  <unicode hex="0062"/>
  <note>
b
</note>
  <outline>
    <contour>
      <point x="294.0" y="512.0" type="curve" smooth="yes"/>
      <point x="227.11" y="512.0"/>
      <point x="180.59" y="486.23"/>
      <point x="149.0" y="448.45" type="curve"/>
      <point x="149.0" y="700.0" type="line"/>
      <point x="40.0" y="700.0" type="line"/>
      <point x="41.0" y="0.0" type="line"/>
      <point x="149.0" y="0.0" type="line"/>
      <point x="149.0" y="53.98" type="line"/>
      <point x="180.59" y="15.93"/>
      <point x="227.11" y="-10.0"/>
      <point x="294.0" y="-10.0" type="curve" smooth="yes"/>
      <point x="444.0" y="-10.0"/>
      <point x="543.0" y="104.0"/>
      <point x="543.0" y="252.0" type="curve" smooth="yes"/>
      <point x="543.0" y="399.0"/>
      <point x="444.0" y="512.0"/>
    </contour>
    <contour>
      <point x="294.0" y="86.0" type="curve" smooth="yes"/>
      <point x="207.0" y="86.0"/>
      <point x="138.0" y="147.0"/>
      <point x="138.0" y="252.0" type="curve" smooth="yes"/>
      <point x="138.0" y="355.0"/>
      <point x="207.0" y="417.0"/>
      <point x="294.0" y="417.0" type="curve" smooth="yes"/>
      <point x="378.0" y="417.0"/>
      <point x="434.0" y="345.0"/>
      <point x="434.0" y="252.0" type="curve" smooth="yes"/>
      <point x="434.0" y="157.0"/>
      <point x="378.0" y="86.0"/>
    </contour>
  </outline>
</glyph>
<glyph name="c" format="2">
  <advance width="569.0"/>
  <unicode hex="0063"/>
  <note>
c
</note>
  <outline>
    <contour>
      <point x="443.0" y="320.0" type="curve"/>
      <point x="535.0" y="371.0" type="line"/>
      <point x="504.0" y="459.0"/>
      <point x="423.0" y="511.0"/>
      <point x="304.0" y="511.0" type="curve" smooth="yes"/>
      <point x="148.0" y="511.0"/>
      <point x="30.0" y="417.0"/>
      <point x="30.0" y="245.0" type="curve" smooth="yes"/>
      <point x="30.0" y="74.0"/>
      <point x="158.0" y="-12.0"/>
      <point x="297.0" y="-12.0" type="curve" smooth="yes"/>
      <point x="422.0" y="-12.0"/>
      <point x="507.0" y="48.58"/>
      <point x="539.0" y="151.58" type="curve"/>
      <point x="441.0" y="191.0" type="line"/>
      <point x="421.0" y="132.0"/>
      <point x="388.0" y="79.0"/>
      <point x="297.0" y="79.0" type="curve" smooth="yes"/>
      <point x="216.0" y="79.0"/>
      <point x="140.0" y="134.0"/>
      <point x="140.0" y="245.0" type="curve" smooth="yes"/>
      <point x="140.0" y="355.0"/>
      <point x="203.0" y="422.0"/>
      <point x="304.0" y="422.0" type="curve" smooth="yes"/>
      <point x="371.0" y="422.0"/>
      <point x="420.0" y="397.0"/>
    </contour>
  </outline>
</glyph>
<glyph name="d" format="2">
  <advance width="578.0"/>
  <unicode hex="0064"/>
  <note>
d
</note>
  <outline>
    <contour>
      <point x="414.0" y="53.98" type="curve"/>
      <point x="414.0" y="0.0" type="line"/>
      <point x="522.0" y="0.0" type="line"/>
      <point x="523.0" y="700.0" type="line"/>
      <point x="414.0" y="700.0" type="line"/>
      <point x="414.0" y="448.45" type="line"/>
      <point x="382.4" y="486.23"/>
      <point x="335.89" y="512.0"/>
      <point x="269.0" y="512.0" type="curve" smooth="yes"/>
      <point x="119.0" y="512.0"/>
      <point x="20.0" y="399.0"/>
      <point x="20.0" y="252.0" type="curve" smooth="yes"/>
      <point x="20.0" y="104.0"/>
      <point x="119.0" y="-10.0"/>
      <point x="269.0" y="-10.0" type="curve" smooth="yes"/>
      <point x="335.89" y="-10.0"/>
      <point x="382.4" y="15.93"/>
    </contour>
    <contour>
      <point x="269.0" y="86.0" type="curve" smooth="yes"/>
      <point x="185.0" y="86.0"/>
      <point x="129.0" y="157.0"/>
      <point x="129.0" y="252.0" type="curve" smooth="yes"/>
      <point x="129.0" y="345.0"/>
      <point x="185.0" y="417.0"/>
      <point x="269.0" y="417.0" type="curve" smooth="yes"/>
      <point x="356.0" y="417.0"/>
      <point x="425.0" y="355.0"/>
      <point x="425.0" y="252.0" type="curve" smooth="yes"/>
      <point x="425.0" y="147.0"/>
      <point x="356.0" y="86.0"/>
    </contour>
  </outline>
</glyph>
<glyph name="g" format="2">
  <advance width="568.0"/>
  <unicode hex="0067"/>
  <note>
g
</note>
  <outline>
    <contour>
      <point x="523.0" y="-3.0" type="curve"/>
      <point x="522.0" y="500.0" type="line"/>
      <point x="414.0" y="500.0" type="line"/>
      <point x="414.0" y="446.02" type="line"/>
      <point x="382.4" y="484.06"/>
      <point x="335.89" y="510.0"/>
      <point x="269.0" y="510.0" type="curve" smooth="yes"/>
      <point x="119.0" y="510.0"/>
      <point x="20.0" y="396.0"/>
      <point x="20.0" y="248.0" type="curve" smooth="yes"/>
      <point x="20.0" y="101.0"/>
      <point x="119.0" y="-12.0"/>
      <point x="269.0" y="-12.0" type="curve" smooth="yes"/>
      <point x="335.89" y="-12.0"/>
      <point x="382.4" y="13.76"/>
      <point x="414.0" y="51.54" type="curve"/>
      <point x="414.0" y="-3.0" type="line" smooth="yes"/>
      <point x="414.0" y="-114.0"/>
      <point x="353.0" y="-165.0"/>
      <point x="272.0" y="-165.0" type="curve" smooth="yes"/>
      <point x="179.0" y="-165.0"/>
      <point x="154.0" y="-118.0"/>
      <point x="137.0" y="-72.0" type="curve"/>
      <point x="32.0" y="-95.0" type="line"/>
      <point x="55.0" y="-183.0"/>
      <point x="121.0" y="-260.0"/>
      <point x="272.0" y="-260.0" type="curve" smooth="yes"/>
      <point x="411.0" y="-260.0"/>
      <point x="523.0" y="-174.0"/>
    </contour>
    <contour>
      <point x="269.0" y="83.0" type="curve" smooth="yes"/>
      <point x="185.0" y="83.0"/>
      <point x="129.0" y="155.0"/>
      <point x="129.0" y="248.0" type="curve" smooth="yes"/>
      <point x="129.0" y="343.0"/>
      <point x="185.0" y="414.0"/>
      <point x="269.0" y="414.0" type="curve" smooth="yes"/>
      <point x="356.0" y="414.0"/>
      <point x="425.0" y="353.0"/>
      <point x="425.0" y="248.0" type="curve" smooth="yes"/>
      <point x="425.0" y="145.0"/>
      <point x="356.0" y="83.0"/>
    </contour>
  </outline>
</glyph>
<glyph name="h" format="2">
  <advance width="571.0"/>
  <unicode hex="0068"/>
  <note>
h
</note>
  <outline>
    <contour>
      <point x="317.99" y="507.0" type="curve" smooth="yes"/>
      <point x="245.3" y="507.0"/>
      <point x="184.78" y="468.43"/>
      <point x="147.99" y="411.59" type="curve"/>
      <point x="147.99" y="700.0" type="line"/>
      <point x="39.99" y="700.0" type="line"/>
      <point x="39.99" y="0.0" type="line"/>
      <point x="147.99" y="0.0" type="line"/>
      <point x="147.99" y="239.87" type="line" smooth="yes"/>
      <point x="148.89" y="363.52"/>
      <point x="238.34" y="415.0"/>
      <point x="306.99" y="415.0" type="curve" smooth="yes"/>
      <point x="389.99" y="415.0"/>
      <point x="417.99" y="364.0"/>
      <point x="417.99" y="296.0" type="curve" smooth="yes"/>
      <point x="417.99" y="0.0" type="line"/>
      <point x="525.99" y="0.0" type="line"/>
      <point x="525.99" y="296.0" type="line" smooth="yes"/>
      <point x="525.99" y="397.0"/>
      <point x="485.99" y="507.0"/>
    </contour>
  </outline>
</glyph>
<glyph name="j" format="2">
  <advance width="248.0"/>
  <unicode hex="006A"/>
  <note>
j
</note>
  <outline>
    <contour>
      <point x="178.0" y="700.0" type="line"/>
      <point x="70.0" y="700.0" type="line"/>
      <point x="70.0" y="592.0" type="line"/>
      <point x="178.0" y="592.0" type="line"/>
    </contour>
    <contour>
      <point x="178.0" y="-63.0" type="curve" smooth="yes"/>
      <point x="178.0" y="500.0" type="line"/>
      <point x="70.0" y="500.0" type="line"/>
      <point x="70.0" y="-63.0" type="line" smooth="yes"/>
      <point x="70.0" y="-114.0"/>
      <point x="54.0" y="-172.0"/>
      <point x="-15.0" y="-172.0" type="curve" smooth="yes"/>
      <point x="-64.0" y="-172.0"/>
      <point x="-101.0" y="-130.0"/>
      <point x="-107.0" y="-108.0" type="curve"/>
      <point x="-195.0" y="-171.0" type="line"/>
      <point x="-168.0" y="-208.0"/>
      <point x="-122.0" y="-260.0"/>
      <point x="-15.0" y="-260.0" type="curve" smooth="yes"/>
      <point x="153.0" y="-260.0"/>
      <point x="178.0" y="-124.0"/>
    </contour>
  </outline>
</glyph>
<glyph name="k" format="2">
  <advance width="511.0"/>
  <unicode hex="006B"/>
  <note>
k
</note>
  <outline>
    <contour>
      <point x="40.0" y="0.0" type="line"/>
      <point x="148.0" y="0.0" type="line"/>
      <point x="148.0" y="175.7" type="line"/>
      <point x="221.29" y="251.39" type="line"/>
      <point x="387.0" y="0.0" type="line"/>
      <point x="515.0" y="0.0" type="line"/>
      <point x="297.91" y="330.54" type="line"/>
      <point x="462.0" y="500.0" type="line"/>
      <point x="325.0" y="500.0" type="line"/>
      <point x="148.0" y="311.73" type="line"/>
      <point x="148.0" y="700.0" type="line"/>
      <point x="40.0" y="700.0" type="line"/>
    </contour>
  </outline>
</glyph>
<glyph name="m" format="2">
  <advance width="926.0"/>
  <unicode hex="006D"/>
  <note>
m
</note>
  <outline>
    <contour>
      <point x="672.99" y="509.99" type="curve" smooth="yes"/>
      <point x="592.28" y="510.0"/>
      <point x="527.98" y="467.85"/>
      <point x="490.81" y="407.02" type="curve"/>
      <point x="464.48" y="465.31"/>
      <point x="409.75" y="509.99"/>
      <point x="305.99" y="509.99" type="curve" smooth="yes"/>
      <point x="234.54" y="509.99"/>
      <point x="180.81" y="475.56"/>
      <point x="147.99" y="424.02" type="curve"/>
      <point x="147.99" y="499.99" type="line"/>
      <point x="39.99" y="499.99" type="line"/>
      <point x="39.99" y="-0.01" type="line"/>
      <point x="147.99" y="-0.01" type="line"/>
      <point x="147.99" y="237.99" type="line" smooth="yes"/>
      <point x="147.99" y="362.99"/>
      <point x="227.99" y="414.99"/>
      <point x="294.99" y="414.99" type="curve" smooth="yes"/>
      <point x="376.99" y="414.99"/>
      <point x="403.99" y="363.99"/>
      <point x="403.99" y="295.99" type="curve" smooth="yes"/>
      <point x="403.99" y="-0.01" type="line"/>
      <point x="511.99" y="-0.01" type="line"/>
      <point x="511.99" y="237.99" type="line" smooth="yes"/>
      <point x="511.99" y="362.99"/>
      <point x="592.99" y="414.99"/>
      <point x="661.99" y="414.99" type="curve" smooth="yes"/>
      <point x="744.99" y="414.99"/>
      <point x="772.99" y="363.99"/>
      <point x="772.99" y="295.99" type="curve" smooth="yes"/>
      <point x="772.99" y="-0.01" type="line"/>
      <point x="880.99" y="-0.01" type="line"/>
      <point x="880.99" y="295.99" type="line" smooth="yes"/>
      <point x="880.99" y="396.99"/>
      <point x="840.99" y="509.99"/>
    </contour>
  </outline>
</glyph>
<glyph name="o" format="2">
  <advance width="569.0"/>
  <unicode hex="006F"/>
  <note>
o
</note>
  <outline>
    <contour>
      <point x="284.48" y="-12.0" type="curve" smooth="yes"/>
      <point x="434.91" y="-12.0"/>
      <point x="538.97" y="102.0"/>
      <point x="538.97" y="247.0" type="curve" smooth="yes"/>
      <point x="538.97" y="393.0"/>
      <point x="434.91" y="510.0"/>
      <point x="284.48" y="510.0" type="curve" smooth="yes"/>
      <point x="134.06" y="510.0"/>
      <point x="30.0" y="393.0"/>
      <point x="30.0" y="247.0" type="curve" smooth="yes"/>
      <point x="30.0" y="102.0"/>
      <point x="134.06" y="-12.0"/>
    </contour>
    <contour>
      <point x="284.48" y="77.0" type="curve" smooth="yes"/>
      <point x="196.2" y="77.0"/>
      <point x="136.29" y="148.0"/>
      <point x="136.29" y="247.0" type="curve" smooth="yes"/>
      <point x="136.29" y="347.0"/>
      <point x="196.2" y="418.0"/>
      <point x="284.48" y="418.0" type="curve" smooth="yes"/>
      <point x="372.77" y="418.0"/>
      <point x="432.67" y="347.0"/>
      <point x="432.67" y="247.0" type="curve" smooth="yes"/>
      <point x="432.67" y="148.0"/>
      <point x="372.77" y="77.0"/>
    </contour>
  </outline>
</glyph>
<glyph name="p" format="2">
  <advance width="573.0"/>
  <unicode hex="0070"/>
  <note>
p
</note>
  <outline>
    <contour>
      <point x="294.0" y="510.0" type="curve" smooth="yes"/>
      <point x="227.11" y="510.0"/>
      <point x="180.6" y="484.07"/>
      <point x="149.0" y="446.02" type="curve"/>
      <point x="149.0" y="500.0" type="line"/>
      <point x="41.0" y="500.0" type="line"/>
      <point x="40.0" y="-200.0" type="line"/>
      <point x="149.0" y="-200.0" type="line"/>
      <point x="149.0" y="51.55" type="line"/>
      <point x="180.6" y="13.77"/>
      <point x="227.11" y="-12.0"/>
      <point x="294.0" y="-12.0" type="curve" smooth="yes"/>
      <point x="444.0" y="-12.0"/>
      <point x="543.0" y="101.0"/>
      <point x="543.0" y="248.0" type="curve" smooth="yes"/>
      <point x="543.0" y="396.0"/>
      <point x="444.0" y="510.0"/>
    </contour>
    <contour>
      <point x="294.0" y="83.0" type="curve" smooth="yes"/>
      <point x="207.0" y="83.0"/>
      <point x="138.0" y="145.0"/>
      <point x="138.0" y="248.0" type="curve" smooth="yes"/>
      <point x="138.0" y="353.0"/>
      <point x="207.0" y="414.0"/>
      <point x="294.0" y="414.0" type="curve" smooth="yes"/>
      <point x="378.0" y="414.0"/>
      <point x="434.0" y="343.0"/>
      <point x="434.0" y="248.0" type="curve" smooth="yes"/>
      <point x="434.0" y="155.0"/>
      <point x="378.0" y="83.0"/>
    </contour>
  </outline>
</glyph>
<glyph name="q" format="2">
  <advance width="563.0"/>
  <unicode hex="0071"/>
  <note>
q
</note>
  <outline>
    <contour>
      <point x="414.0" y="51.54" type="curve"/>
      <point x="414.0" y="-200.0" type="line"/>
      <point x="523.0" y="-200.0" type="line"/>
      <point x="522.0" y="500.0" type="line"/>
      <point x="414.0" y="500.0" type="line"/>
      <point x="414.0" y="446.02" type="line"/>
      <point x="382.4" y="484.06"/>
      <point x="335.89" y="510.0"/>
      <point x="269.0" y="510.0" type="curve" smooth="yes"/>
      <point x="119.0" y="510.0"/>
      <point x="20.0" y="396.0"/>
      <point x="20.0" y="248.0" type="curve" smooth="yes"/>
      <point x="20.0" y="101.0"/>
      <point x="119.0" y="-12.0"/>
      <point x="269.0" y="-12.0" type="curve" smooth="yes"/>
      <point x="335.89" y="-12.0"/>
      <point x="382.4" y="13.76"/>
    </contour>
    <contour>
      <point x="269.0" y="83.0" type="curve" smooth="yes"/>
      <point x="185.0" y="83.0"/>
      <point x="129.0" y="155.0"/>
      <point x="129.0" y="248.0" type="curve" smooth="yes"/>
      <point x="129.0" y="343.0"/>
      <point x="185.0" y="414.0"/>
      <point x="269.0" y="414.0" type="curve" smooth="yes"/>
      <point x="356.0" y="414.0"/>
      <point x="425.0" y="353.0"/>
      <point x="425.0" y="248.0" type="curve" smooth="yes"/>
      <point x="425.0" y="145.0"/>
      <point x="356.0" y="83.0"/>
    </contour>
  </outline>
</glyph>
<glyph name="r" format="2">
  <advance width="465.0"/>
  <unicode hex="0072"/>
  <note>
r
</note>
  <outline>
    <contour>
      <point x="288.0" y="510.0" type="curve" smooth="yes"/>
      <point x="225.68" y="510.0"/>
      <point x="176.7" y="471.42"/>
      <point x="148.0" y="414.8" type="curve"/>
      <point x="148.0" y="500.0" type="line"/>
      <point x="40.0" y="500.0" type="line"/>
      <point x="40.0" y="0.0" type="line"/>
      <point x="148.0" y="0.0" type="line"/>
      <point x="148.0" y="238.0" type="line" smooth="yes"/>
      <point x="148.0" y="363.0"/>
      <point x="219.0" y="415.0"/>
      <point x="277.0" y="415.0" type="curve" smooth="yes"/>
      <point x="326.0" y="415.0"/>
      <point x="350.0" y="384.0"/>
      <point x="348.0" y="338.0" type="curve"/>
      <point x="454.0" y="338.0" type="line"/>
      <point x="460.0" y="426.0"/>
      <point x="416.0" y="510.0"/>
    </contour>
  </outline>
</glyph>
<glyph name="t" format="2">
  <advance width="459.0"/>
  <unicode hex="0074"/>
  <note>
t
</note>
  <outline>
    <contour>
      <point x="449.0" y="97.0" type="curve"/>
      <point x="366.0" y="145.0" type="line"/>
      <point x="352.0" y="117.0"/>
      <point x="331.0" y="77.0"/>
      <point x="282.0" y="77.0" type="curve" smooth="yes"/>
      <point x="234.0" y="77.0"/>
      <point x="208.0" y="109.0"/>
      <point x="208.0" y="157.0" type="curve" smooth="yes"/>
      <point x="208.0" y="400.0" type="line"/>
      <point x="360.0" y="400.0" type="line"/>
      <point x="360.0" y="500.0" type="line"/>
      <point x="208.0" y="500.0" type="line"/>
      <point x="208.0" y="700.0" type="line"/>
      <point x="100.0" y="700.0" type="line"/>
      <point x="100.0" y="500.0" type="line"/>
      <point x="10.0" y="500.0" type="line"/>
      <point x="10.0" y="400.0" type="line"/>
      <point x="100.0" y="400.0" type="line"/>
      <point x="100.0" y="155.0" type="line" smooth="yes"/>
      <point x="100.0" y="64.0"/>
      <point x="146.0" y="-12.0"/>
      <point x="282.0" y="-12.0" type="curve" smooth="yes"/>
      <point x="370.0" y="-12.0"/>
      <point x="418.0" y="38.0"/>
    </contour>
  </outline>
</glyph>
<glyph name="v" format="2">
  <advance width="546.0"/>
  <unicode hex="0076"/>
  <note>
v
</note>
  <outline>
    <contour>
      <point x="10.0" y="500.0" type="line"/>
      <point x="211.0" y="0.0" type="line"/>
      <point x="335.0" y="0.0" type="line"/>
      <point x="536.0" y="500.0" type="line"/>
      <point x="428.0" y="500.0" type="line"/>
      <point x="273.0" y="114.43" type="line"/>
      <point x="118.0" y="500.0" type="line"/>
    </contour>
  </outline>
</glyph>
<glyph name="w" format="2">
  <advance width="706.0"/>
  <unicode hex="0077"/>
  <note>
w
</note>
  <outline>
    <contour>
      <point x="353.0" y="325.0" type="line"/>
      <point x="435.0" y="0.0" type="line"/>
      <point x="543.0" y="0.0" type="line"/>
      <point x="686.0" y="500.0" type="line"/>
      <point x="578.0" y="500.0" type="line"/>
      <point x="489.0" y="165.41" type="line"/>
      <point x="400.0" y="500.0" type="line"/>
      <point x="306.0" y="500.0" type="line"/>
      <point x="217.0" y="165.41" type="line"/>
      <point x="128.0" y="500.0" type="line"/>
      <point x="20.0" y="500.0" type="line"/>
      <point x="163.0" y="0.0" type="line"/>
      <point x="271.0" y="0.0" type="line"/>
    </contour>
  </outline>
</glyph>
<glyph name="x" format="2">
  <advance width="590.0"/>
  <unicode hex="0078"/>
  <note>
x
</note>
  <outline>
    <contour>
      <point x="20.0" y="0.0" type="line"/>
      <point x="158.0" y="0.0" type="line"/>
      <point x="292.58" y="171.12" type="line"/>
      <point x="424.0" y="0.0" type="line"/>
      <point x="561.0" y="0.0" type="line"/>
      <point x="364.84" y="254.09" type="line"/>
      <point x="558.0" y="500.0" type="line"/>
      <point x="420.0" y="500.0" type="line"/>
      <point x="296.5" y="342.61" type="line"/>
      <point x="175.0" y="500.0" type="line"/>
      <point x="40.0" y="500.0" type="line"/>
      <point x="224.27" y="260.06" type="line"/>
    </contour>
  </outline>
</glyph>
<glyph name="y" format="2">
  <advance width="532.0"/>
  <unicode hex="0079"/>
  <note>
y
</note>
  <outline>
    <contour>
      <point x="230.14" y="63.76" type="line"/>
      <point x="122.0" y="-200.0" type="line"/>
      <point x="236.0" y="-200.0" type="line"/>
      <point x="522.0" y="500.0" type="line"/>
      <point x="409.0" y="500.0" type="line"/>
      <point x="284.42" y="196.14" type="line"/>
      <point x="139.0" y="500.0" type="line"/>
      <point x="15.0" y="500.0" type="line"/>
    </contour>
  </outline>
</glyph>
<glyph name="z" format="2">
  <advance width="489.0"/>
  <unicode hex="007A"/>
  <note>
z
</note>
  <outline>
    <contour>
      <point x="20.0" y="100.0" type="line"/>
      <point x="20.0" y="0.0" type="line"/>
      <point x="469.0" y="0.0" type="line"/>
      <point x="469.0" y="100.0" type="line"/>
      <point x="157.75" y="100.0" type="line"/>
      <point x="451.0" y="400.0" type="line"/>
      <point x="451.0" y="500.0" type="line"/>
      <point x="35.0" y="500.0" type="line"/>
      <point x="35.0" y="400.0" type="line"/>
      <point x="313.25" y="400.0" type="line"/>
    </contour>
  </outline>
</glyph>
<glyph name="braceleft" format="2">
  <advance width="512.0"/>
  <unicode hex="007B"/>
  <note>
braceleft
</note>
  <outline>
    <contour>
      <point x="363.0" y="697.0" type="curve"/>
      <point x="363.0" y="788.0" type="line"/>
      <point x="354.7" y="788.79"/>
      <point x="346.66" y="789.18"/>
      <point x="338.89" y="789.18" type="curve" smooth="yes"/>
      <point x="248.28" y="789.18"/>
      <point x="194.0" y="735.28"/>
      <point x="194.0" y="622.0" type="curve" smooth="yes"/>
      <point x="194.0" y="529.85"/>
      <point x="227.11" y="451.57"/>
      <point x="227.11" y="411.48" type="curve" smooth="yes"/>
      <point x="227.11" y="405.89"/>
      <point x="226.47" y="401.04"/>
      <point x="225.0" y="397.0" type="curve" smooth="yes"/>
      <point x="215.0" y="368.0"/>
      <point x="198.0" y="365.0"/>
      <point x="149.0" y="365.0" type="curve"/>
      <point x="149.0" y="252.0" type="line"/>
      <point x="199.0" y="252.0"/>
      <point x="215.0" y="250.0"/>
      <point x="226.0" y="221.0" type="curve" smooth="yes"/>
      <point x="227.44" y="217.04"/>
      <point x="228.07" y="212.29"/>
      <point x="228.07" y="206.81" type="curve" smooth="yes"/>
      <point x="228.07" y="166.63"/>
      <point x="194.0" y="87.4"/>
      <point x="194.0" y="-5.0" type="curve" smooth="yes"/>
      <point x="194.0" y="-118.14"/>
      <point x="248.15" y="-171.21"/>
      <point x="338.55" y="-171.21" type="curve" smooth="yes"/>
      <point x="346.43" y="-171.21"/>
      <point x="354.58" y="-170.8"/>
      <point x="363.0" y="-170.0" type="curve"/>
      <point x="363.0" y="-79.0" type="line"/>
      <point x="354.78" y="-80.65"/>
      <point x="347.66" y="-81.51"/>
      <point x="341.51" y="-81.51" type="curve" smooth="yes"/>
      <point x="310.28" y="-81.51"/>
      <point x="304.0" y="-59.31"/>
      <point x="304.0" y="-5.0" type="curve" smooth="yes"/>
      <point x="304.0" y="66.2"/>
      <point x="337.28" y="142.52"/>
      <point x="337.28" y="206.55" type="curve" smooth="yes"/>
      <point x="337.28" y="222.56"/>
      <point x="335.2" y="237.8"/>
      <point x="330.0" y="252.0" type="curve" smooth="yes"/>
      <point x="320.35" y="277.21"/>
      <point x="304.98" y="295.55"/>
      <point x="286.58" y="308.84" type="curve"/>
      <point x="305.16" y="322.16"/>
      <point x="320.58" y="340.59"/>
      <point x="330.0" y="366.0" type="curve" smooth="yes"/>
      <point x="335.2" y="380.2"/>
      <point x="337.28" y="395.44"/>
      <point x="337.28" y="411.44" type="curve" smooth="yes"/>
      <point x="337.28" y="475.44"/>
      <point x="304.0" y="551.6"/>
      <point x="304.0" y="622.0" type="curve" smooth="yes"/>
      <point x="304.0" y="677.17"/>
      <point x="310.99" y="699.5"/>
      <point x="341.9" y="699.5" type="curve" smooth="yes"/>
      <point x="347.97" y="699.5"/>
      <point x="354.96" y="698.64"/>
    </contour>
  </outline>
</glyph>
<glyph name="bar" format="2">
  <advance width="314.0"/>
  <unicode hex="007C"/>
  <note>
bar
</note>
  <outline>
    <contour>
      <point x="215.0" y="-151.0" type="line"/>
      <point x="215.0" y="814.0" type="line"/>
      <point x="100.0" y="814.0" type="line"/>
      <point x="100.0" y="-151.0" type="line"/>
    </contour>
  </outline>
</glyph>
<glyph name="braceright" format="2">
  <advance width="512.0"/>
  <unicode hex="007D"/>
  <note>
braceright
</note>
  <outline>
    <contour>
      <point x="165.0" y="787.99" type="curve"/>
      <point x="165.0" y="697.0" type="line"/>
      <point x="173.04" y="698.64"/>
      <point x="180.03" y="699.5"/>
      <point x="186.1" y="699.5" type="curve" smooth="yes"/>
      <point x="217.01" y="699.5"/>
      <point x="224.0" y="677.17"/>
      <point x="224.0" y="622.0" type="curve" smooth="yes"/>
      <point x="224.0" y="551.6"/>
      <point x="190.72" y="475.44"/>
      <point x="190.72" y="411.44" type="curve" smooth="yes"/>
      <point x="190.72" y="395.44"/>
      <point x="192.8" y="380.2"/>
      <point x="198.0" y="366.0" type="curve" smooth="yes"/>
      <point x="207.42" y="340.58"/>
      <point x="222.84" y="322.16"/>
      <point x="241.42" y="308.84" type="curve"/>
      <point x="223.02" y="295.54"/>
      <point x="207.65" y="277.21"/>
      <point x="198.0" y="251.99" type="curve" smooth="yes"/>
      <point x="192.8" y="237.79"/>
      <point x="190.72" y="222.55"/>
      <point x="190.72" y="206.54" type="curve" smooth="yes"/>
      <point x="190.72" y="142.51"/>
      <point x="224.0" y="66.19"/>
      <point x="224.0" y="-5.01" type="curve" smooth="yes"/>
      <point x="224.0" y="-59.32"/>
      <point x="217.72" y="-81.51"/>
      <point x="186.49" y="-81.51" type="curve" smooth="yes"/>
      <point x="180.34" y="-81.51"/>
      <point x="173.22" y="-80.65"/>
      <point x="165.0" y="-79.01" type="curve"/>
      <point x="165.0" y="-170.01" type="line"/>
      <point x="173.42" y="-170.81"/>
      <point x="181.57" y="-171.21"/>
      <point x="189.45" y="-171.21" type="curve" smooth="yes"/>
      <point x="279.85" y="-171.21"/>
      <point x="334.0" y="-118.15"/>
      <point x="334.0" y="-5.01" type="curve" smooth="yes"/>
      <point x="334.0" y="87.39"/>
      <point x="299.93" y="166.63"/>
      <point x="299.93" y="206.8" type="curve" smooth="yes"/>
      <point x="299.93" y="212.28"/>
      <point x="300.56" y="217.03"/>
      <point x="302.0" y="220.99" type="curve" smooth="yes"/>
      <point x="313.0" y="249.99"/>
      <point x="329.0" y="251.99"/>
      <point x="379.0" y="251.99" type="curve"/>
      <point x="379.0" y="364.99" type="line"/>
      <point x="330.0" y="364.99"/>
      <point x="313.0" y="367.99"/>
      <point x="303.0" y="396.99" type="curve" smooth="yes"/>
      <point x="301.53" y="401.03"/>
      <point x="300.89" y="405.88"/>
      <point x="300.89" y="411.48" type="curve" smooth="yes"/>
      <point x="300.89" y="451.57"/>
      <point x="334.0" y="529.85"/>
      <point x="334.0" y="621.99" type="curve" smooth="yes"/>
      <point x="334.0" y="735.27"/>
      <point x="279.72" y="789.18"/>
      <point x="189.11" y="789.18" type="curve" smooth="yes"/>
      <point x="181.34" y="789.18"/>
      <point x="173.3" y="788.78"/>
    </contour>
  </outline>
</glyph>
<glyph name="asciitilde" format="2">
  <advance width="600.0"/>
  <unicode hex="007E"/>
  <note>
asciitilde
</note>
  <outline>
    <contour>
      <point x="547.0" y="379.0" type="curve"/>
      <point x="462.0" y="379.0" type="line"/>
      <point x="464.47" y="371.82"/>
      <point x="465.97" y="363.12"/>
      <point x="465.97" y="354.08" type="curve" smooth="yes"/>
      <point x="465.97" y="326.58"/>
      <point x="452.14" y="296.0"/>
      <point x="410.0" y="296.0" type="curve" smooth="yes"/>
      <point x="374.0" y="296.0"/>
      <point x="327.0" y="334.0"/>
      <point x="297.0" y="356.0" type="curve" smooth="yes"/>
      <point x="263.0" y="380.0"/>
      <point x="223.0" y="403.0"/>
      <point x="176.0" y="403.0" type="curve" smooth="yes"/>
      <point x="66.22" y="403.0"/>
      <point x="41.27" y="333.07"/>
      <point x="41.27" y="282.18" type="curve" smooth="yes"/>
      <point x="41.27" y="265.85"/>
      <point x="43.84" y="251.48"/>
      <point x="47.0" y="242.0" type="curve"/>
      <point x="132.0" y="242.0" type="line"/>
      <point x="129.53" y="249.18"/>
      <point x="128.03" y="257.88"/>
      <point x="128.03" y="266.92" type="curve" smooth="yes"/>
      <point x="128.03" y="294.42"/>
      <point x="141.86" y="325.0"/>
      <point x="184.0" y="325.0" type="curve" smooth="yes"/>
      <point x="220.0" y="325.0"/>
      <point x="268.0" y="287.0"/>
      <point x="298.0" y="265.0" type="curve" smooth="yes"/>
      <point x="332.0" y="241.0"/>
      <point x="371.0" y="218.0"/>
      <point x="418.0" y="218.0" type="curve" smooth="yes"/>
      <point x="527.78" y="218.0"/>
      <point x="552.73" y="287.93"/>
      <point x="552.73" y="338.82" type="curve" smooth="yes"/>
      <point x="552.73" y="355.15"/>
      <point x="550.16" y="369.52"/>
    </contour>
  </outline>
</glyph>
<glyph name="exclamdown" format="2">
  <advance width="310.0"/>
  <unicode hex="00A1"/>
  <note>
exclamdown
</note>
  <outline>
    <contour>
      <point x="89.0" y="410.0" type="line"/>
      <point x="221.0" y="410.0" type="line"/>
      <point x="221.0" y="542.0" type="line"/>
      <point x="89.0" y="542.0" type="line"/>
    </contour>
    <contour>
      <point x="89.0" y="-189.0" type="line"/>
      <point x="221.0" y="-189.0" type="line"/>
      <point x="221.0" y="-42.0" type="line"/>
      <point x="200.0" y="338.0" type="line"/>
      <point x="110.0" y="338.0" type="line"/>
      <point x="89.0" y="-42.0" type="line"/>
    </contour>
  </outline>
</glyph>
<glyph name="cent" format="2">
  <advance width="549.0"/>
  <unicode hex="00A2"/>
  <note>
cent
</note>
  <outline>
    <contour>
      <point x="539.0" y="248.58" type="curve"/>
      <point x="441.0" y="288.0" type="line"/>
      <point x="425.19" y="241.37"/>
      <point x="401.26" y="198.49"/>
      <point x="347.0" y="182.56" type="curve"/>
      <point x="347.0" y="514.77" type="line"/>
      <point x="392.03" y="504.87"/>
      <point x="425.25" y="476.41"/>
      <point x="443.0" y="417.0" type="curve"/>
      <point x="535.0" y="468.0" type="line"/>
      <point x="507.89" y="544.95"/>
      <point x="442.55" y="594.38"/>
      <point x="347.0" y="605.57" type="curve"/>
      <point x="347.0" y="700.0" type="line"/>
      <point x="232.0" y="700.0" type="line"/>
      <point x="232.0" y="600.77" type="line"/>
      <point x="113.09" y="575.74"/>
      <point x="30.0" y="486.33"/>
      <point x="30.0" y="342.0" type="curve" smooth="yes"/>
      <point x="30.0" y="198.19"/>
      <point x="120.53" y="114.5"/>
      <point x="232.0" y="91.52" type="curve"/>
      <point x="232.0" y="3.0" type="line"/>
      <point x="347.0" y="3.0" type="line"/>
      <point x="347.0" y="88.5" type="line"/>
      <point x="444.71" y="102.75"/>
      <point x="511.47" y="159.97"/>
    </contour>
    <contour>
      <point x="140.0" y="342.0" type="curve" smooth="yes"/>
      <point x="140.0" y="422.77"/>
      <point x="173.96" y="480.35"/>
      <point x="232.0" y="505.25" type="curve"/>
      <point x="232.0" y="188.83" type="line"/>
      <point x="179.55" y="210.99"/>
      <point x="140.0" y="261.92"/>
    </contour>
  </outline>
</glyph>
<glyph name="sterling" format="2">
  <advance width="581.0"/>
  <unicode hex="00A3"/>
  <note>
sterling
</note>
  <outline>
    <contour>
      <point x="73.0" y="108.0" type="line"/>
      <point x="73.0" y="0.0" type="line"/>
      <point x="551.0" y="0.0" type="line"/>
      <point x="551.0" y="108.0" type="line"/>
      <point x="245.92" y="108.0" type="line"/>
      <point x="270.25" y="147.63"/>
      <point x="278.0" y="196.14"/>
      <point x="278.0" y="238.0" type="curve" smooth="yes"/>
      <point x="278.0" y="320.0" type="line"/>
      <point x="389.0" y="320.0" type="line"/>
      <point x="389.0" y="420.0" type="line"/>
      <point x="278.0" y="420.0" type="line"/>
      <point x="278.0" y="526.0" type="line" smooth="yes"/>
      <point x="278.0" y="577.0"/>
      <point x="294.0" y="635.0"/>
      <point x="363.0" y="635.0" type="curve" smooth="yes"/>
      <point x="412.0" y="635.0"/>
      <point x="449.0" y="593.0"/>
      <point x="455.0" y="571.0" type="curve"/>
      <point x="543.0" y="634.0" type="line"/>
      <point x="516.0" y="671.0"/>
      <point x="470.0" y="723.0"/>
      <point x="363.0" y="723.0" type="curve" smooth="yes"/>
      <point x="195.0" y="723.0"/>
      <point x="170.0" y="587.0"/>
      <point x="170.0" y="526.0" type="curve" smooth="yes"/>
      <point x="170.0" y="420.0" type="line"/>
      <point x="89.0" y="420.0" type="line"/>
      <point x="89.0" y="320.0" type="line"/>
      <point x="170.0" y="320.0" type="line"/>
      <point x="170.0" y="238.0" type="line" smooth="yes"/>
      <point x="170.0" y="147.0"/>
      <point x="153.0" y="108.0"/>
      <point x="88.0" y="108.0" type="curve" smooth="yes"/>
    </contour>
  </outline>
</glyph>
<glyph name="currency" format="2">
  <advance width="600.0"/>
  <unicode hex="00A4"/>
  <note>
currency
</note>
  <outline>
    <contour>
      <point x="446.64" y="145.32" type="curve"/>
      <point x="505.55" y="88.01" type="line"/>
      <point x="578.08" y="162.54" type="line"/>
      <point x="518.91" y="220.12" type="line"/>
      <point x="541.34" y="256.77"/>
      <point x="554.24" y="300.01"/>
      <point x="554.24" y="346.5" type="curve" smooth="yes"/>
      <point x="554.24" y="394.95"/>
      <point x="540.24" y="439.87"/>
      <point x="516.03" y="477.48" type="curve"/>
      <point x="578.01" y="537.56" type="line"/>
      <point x="505.62" y="612.23" type="line"/>
      <point x="442.07" y="550.62" type="line"/>
      <point x="404.92" y="573.96"/>
      <point x="360.81" y="587.42"/>
      <point x="313.32" y="587.42" type="curve" smooth="yes"/>
      <point x="264.45" y="587.42"/>
      <point x="219.17" y="573.17"/>
      <point x="181.37" y="548.57" type="curve"/>
      <point x="116.01" y="612.17" type="line"/>
      <point x="43.48" y="537.63" type="line"/>
      <point x="108.59" y="474.28" type="line"/>
      <point x="85.62" y="437.33"/>
      <point x="72.4" y="393.58"/>
      <point x="72.4" y="346.5" type="curve" smooth="yes"/>
      <point x="72.4" y="302.23"/>
      <point x="84.2" y="259.53"/>
      <point x="105.69" y="222.69" type="curve"/>
      <point x="43.6" y="162.65" type="line"/>
      <point x="115.89" y="87.89" type="line"/>
      <point x="176.51" y="146.5" type="line"/>
      <point x="214.18" y="120.88"/>
      <point x="260.6" y="105.58"/>
      <point x="313.32" y="105.58" type="curve" smooth="yes"/>
      <point x="362.78" y="105.58"/>
      <point x="408.56" y="120.17"/>
    </contour>
    <contour>
      <point x="313.32" y="193.95" type="curve" smooth="yes"/>
      <point x="221.82" y="193.95"/>
      <point x="160.77" y="263.99"/>
      <point x="160.77" y="346.5" type="curve" smooth="yes"/>
      <point x="160.77" y="430.19"/>
      <point x="229.63" y="499.04"/>
      <point x="313.32" y="499.04" type="curve" smooth="yes"/>
      <point x="397.01" y="499.04"/>
      <point x="465.86" y="430.19"/>
      <point x="465.86" y="346.5" type="curve" smooth="yes"/>
      <point x="465.86" y="262.81"/>
      <point x="397.01" y="193.95"/>
    </contour>
  </outline>
</glyph>
<glyph name="yen" format="2">
  <advance width="649.0"/>
  <unicode hex="00A5"/>
  <note>
yen
</note>
  <outline>
    <contour>
      <point x="522.06" y="364.91" type="line"/>
      <point x="415.72" y="364.91" type="line"/>
      <point x="634.0" y="700.0" type="line"/>
      <point x="521.0" y="700.0" type="line"/>
      <point x="324.09" y="400.18" type="line"/>
      <point x="128.0" y="700.0" type="line"/>
      <point x="15.0" y="700.0" type="line"/>
      <point x="232.42" y="364.91" type="line"/>
      <point x="130.79" y="364.91" type="line"/>
      <point x="130.79" y="289.81" type="line"/>
      <point x="270.0" y="289.81" type="line"/>
      <point x="270.0" y="222.22" type="line"/>
      <point x="130.79" y="222.22" type="line"/>
      <point x="130.79" y="147.12" type="line"/>
      <point x="270.0" y="147.12" type="line"/>
      <point x="270.0" y="0.0" type="line"/>
      <point x="378.0" y="0.0" type="line"/>
      <point x="378.0" y="147.12" type="line"/>
      <point x="522.06" y="147.12" type="line"/>
      <point x="522.06" y="222.22" type="line"/>
      <point x="378.0" y="222.22" type="line"/>
      <point x="378.0" y="289.81" type="line"/>
      <point x="522.06" y="289.81" type="line"/>
    </contour>
  </outline>
</glyph>
<glyph name="brokenbar" format="2">
  <advance width="314.0"/>
  <unicode hex="00A6"/>
  <note>
brokenbar
</note>
  <outline>
    <contour>
      <point x="215.0" y="426.3" type="line"/>
      <point x="215.0" y="814.23" type="line"/>
      <point x="100.0" y="814.23" type="line"/>
      <point x="100.0" y="426.3" type="line"/>
    </contour>
    <contour>
      <point x="215.0" y="-146.7" type="line"/>
      <point x="215.0" y="241.23" type="line"/>
      <point x="100.0" y="241.23" type="line"/>
      <point x="100.0" y="-146.7" type="line"/>
    </contour>
  </outline>
</glyph>
<glyph name="section" format="2">
  <advance width="592.0"/>
  <unicode hex="00A7"/>
  <note>
section
</note>
  <outline>
    <contour>
      <point x="534.18" y="92.64" type="curve"/>
      <point x="555.76" y="125.95"/>
      <point x="566.0" y="165.21"/>
      <point x="566.0" y="206.0" type="curve" smooth="yes"/>
      <point x="566.0" y="347.0"/>
      <point x="407.0" y="389.0"/>
      <point x="322.0" y="415.0" type="curve" smooth="yes"/>
      <point x="228.0" y="443.0"/>
      <point x="190.0" y="479.0"/>
      <point x="190.0" y="525.0" type="curve" smooth="yes"/>
      <point x="190.0" y="576.0"/>
      <point x="236.0" y="615.0"/>
      <point x="306.0" y="615.0" type="curve" smooth="yes"/>
      <point x="379.0" y="615.0"/>
      <point x="421.0" y="583.0"/>
      <point x="421.0" y="526.0" type="curve"/>
      <point x="529.0" y="554.0" type="line"/>
      <point x="514.0" y="657.0"/>
      <point x="416.0" y="708.0"/>
      <point x="306.0" y="708.0" type="curve" smooth="yes"/>
      <point x="178.0" y="708.0"/>
      <point x="80.0" y="628.0"/>
      <point x="80.0" y="525.0" type="curve" smooth="yes"/>
      <point x="80.0" y="482.98"/>
      <point x="95.31" y="446.06"/>
      <point x="124.55" y="414.53" type="curve"/>
      <point x="99.46" y="384.95"/>
      <point x="85.0" y="348.61"/>
      <point x="85.0" y="309.0" type="curve" smooth="yes"/>
      <point x="85.0" y="216.0"/>
      <point x="160.0" y="148.0"/>
      <point x="295.0" y="108.0" type="curve" smooth="yes"/>
      <point x="378.0" y="82.0"/>
      <point x="460.0" y="61.0"/>
      <point x="460.0" y="-10.0" type="curve" smooth="yes"/>
      <point x="460.0" y="-79.0"/>
      <point x="419.0" y="-128.0"/>
      <point x="316.0" y="-128.0" type="curve" smooth="yes"/>
      <point x="194.0" y="-128.0"/>
      <point x="144.0" y="-66.0"/>
      <point x="126.0" y="24.0" type="curve"/>
      <point x="25.0" y="-27.0" type="line"/>
      <point x="63.0" y="-140.0"/>
      <point x="149.0" y="-223.0"/>
      <point x="316.0" y="-223.0" type="curve" smooth="yes"/>
      <point x="491.0" y="-223.0"/>
      <point x="571.0" y="-123.0"/>
      <point x="571.0" y="-10.0" type="curve" smooth="yes"/>
      <point x="571.0" y="32.42"/>
      <point x="556.61" y="65.88"/>
    </contour>
    <contour>
      <point x="195.0" y="309.01" type="curve" smooth="yes"/>
      <point x="195.0" y="325.77"/>
      <point x="199.97" y="341.36"/>
      <point x="209.28" y="354.68" type="curve"/>
      <point x="233.14" y="343.1"/>
      <point x="260.1" y="332.87"/>
      <point x="290.0" y="324.01" type="curve" smooth="yes"/>
      <point x="373.0" y="298.01"/>
      <point x="455.0" y="277.01"/>
      <point x="455.0" y="206.01" type="curve" smooth="yes"/>
      <point x="455.0" y="187.99"/>
      <point x="452.3" y="171.33"/>
      <point x="446.31" y="156.41" type="curve"/>
      <point x="404.49" y="176.31"/>
      <point x="360.13" y="188.88"/>
      <point x="327.0" y="199.01" type="curve" smooth="yes"/>
      <point x="233.0" y="227.01"/>
      <point x="195.0" y="263.01"/>
    </contour>
  </outline>
</glyph>
<glyph name="dieresis" format="2">
  <advance width="556.0"/>
  <unicode hex="00A8"/>
  <note>
dieresis
</note>
  <outline>
    <contour>
      <point x="208.0" y="582.0" type="line"/>
      <point x="208.0" y="690.0" type="line"/>
      <point x="100.0" y="690.0" type="line"/>
      <point x="100.0" y="582.0" type="line"/>
    </contour>
    <contour>
      <point x="456.0" y="582.0" type="line"/>
      <point x="456.0" y="690.0" type="line"/>
      <point x="348.0" y="690.0" type="line"/>
      <point x="348.0" y="582.0" type="line"/>
    </contour>
  </outline>
</glyph>
<glyph name="copyright" format="2">
  <advance width="808.0"/>
  <unicode hex="00A9"/>
  <note>
copyright
</note>
  <outline>
    <contour>
      <point x="404.0" y="-5.0" type="curve" smooth="yes"/>
      <point x="635.0" y="-5.0"/>
      <point x="788.0" y="169.0"/>
      <point x="788.0" y="383.0" type="curve" smooth="yes"/>
      <point x="788.0" y="598.0"/>
      <point x="635.0" y="775.0"/>
      <point x="404.0" y="775.0" type="curve" smooth="yes"/>
      <point x="173.0" y="775.0"/>
      <point x="20.0" y="598.0"/>
      <point x="20.0" y="383.0" type="curve" smooth="yes"/>
      <point x="20.0" y="169.0"/>
      <point x="174.0" y="-5.0"/>
    </contour>
    <contour>
      <point x="404.0" y="74.0" type="curve" smooth="yes"/>
      <point x="227.0" y="74.0"/>
      <point x="112.0" y="204.0"/>
      <point x="112.0" y="383.0" type="curve" smooth="yes"/>
      <point x="112.0" y="564.0"/>
      <point x="228.0" y="696.0"/>
      <point x="404.0" y="696.0" type="curve" smooth="yes"/>
      <point x="581.0" y="696.0"/>
      <point x="696.0" y="564.0"/>
      <point x="696.0" y="383.0" type="curve" smooth="yes"/>
      <point x="696.0" y="204.0"/>
      <point x="581.0" y="74.0"/>
    </contour>
    <contour>
      <point x="523.69" y="443.32" type="curve"/>
      <point x="592.78" y="481.62" type="line"/>
      <point x="569.5" y="547.71"/>
      <point x="508.67" y="586.76"/>
      <point x="419.3" y="586.76" type="curve" smooth="yes"/>
      <point x="302.15" y="586.76"/>
      <point x="213.53" y="516.16"/>
      <point x="213.53" y="386.99" type="curve" smooth="yes"/>
      <point x="213.53" y="258.57"/>
      <point x="309.66" y="193.99"/>
      <point x="414.05" y="193.99" type="curve" smooth="yes"/>
      <point x="507.92" y="193.99"/>
      <point x="571.76" y="239.49"/>
      <point x="595.79" y="316.84" type="curve"/>
      <point x="522.19" y="346.44" type="line"/>
      <point x="507.17" y="302.13"/>
      <point x="482.38" y="262.33"/>
      <point x="414.04" y="262.33" type="curve" smooth="yes"/>
      <point x="353.21" y="262.33"/>
      <point x="296.14" y="303.63"/>
      <point x="296.14" y="386.99" type="curve" smooth="yes"/>
      <point x="296.14" y="469.6"/>
      <point x="343.45" y="519.92"/>
      <point x="419.3" y="519.92" type="curve" smooth="yes"/>
      <point x="469.62" y="519.92"/>
      <point x="506.42" y="501.14"/>
    </contour>
  </outline>
</glyph>
<glyph name="ordfeminine" format="2">
  <advance width="373.0"/>
  <unicode hex="00AA"/>
  <note>
ordfeminine
</note>
  <outline>
    <contour>
      <point x="197.13" y="732.9" type="curve" smooth="yes"/>
      <point x="120.1" y="732.9"/>
      <point x="54.63" y="686.1"/>
      <point x="54.63" y="630.05" type="curve" smooth="yes"/>
      <point x="54.63" y="624.84"/>
      <point x="55.2" y="619.56"/>
      <point x="56.37" y="614.22" type="curve"/>
      <point x="138.48" y="613.53" type="line"/>
      <point x="135.03" y="621.81"/>
      <point x="143.92" y="675.63"/>
      <point x="205.33" y="675.63" type="curve" smooth="yes"/>
      <point x="240.28" y="675.63"/>
      <point x="258.03" y="662.63"/>
      <point x="263.24" y="640.73" type="curve" smooth="yes"/>
      <point x="264.03" y="637.37"/>
      <point x="264.44" y="634.13"/>
      <point x="264.44" y="631.0" type="curve" smooth="yes"/>
      <point x="264.44" y="605.01"/>
      <point x="236.37" y="587.11"/>
      <point x="170.91" y="581.1" type="curve" smooth="yes"/>
      <point x="63.16" y="571.22"/>
      <point x="26.7" y="530.04"/>
      <point x="26.7" y="477.6" type="curve" smooth="yes"/>
      <point x="26.7" y="414.81"/>
      <point x="72.93" y="372.72"/>
      <point x="157.11" y="372.72" type="curve" smooth="yes"/>
      <point x="209.72" y="372.72"/>
      <point x="245.22" y="395.6"/>
      <point x="266.82" y="426.94" type="curve"/>
      <point x="266.82" y="381.0" type="line"/>
      <point x="341.34" y="381.0" type="line"/>
      <point x="341.34" y="596.97" type="line" smooth="yes"/>
      <point x="341.34" y="652.86"/>
      <point x="328.92" y="732.9"/>
    </contour>
    <contour>
      <point x="166.77" y="425.85" type="curve" smooth="yes"/>
      <point x="117.78" y="425.85"/>
      <point x="104.67" y="458.28"/>
      <point x="104.67" y="481.05" type="curve" smooth="yes"/>
      <point x="104.67" y="510.72"/>
      <point x="133.65" y="529.35"/>
      <point x="174.36" y="534.18" type="curve" smooth="yes"/>
      <point x="210.06" y="538.47"/>
      <point x="243.18" y="548.29"/>
      <point x="266.82" y="565.47" type="curve"/>
      <point x="266.82" y="538.32" type="line" smooth="yes"/>
      <point x="266.82" y="458.28"/>
      <point x="219.21" y="425.85"/>
    </contour>
  </outline>
</glyph>
<glyph name="guillemotleft" format="2">
  <advance width="527.0"/>
  <unicode hex="00AB"/>
  <note>
guillemotleft
</note>
  <outline>
    <contour>
      <point x="40.0" y="267.0" type="line"/>
      <point x="206.0" y="52.0" type="line"/>
      <point x="273.0" y="97.0" type="line"/>
      <point x="149.0" y="267.0" type="line"/>
      <point x="273.0" y="437.0" type="line"/>
      <point x="206.0" y="481.0" type="line"/>
    </contour>
    <contour>
      <point x="265.72" y="266.7" type="line"/>
      <point x="416.62" y="71.27" type="line"/>
      <point x="477.52" y="112.17" type="line"/>
      <point x="364.81" y="266.7" type="line"/>
      <point x="477.52" y="421.23" type="line"/>
      <point x="416.62" y="461.23" type="line"/>
    </contour>
  </outline>
</glyph>
<glyph name="logicalnot" format="2">
  <advance width="667.0"/>
  <unicode hex="00AC"/>
  <note>
logicalnot
</note>
  <outline>
    <contour>
      <point x="38.0" y="260.0" type="line"/>
      <point x="532.0" y="260.0" type="line"/>
      <point x="532.0" y="52.0" type="line"/>
      <point x="647.0" y="52.0" type="line"/>
      <point x="647.0" y="360.0" type="line"/>
      <point x="38.0" y="360.0" type="line"/>
    </contour>
  </outline>
</glyph>
<glyph name="softhyphen" format="2">
  <advance width="600.0"/>
  <unicode hex="00AD"/>
  <note>
softhyphen
</note>
  <outline>
    <contour>
      <point x="469.0" y="210.0" type="line"/>
      <point x="469.0" y="310.0" type="line"/>
      <point x="48.0" y="310.0" type="line"/>
      <point x="48.0" y="210.0" type="line"/>
    </contour>
  </outline>
</glyph>
<glyph name="registered" format="2">
  <advance width="808.0"/>
  <unicode hex="00AE"/>
  <note>
registered
</note>
  <outline>
    <contour>
      <point x="404.0" y="-5.0" type="curve" smooth="yes"/>
      <point x="635.0" y="-5.0"/>
      <point x="788.0" y="169.0"/>
      <point x="788.0" y="383.0" type="curve" smooth="yes"/>
      <point x="788.0" y="598.0"/>
      <point x="635.0" y="775.0"/>
      <point x="404.0" y="775.0" type="curve" smooth="yes"/>
      <point x="173.0" y="775.0"/>
      <point x="20.0" y="598.0"/>
      <point x="20.0" y="383.0" type="curve" smooth="yes"/>
      <point x="20.0" y="169.0"/>
      <point x="174.0" y="-5.0"/>
    </contour>
    <contour>
      <point x="404.0" y="74.0" type="curve" smooth="yes"/>
      <point x="227.0" y="74.0"/>
      <point x="112.0" y="204.0"/>
      <point x="112.0" y="383.0" type="curve" smooth="yes"/>
      <point x="112.0" y="564.0"/>
      <point x="228.0" y="696.0"/>
      <point x="404.0" y="696.0" type="curve" smooth="yes"/>
      <point x="581.0" y="696.0"/>
      <point x="696.0" y="564.0"/>
      <point x="696.0" y="383.0" type="curve" smooth="yes"/>
      <point x="696.0" y="204.0"/>
      <point x="581.0" y="74.0"/>
    </contour>
    <contour>
      <point x="388.92" y="382.68" type="curve"/>
      <point x="512.46" y="196.0" type="line"/>
      <point x="584.65" y="196.0" type="line"/>
      <point x="453.79" y="395.37" type="line"/>
      <point x="485.42" y="409.74"/>
      <point x="509.64" y="438.35"/>
      <point x="509.64" y="490.97" type="curve" smooth="yes"/>
      <point x="509.64" y="569.36"/>
      <point x="447.04" y="590.79"/>
      <point x="391.2" y="590.79" type="curve" smooth="yes"/>
      <point x="266.56" y="590.79" type="line"/>
      <point x="266.56" y="195.99" type="line"/>
      <point x="327.47" y="195.99" type="line"/>
      <point x="327.47" y="382.25" type="line"/>
      <point x="387.25" y="382.68" type="line" smooth="yes"/>
      <point x="387.81" y="382.68"/>
      <point x="388.36" y="382.68"/>
    </contour>
    <contour>
      <point x="389.5" y="433.44" type="curve" smooth="yes"/>
      <point x="327.46" y="433.44" type="line"/>
      <point x="327.46" y="535.52" type="line"/>
      <point x="349.62" y="535.52"/>
      <point x="376.23" y="535.52"/>
      <point x="391.19" y="535.52" type="curve" smooth="yes"/>
      <point x="424.47" y="535.52"/>
      <point x="448.72" y="518.6"/>
      <point x="448.72" y="485.33" type="curve" smooth="yes"/>
      <point x="448.72" y="452.05"/>
      <point x="425.03" y="433.44"/>
    </contour>
  </outline>
</glyph>
<glyph name="macron" format="2">
  <advance width="600.0"/>
  <unicode hex="00AF"/>
  <note>
macron
</note>
  <outline>
    <contour>
      <point x="572.0" y="640.0" type="line"/>
      <point x="572.0" y="748.0" type="line"/>
      <point x="38.0" y="748.0" type="line"/>
      <point x="38.0" y="640.0" type="line"/>
    </contour>
  </outline>
</glyph>
<glyph name="degree" format="2">
  <advance width="600.0"/>
  <unicode hex="00B0"/>
  <note>
degree
</note>
  <outline>
    <contour>
      <point x="290.0" y="818.0" type="curve" smooth="yes"/>
      <point x="193.0" y="818.0"/>
      <point x="115.0" y="740.0"/>
      <point x="115.0" y="644.0" type="curve" smooth="yes"/>
      <point x="115.0" y="547.0"/>
      <point x="193.0" y="469.0"/>
      <point x="290.0" y="469.0" type="curve" smooth="yes"/>
      <point x="386.0" y="469.0"/>
      <point x="464.0" y="547.0"/>
      <point x="464.0" y="644.0" type="curve" smooth="yes"/>
      <point x="464.0" y="740.0"/>
      <point x="386.0" y="818.0"/>
    </contour>
    <contour>
      <point x="290.0" y="728.0" type="curve" smooth="yes"/>
      <point x="337.0" y="728.0"/>
      <point x="374.0" y="691.0"/>
      <point x="374.0" y="644.0" type="curve" smooth="yes"/>
      <point x="374.0" y="596.0"/>
      <point x="337.0" y="559.0"/>
      <point x="290.0" y="559.0" type="curve" smooth="yes"/>
      <point x="242.0" y="559.0"/>
      <point x="205.0" y="596.0"/>
      <point x="205.0" y="644.0" type="curve" smooth="yes"/>
      <point x="205.0" y="691.0"/>
      <point x="242.0" y="728.0"/>
    </contour>
  </outline>
</glyph>
<glyph name="plusminus" format="2">
  <advance width="600.0"/>
  <unicode hex="00B1"/>
  <note>
plusminus
</note>
  <outline>
    <contour>
      <point x="350.0" y="170.0" type="line"/>
      <point x="350.0" y="363.0" type="line"/>
      <point x="545.0" y="363.0" type="line"/>
      <point x="545.0" y="463.0" type="line"/>
      <point x="350.0" y="463.0" type="line"/>
      <point x="350.0" y="657.0" type="line"/>
      <point x="250.0" y="657.0" type="line"/>
      <point x="250.0" y="463.0" type="line"/>
      <point x="54.0" y="463.0" type="line"/>
      <point x="54.0" y="363.0" type="line"/>
      <point x="250.0" y="363.0" type="line"/>
      <point x="250.0" y="170.0" type="line"/>
    </contour>
    <contour>
      <point x="54.0" y="0.0" type="line"/>
      <point x="545.0" y="0.0" type="line"/>
      <point x="545.0" y="100.0" type="line"/>
      <point x="54.0" y="100.0" type="line"/>
    </contour>
  </outline>
</glyph>
<glyph name="twosuperior" format="2">
  <advance width="473.0"/>
  <unicode hex="00B2"/>
  <note>
twosuperior
</note>
  <outline>
    <contour>
      <point x="256.0" y="874.0" type="curve" smooth="yes"/>
      <point x="164.61" y="874.0"/>
      <point x="101.87" y="819.96"/>
      <point x="101.87" y="756.34" type="curve" smooth="yes"/>
      <point x="101.87" y="749.65"/>
      <point x="102.57" y="742.85"/>
      <point x="103.99" y="736.0" type="curve"/>
      <point x="208.99" y="746.0" type="line"/>
      <point x="205.99" y="778.0"/>
      <point x="215.99" y="797.0"/>
      <point x="255.99" y="797.0" type="curve" smooth="yes"/>
      <point x="294.99" y="797.0"/>
      <point x="306.99" y="767.0"/>
      <point x="306.99" y="737.0" type="curve" smooth="yes"/>
      <point x="304.99" y="616.0"/>
      <point x="127.99" y="551.0"/>
      <point x="89.99" y="479.0" type="curve"/>
      <point x="88.99" y="411.0" type="line"/>
      <point x="422.99" y="411.0" type="line"/>
      <point x="422.99" y="497.0" type="line"/>
      <point x="230.99" y="497.0" type="line"/>
      <point x="286.56" y="544.63"/>
      <point x="412.02" y="608.0"/>
      <point x="412.02" y="740.85" type="curve" smooth="yes"/>
      <point x="412.02" y="802.56"/>
      <point x="370.97" y="874.0"/>
    </contour>
  </outline>
</glyph>
<glyph name="threesuperior" format="2">
  <advance width="391.0"/>
  <unicode hex="00B3"/>
  <note>
threesuperior
</note>
  <outline>
    <contour>
      <point x="249.0" y="687.0" type="curve"/>
      <point x="353.0" y="793.0" type="line"/>
      <point x="353.0" y="861.0" type="line"/>
      <point x="42.0" y="861.0" type="line"/>
      <point x="42.0" y="784.0" type="line"/>
      <point x="216.0" y="784.0" type="line"/>
      <point x="108.0" y="668.0" type="line"/>
      <point x="153.0" y="615.0" type="line"/>
      <point x="175.0" y="620.0"/>
      <point x="184.0" y="623.0"/>
      <point x="197.0" y="623.0" type="curve" smooth="yes"/>
      <point x="231.0" y="623.0"/>
      <point x="256.0" y="600.0"/>
      <point x="256.0" y="550.0" type="curve" smooth="yes"/>
      <point x="256.0" y="500.0"/>
      <point x="226.0" y="476.0"/>
      <point x="191.0" y="476.0" type="curve" smooth="yes"/>
      <point x="146.0" y="476.0"/>
      <point x="122.0" y="497.0"/>
      <point x="125.0" y="560.0" type="curve"/>
      <point x="20.0" y="560.0" type="line"/>
      <point x="15.0" y="456.0"/>
      <point x="95.0" y="400.0"/>
      <point x="191.0" y="400.0" type="curve" smooth="yes"/>
      <point x="277.0" y="400.0"/>
      <point x="361.0" y="458.0"/>
      <point x="361.0" y="550.0" type="curve" smooth="yes"/>
      <point x="361.0" y="623.0"/>
      <point x="311.0" y="673.0"/>
    </contour>
  </outline>
</glyph>
<glyph name="acute" format="2">
  <advance width="600.0"/>
  <unicode hex="00B4"/>
  <note>
acute
</note>
  <outline>
    <contour>
      <point x="342.0" y="764.0" type="line"/>
      <point x="158.0" y="592.0" type="line"/>
      <point x="246.0" y="565.0" type="line"/>
      <point x="403.0" y="663.0" type="line"/>
    </contour>
  </outline>
</glyph>
<glyph name="paragraph" format="2">
  <advance width="691.0"/>
  <unicode hex="00B6"/>
  <note>
paragraph
</note>
  <outline>
    <contour>
      <point x="285.0" y="374.0" type="curve" smooth="yes"/>
      <point x="359.0" y="374.0" type="line"/>
      <point x="359.0" y="-200.0" type="line"/>
      <point x="448.0" y="-200.0" type="line"/>
      <point x="448.0" y="700.0" type="line"/>
      <point x="280.0" y="700.0" type="line" smooth="yes"/>
      <point x="198.0" y="700.0"/>
      <point x="100.0" y="660.0"/>
      <point x="100.0" y="537.0" type="curve" smooth="yes"/>
      <point x="100.0" y="412.0"/>
      <point x="194.0" y="374.0"/>
    </contour>
    <contour>
      <point x="621.0" y="700.0" type="line"/>
      <point x="531.0" y="700.0" type="line"/>
      <point x="531.0" y="-200.0" type="line"/>
      <point x="621.0" y="-200.0" type="line"/>
    </contour>
  </outline>
</glyph>
<glyph name="periodcentered" format="2">
  <advance width="600.0"/>
  <unicode hex="00B7"/>
  <note>
periodcentered
</note>
  <outline>
    <contour>
      <point x="366.0" y="223.0" type="line"/>
      <point x="366.0" y="355.0" type="line"/>
      <point x="234.0" y="355.0" type="line"/>
      <point x="234.0" y="223.0" type="line"/>
    </contour>
  </outline>
</glyph>
<glyph name="cedilla" format="2">
  <advance width="600.0"/>
  <unicode hex="00B8"/>
  <note>
cedilla
</note>
  <outline>
    <contour>
      <point x="309.99" y="-31.0" type="curve" smooth="yes"/>
      <point x="302.5" y="-31.0"/>
      <point x="294.75" y="-32.21"/>
      <point x="287.05" y="-34.32" type="curve"/>
      <point x="307.0" y="10.0" type="line"/>
      <point x="245.0" y="10.0" type="line"/>
      <point x="199.0" y="-90.0" type="line"/>
      <point x="262.0" y="-90.0" type="line"/>
      <point x="267.0" y="-83.0"/>
      <point x="280.0" y="-73.0"/>
      <point x="302.0" y="-73.0" type="curve" smooth="yes"/>
      <point x="319.61" y="-73.0"/>
      <point x="330.19" y="-82.85"/>
      <point x="330.19" y="-99.61" type="curve" smooth="yes"/>
      <point x="330.19" y="-133.36"/>
      <point x="297.79" y="-151.0"/>
      <point x="262.99" y="-151.0" type="curve" smooth="yes"/>
      <point x="239.99" y="-151.0"/>
      <point x="194.99" y="-140.0"/>
      <point x="182.99" y="-130.0" type="curve"/>
      <point x="182.99" y="-196.0" type="line"/>
      <point x="189.99" y="-200.0"/>
      <point x="223.99" y="-208.0"/>
      <point x="250.99" y="-208.0" type="curve" smooth="yes"/>
      <point x="305.99" y="-208.0"/>
      <point x="376.99" y="-181.0"/>
      <point x="391.99" y="-112.0" type="curve" smooth="yes"/>
      <point x="393.14" y="-106.51"/>
      <point x="393.72" y="-101.11"/>
      <point x="393.72" y="-95.85" type="curve" smooth="yes"/>
      <point x="393.72" y="-59.92"/>
      <point x="366.7" y="-31.0"/>
    </contour>
  </outline>
</glyph>
<glyph name="onesuperior" format="2">
  <advance width="318.0"/>
  <unicode hex="00B9"/>
  <note>
onesuperior
</note>
  <outline>
    <contour>
      <point x="142.99" y="729.0" type="line"/>
      <point x="143.0" y="406.0" type="line"/>
      <point x="248.0" y="406.0" type="line"/>
      <point x="248.0" y="861.0" type="line"/>
      <point x="142.0" y="861.0" type="line"/>
      <point x="142.61" y="857.38"/>
      <point x="142.92" y="853.82"/>
      <point x="142.92" y="850.34" type="curve" smooth="yes"/>
      <point x="142.92" y="820.88"/>
      <point x="120.93" y="797.39"/>
      <point x="79.88" y="797.39" type="curve" smooth="yes"/>
      <point x="79.08" y="797.39"/>
      <point x="78.28" y="797.4"/>
      <point x="77.47" y="797.42" type="curve" smooth="yes"/>
      <point x="69.07" y="797.6"/>
      <point x="59.9" y="798.75"/>
      <point x="49.99" y="801.0" type="curve"/>
      <point x="49.99" y="729.0" type="line"/>
    </contour>
  </outline>
</glyph>
<glyph name="ordmasculine" format="2">
  <advance width="380.0"/>
  <unicode hex="00BA"/>
  <note>
ordmasculine
</note>
  <outline>
    <contour>
      <point x="202.29" y="368.72" type="curve" smooth="yes"/>
      <point x="306.09" y="368.72"/>
      <point x="377.89" y="447.38"/>
      <point x="377.89" y="547.43" type="curve" smooth="yes"/>
      <point x="377.89" y="648.17"/>
      <point x="306.09" y="728.9"/>
      <point x="202.29" y="728.9" type="curve" smooth="yes"/>
      <point x="98.5" y="728.9"/>
      <point x="26.7" y="648.17"/>
      <point x="26.7" y="547.43" type="curve" smooth="yes"/>
      <point x="26.7" y="447.38"/>
      <point x="98.5" y="368.72"/>
    </contour>
    <contour>
      <point x="202.29" y="430.13" type="curve" smooth="yes"/>
      <point x="141.38" y="430.13"/>
      <point x="100.04" y="479.12"/>
      <point x="100.04" y="547.43" type="curve" smooth="yes"/>
      <point x="100.04" y="616.43"/>
      <point x="141.38" y="665.42"/>
      <point x="202.29" y="665.42" type="curve" smooth="yes"/>
      <point x="263.21" y="665.42"/>
      <point x="304.54" y="616.43"/>
      <point x="304.54" y="547.43" type="curve" smooth="yes"/>
      <point x="304.54" y="479.12"/>
      <point x="263.21" y="430.13"/>
    </contour>
  </outline>
</glyph>
<glyph name="guillemotright" format="2">
  <advance width="526.0"/>
  <unicode hex="00BB"/>
  <note>
guillemotright
</note>
  <outline>
    <contour>
      <point x="486.0" y="267.0" type="line"/>
      <point x="320.0" y="481.0" type="line"/>
      <point x="253.0" y="437.0" type="line"/>
      <point x="377.0" y="267.0" type="line"/>
      <point x="253.0" y="97.0" type="line"/>
      <point x="320.0" y="52.0" type="line"/>
    </contour>
    <contour>
      <point x="260.27" y="266.7" type="line"/>
      <point x="109.38" y="461.23" type="line"/>
      <point x="48.47" y="421.23" type="line"/>
      <point x="161.19" y="266.7" type="line"/>
      <point x="48.47" y="112.17" type="line"/>
      <point x="109.38" y="71.27" type="line"/>
    </contour>
  </outline>
</glyph>
<glyph name="onequarter" format="2">
  <advance width="851.0"/>
  <unicode hex="00BC"/>
  <note>
onequarter
</note>
  <outline>
    <contour>
      <point x="142.99" y="729.0" type="line"/>
      <point x="143.0" y="406.0" type="line"/>
      <point x="248.0" y="406.0" type="line"/>
      <point x="248.0" y="861.0" type="line"/>
      <point x="142.0" y="861.0" type="line"/>
      <point x="142.61" y="857.38"/>
      <point x="142.92" y="853.82"/>
      <point x="142.92" y="850.34" type="curve" smooth="yes"/>
      <point x="142.92" y="820.88"/>
      <point x="120.93" y="797.39"/>
      <point x="79.88" y="797.39" type="curve" smooth="yes"/>
      <point x="79.08" y="797.39"/>
      <point x="78.28" y="797.4"/>
      <point x="77.47" y="797.42" type="curve" smooth="yes"/>
      <point x="69.07" y="797.6"/>
      <point x="59.9" y="798.75"/>
      <point x="49.99" y="801.0" type="curve"/>
      <point x="49.99" y="729.0" type="line"/>
    </contour>
    <contour>
      <point x="625.99" y="749.0" type="line"/>
      <point x="47.99" y="0.0" type="line"/>
      <point x="165.99" y="0.0" type="line"/>
      <point x="743.99" y="749.0" type="line"/>
    </contour>
    <contour>
      <point x="635.99" y="0.0" type="line"/>
      <point x="740.99" y="0.0" type="line"/>
      <point x="740.99" y="89.0" type="line"/>
      <point x="810.99" y="89.0" type="line"/>
      <point x="810.99" y="169.0" type="line"/>
      <point x="740.99" y="169.0" type="line"/>
      <point x="740.99" y="455.0" type="line"/>
      <point x="651.99" y="455.0" type="line"/>
      <point x="412.99" y="160.0" type="line"/>
      <point x="411.99" y="89.0" type="line"/>
      <point x="635.99" y="89.0" type="line"/>
    </contour>
    <contour>
      <point x="635.99" y="169.0" type="line"/>
      <point x="537.99" y="169.0" type="line"/>
      <point x="635.99" y="288.78" type="line"/>
    </contour>
  </outline>
</glyph>
<glyph name="onehalf" format="2">
  <advance width="882.0"/>
  <unicode hex="00BD"/>
  <note>
onehalf
</note>
  <outline>
    <contour>
      <point x="142.99" y="729.0" type="line"/>
      <point x="143.0" y="406.0" type="line"/>
      <point x="248.0" y="406.0" type="line"/>
      <point x="248.0" y="861.0" type="line"/>
      <point x="142.0" y="861.0" type="line"/>
      <point x="142.61" y="857.38"/>
      <point x="142.92" y="853.82"/>
      <point x="142.92" y="850.34" type="curve" smooth="yes"/>
      <point x="142.92" y="820.88"/>
      <point x="120.93" y="797.39"/>
      <point x="79.88" y="797.39" type="curve" smooth="yes"/>
      <point x="79.08" y="797.39"/>
      <point x="78.28" y="797.4"/>
      <point x="77.47" y="797.42" type="curve" smooth="yes"/>
      <point x="69.07" y="797.6"/>
      <point x="59.9" y="798.75"/>
      <point x="49.99" y="801.0" type="curve"/>
      <point x="49.99" y="729.0" type="line"/>
    </contour>
    <contour>
      <point x="625.99" y="749.0" type="line"/>
      <point x="47.99" y="0.0" type="line"/>
      <point x="165.99" y="0.0" type="line"/>
      <point x="743.99" y="749.0" type="line"/>
    </contour>
    <contour>
      <point x="674.99" y="465.0" type="curve" smooth="yes"/>
      <point x="583.6" y="465.0"/>
      <point x="520.87" y="410.97"/>
      <point x="520.87" y="347.34" type="curve" smooth="yes"/>
      <point x="520.87" y="340.65"/>
      <point x="521.56" y="333.86"/>
      <point x="522.99" y="327.01" type="curve"/>
      <point x="627.99" y="337.01" type="line"/>
      <point x="624.99" y="369.01"/>
      <point x="634.99" y="388.01"/>
      <point x="674.99" y="388.01" type="curve" smooth="yes"/>
      <point x="713.99" y="388.01"/>
      <point x="725.99" y="358.01"/>
      <point x="725.99" y="328.01" type="curve" smooth="yes"/>
      <point x="723.99" y="207.01"/>
      <point x="546.99" y="142.01"/>
      <point x="508.99" y="70.01" type="curve"/>
      <point x="507.99" y="2.01" type="line"/>
      <point x="841.99" y="2.01" type="line"/>
      <point x="841.99" y="88.01" type="line"/>
      <point x="649.99" y="88.01" type="line"/>
      <point x="705.55" y="135.63"/>
      <point x="831.01" y="199.01"/>
      <point x="831.01" y="331.86" type="curve" smooth="yes"/>
      <point x="831.01" y="393.57"/>
      <point x="789.97" y="465.0"/>
    </contour>
  </outline>
</glyph>
<glyph name="threequarters" format="2">
  <advance width="851.0"/>
  <unicode hex="00BE"/>
  <note>
threequarters
</note>
  <outline>
    <contour>
      <point x="249.0" y="687.0" type="curve"/>
      <point x="353.0" y="793.0" type="line"/>
      <point x="353.0" y="861.0" type="line"/>
      <point x="42.0" y="861.0" type="line"/>
      <point x="42.0" y="784.0" type="line"/>
      <point x="216.0" y="784.0" type="line"/>
      <point x="108.0" y="668.0" type="line"/>
      <point x="153.0" y="615.0" type="line"/>
      <point x="175.0" y="620.0"/>
      <point x="184.0" y="623.0"/>
      <point x="197.0" y="623.0" type="curve" smooth="yes"/>
      <point x="231.0" y="623.0"/>
      <point x="256.0" y="600.0"/>
      <point x="256.0" y="550.0" type="curve" smooth="yes"/>
      <point x="256.0" y="500.0"/>
      <point x="226.0" y="476.0"/>
      <point x="191.0" y="476.0" type="curve" smooth="yes"/>
      <point x="146.0" y="476.0"/>
      <point x="122.0" y="497.0"/>
      <point x="125.0" y="560.0" type="curve"/>
      <point x="20.0" y="560.0" type="line"/>
      <point x="15.0" y="456.0"/>
      <point x="95.0" y="400.0"/>
      <point x="191.0" y="400.0" type="curve" smooth="yes"/>
      <point x="277.0" y="400.0"/>
      <point x="361.0" y="458.0"/>
      <point x="361.0" y="550.0" type="curve" smooth="yes"/>
      <point x="361.0" y="623.0"/>
      <point x="311.0" y="673.0"/>
    </contour>
    <contour>
      <point x="626.0" y="749.0" type="line"/>
      <point x="48.0" y="0.0" type="line"/>
      <point x="166.0" y="0.0" type="line"/>
      <point x="744.0" y="749.0" type="line"/>
    </contour>
    <contour>
      <point x="636.0" y="0.0" type="line"/>
      <point x="741.0" y="0.0" type="line"/>
      <point x="741.0" y="89.0" type="line"/>
      <point x="811.0" y="89.0" type="line"/>
      <point x="811.0" y="169.0" type="line"/>
      <point x="741.0" y="169.0" type="line"/>
      <point x="741.0" y="455.0" type="line"/>
      <point x="652.0" y="455.0" type="line"/>
      <point x="413.0" y="160.0" type="line"/>
      <point x="412.0" y="89.0" type="line"/>
      <point x="636.0" y="89.0" type="line"/>
    </contour>
    <contour>
      <point x="636.0" y="169.0" type="line"/>
      <point x="538.0" y="169.0" type="line"/>
      <point x="636.0" y="288.78" type="line"/>
    </contour>
  </outline>
</glyph>
<glyph name="questiondown" format="2">
  <advance width="501.0"/>
  <unicode hex="00BF"/>
  <note>
questiondown
</note>
  <outline>
    <contour>
      <point x="160.0" y="506.0" type="line"/>
      <point x="160.0" y="374.0" type="line"/>
      <point x="292.0" y="374.0" type="line"/>
      <point x="292.0" y="506.0" type="line"/>
    </contour>
    <contour>
      <point x="227.0" y="-125.0" type="curve" smooth="yes"/>
      <point x="168.0" y="-125.0"/>
      <point x="132.0" y="-95.0"/>
      <point x="132.0" y="-51.0" type="curve" smooth="yes"/>
      <point x="132.0" y="-10.0"/>
      <point x="172.0" y="-2.0"/>
      <point x="245.0" y="28.0" type="curve" smooth="yes"/>
      <point x="295.0" y="49.0"/>
      <point x="379.0" y="85.0"/>
      <point x="379.0" y="175.0" type="curve" smooth="yes"/>
      <point x="379.0" y="268.0"/>
      <point x="301.0" y="312.0"/>
      <point x="227.0" y="312.0" type="curve" smooth="yes"/>
      <point x="156.0" y="312.0"/>
      <point x="109.0" y="278.0"/>
      <point x="81.0" y="199.0" type="curve"/>
      <point x="170.0" y="171.0" type="line"/>
      <point x="169.0" y="206.0"/>
      <point x="196.0" y="225.0"/>
      <point x="222.0" y="225.0" type="curve" smooth="yes"/>
      <point x="253.0" y="225.0"/>
      <point x="272.0" y="205.0"/>
      <point x="272.0" y="175.0" type="curve" smooth="yes"/>
      <point x="272.0" y="138.0"/>
      <point x="246.0" y="121.0"/>
      <point x="215.0" y="107.0" type="curve" smooth="yes"/>
      <point x="157.0" y="80.0"/>
      <point x="28.0" y="56.0"/>
      <point x="28.0" y="-53.0" type="curve" smooth="yes"/>
      <point x="28.0" y="-137.0"/>
      <point x="94.0" y="-215.0"/>
      <point x="227.0" y="-215.0" type="curve" smooth="yes"/>
      <point x="322.0" y="-215.0"/>
      <point x="417.0" y="-162.0"/>
      <point x="443.0" y="-73.0" type="curve"/>
      <point x="359.0" y="-11.0" type="line"/>
      <point x="349.0" y="-71.0"/>
      <point x="304.0" y="-125.0"/>
    </contour>
  </outline>
</glyph>
<glyph name="Agrave" format="2">
  <advance width="756.0"/>
  <unicode hex="00C0"/>
  <note>
Agrave
</note>
  <outline>
    <contour>
      <point x="409.0" y="766.0" type="line"/>
      <point x="497.0" y="793.0" type="line"/>
      <point x="313.0" y="965.0" type="line"/>
      <point x="252.0" y="864.0" type="line"/>
    </contour>
    <contour>
      <point x="30.0" y="0.0" type="line"/>
      <point x="148.0" y="0.0" type="line"/>
      <point x="222.93" y="186.0" type="line"/>
      <point x="533.07" y="186.0" type="line"/>
      <point x="608.0" y="0.0" type="line"/>
      <point x="726.0" y="0.0" type="line"/>
      <point x="442.0" y="700.0" type="line"/>
      <point x="314.0" y="700.0" type="line"/>
    </contour>
    <contour>
      <point x="495.2" y="280.0" type="line"/>
      <point x="260.8" y="280.0" type="line"/>
      <point x="378.0" y="570.92" type="line"/>
    </contour>
  </outline>
</glyph>
<glyph name="Aacute" format="2">
  <advance width="756.0"/>
  <unicode hex="00C1"/>
  <note>
Aacute
</note>
  <outline>
    <contour>
      <point x="439.0" y="965.0" type="line"/>
      <point x="255.0" y="793.0" type="line"/>
      <point x="343.0" y="766.0" type="line"/>
      <point x="500.0" y="864.0" type="line"/>
    </contour>
    <contour>
      <point x="30.0" y="0.0" type="line"/>
      <point x="148.0" y="0.0" type="line"/>
      <point x="222.93" y="186.0" type="line"/>
      <point x="533.07" y="186.0" type="line"/>
      <point x="608.0" y="0.0" type="line"/>
      <point x="726.0" y="0.0" type="line"/>
      <point x="442.0" y="700.0" type="line"/>
      <point x="314.0" y="700.0" type="line"/>
    </contour>
    <contour>
      <point x="495.2" y="280.0" type="line"/>
      <point x="260.8" y="280.0" type="line"/>
      <point x="378.0" y="570.92" type="line"/>
    </contour>
  </outline>
</glyph>
<glyph name="Atilde" format="2">
  <advance width="756.0"/>
  <unicode hex="00C3"/>
  <note>
Atilde
</note>
  <outline>
    <contour>
      <point x="520.0" y="947.99" type="curve"/>
      <point x="425.0" y="948.0" type="line"/>
      <point x="463.87" y="920.13"/>
      <point x="486.06" y="879.89"/>
      <point x="486.06" y="860.41" type="curve" smooth="yes"/>
      <point x="486.06" y="853.33"/>
      <point x="483.13" y="849.0"/>
      <point x="477.0" y="849.0" type="curve" smooth="yes"/>
      <point x="452.0" y="849.0"/>
      <point x="409.0" y="889.0"/>
      <point x="386.0" y="906.0" type="curve" smooth="yes"/>
      <point x="342.0" y="937.0"/>
      <point x="321.0" y="948.0"/>
      <point x="280.0" y="948.0" type="curve" smooth="yes"/>
      <point x="220.83" y="948.0"/>
      <point x="189.0" y="906.39"/>
      <point x="189.0" y="861.84" type="curve" smooth="yes"/>
      <point x="189.0" y="835.62"/>
      <point x="200.03" y="808.37"/>
      <point x="223.0" y="787.99" type="curve"/>
      <point x="323.0" y="787.99" type="line"/>
      <point x="284.13" y="815.86"/>
      <point x="261.93" y="861.48"/>
      <point x="261.93" y="883.83" type="curve" smooth="yes"/>
      <point x="261.93" y="891.95"/>
      <point x="264.87" y="897.0"/>
      <point x="271.0" y="897.0" type="curve" smooth="yes"/>
      <point x="297.0" y="897.0"/>
      <point x="340.0" y="847.0"/>
      <point x="379.0" y="819.0" type="curve" smooth="yes"/>
      <point x="403.0" y="801.0"/>
      <point x="432.0" y="788.0"/>
      <point x="468.0" y="788.0" type="curve" smooth="yes"/>
      <point x="526.83" y="788.0"/>
      <point x="561.12" y="833.26"/>
      <point x="561.12" y="877.69" type="curve" smooth="yes"/>
      <point x="561.12" y="905.01"/>
      <point x="548.17" y="932.01"/>
    </contour>
    <contour>
      <point x="30.0" y="-0.01" type="line"/>
      <point x="148.0" y="-0.01" type="line"/>
      <point x="222.93" y="185.99" type="line"/>
      <point x="533.07" y="185.99" type="line"/>
      <point x="608.0" y="-0.01" type="line"/>
      <point x="726.0" y="-0.01" type="line"/>
      <point x="442.0" y="699.99" type="line"/>
      <point x="314.0" y="699.99" type="line"/>
    </contour>
    <contour>
      <point x="495.2" y="279.99" type="line"/>
      <point x="260.8" y="279.99" type="line"/>
      <point x="378.0" y="570.91" type="line"/>
    </contour>
  </outline>
</glyph>
<glyph name="Adieresis" format="2">
  <advance width="756.0"/>
  <unicode hex="00C4"/>
  <note>
Adieresis
</note>
  <outline>
    <contour>
      <point x="308.0" y="783.0" type="line"/>
      <point x="308.0" y="891.0" type="line"/>
      <point x="200.0" y="891.0" type="line"/>
      <point x="200.0" y="783.0" type="line"/>
    </contour>
    <contour>
      <point x="556.0" y="783.0" type="line"/>
      <point x="556.0" y="891.0" type="line"/>
      <point x="448.0" y="891.0" type="line"/>
      <point x="448.0" y="783.0" type="line"/>
    </contour>
    <contour>
      <point x="30.0" y="0.0" type="line"/>
      <point x="148.0" y="0.0" type="line"/>
      <point x="222.93" y="186.0" type="line"/>
      <point x="533.07" y="186.0" type="line"/>
      <point x="608.0" y="0.0" type="line"/>
      <point x="726.0" y="0.0" type="line"/>
      <point x="442.0" y="700.0" type="line"/>
      <point x="314.0" y="700.0" type="line"/>
    </contour>
    <contour>
      <point x="495.2" y="280.0" type="line"/>
      <point x="260.8" y="280.0" type="line"/>
      <point x="378.0" y="570.92" type="line"/>
    </contour>
  </outline>
</glyph>
<glyph name="Aring" format="2">
  <advance width="756.0"/>
  <unicode hex="00C5"/>
  <note>
Aring
</note>
  <outline>
    <contour>
      <point x="378.0" y="755.0" type="curve" smooth="yes"/>
      <point x="449.0" y="755.0"/>
      <point x="506.0" y="812.0"/>
      <point x="506.0" y="883.0" type="curve" smooth="yes"/>
      <point x="506.0" y="954.0"/>
      <point x="449.0" y="1011.0"/>
      <point x="378.0" y="1011.0" type="curve" smooth="yes"/>
      <point x="307.0" y="1011.0"/>
      <point x="250.0" y="954.0"/>
      <point x="250.0" y="883.0" type="curve" smooth="yes"/>
      <point x="250.0" y="812.0"/>
      <point x="307.0" y="755.0"/>
    </contour>
    <contour>
      <point x="378.0" y="815.0" type="curve" smooth="yes"/>
      <point x="340.0" y="815.0"/>
      <point x="310.0" y="845.0"/>
      <point x="310.0" y="883.0" type="curve" smooth="yes"/>
      <point x="310.0" y="921.0"/>
      <point x="340.0" y="951.0"/>
      <point x="378.0" y="951.0" type="curve" smooth="yes"/>
      <point x="416.0" y="951.0"/>
      <point x="446.0" y="921.0"/>
      <point x="446.0" y="883.0" type="curve" smooth="yes"/>
      <point x="446.0" y="845.0"/>
      <point x="416.0" y="815.0"/>
    </contour>
    <contour>
      <point x="30.0" y="0.0" type="line"/>
      <point x="148.0" y="0.0" type="line"/>
      <point x="222.93" y="186.0" type="line"/>
      <point x="533.07" y="186.0" type="line"/>
      <point x="608.0" y="0.0" type="line"/>
      <point x="726.0" y="0.0" type="line"/>
      <point x="442.0" y="700.0" type="line"/>
      <point x="314.0" y="700.0" type="line"/>
    </contour>
    <contour>
      <point x="495.2" y="280.0" type="line"/>
      <point x="260.8" y="280.0" type="line"/>
      <point x="378.0" y="570.92" type="line"/>
    </contour>
  </outline>
</glyph>
<glyph name="AE" format="2">
  <advance width="1070.0"/>
  <unicode hex="00C6"/>
  <note>
AE
</note>
  <outline>
    <contour>
      <point x="487.0" y="0.0" type="line"/>
      <point x="1032.0" y="0.0" type="line"/>
      <point x="1032.0" y="108.0" type="line"/>
      <point x="595.0" y="108.0" type="line"/>
      <point x="595.0" y="304.0" type="line"/>
      <point x="1012.0" y="304.0" type="line"/>
      <point x="1012.0" y="412.0" type="line"/>
      <point x="595.0" y="412.0" type="line"/>
      <point x="595.0" y="592.0" type="line"/>
      <point x="1022.0" y="592.0" type="line"/>
      <point x="1022.0" y="700.0" type="line"/>
      <point x="422.0" y="700.0" type="line"/>
      <point x="24.0" y="0.0" type="line"/>
      <point x="152.0" y="0.0" type="line"/>
      <point x="283.24" y="232.0" type="line"/>
      <point x="487.0" y="232.0" type="line"/>
    </contour>
    <contour>
      <point x="336.42" y="326.0" type="line"/>
      <point x="487.0" y="592.17" type="line"/>
      <point x="487.0" y="326.0" type="line"/>
    </contour>
  </outline>
</glyph>
<glyph name="Ccedilla" format="2">
  <advance width="723.0"/>
  <unicode hex="00C7"/>
  <note>
Ccedilla
</note>
  <outline>
    <contour>
      <point x="398.99" y="92.99" type="curve" smooth="yes"/>
      <point x="263.0" y="93.0"/>
      <point x="168.0" y="200.0"/>
      <point x="168.0" y="348.0" type="curve" smooth="yes"/>
      <point x="168.0" y="498.0"/>
      <point x="264.0" y="607.0"/>
      <point x="399.0" y="607.0" type="curve" smooth="yes"/>
      <point x="480.0" y="607.0"/>
      <point x="551.0" y="569.0"/>
      <point x="592.0" y="501.0" type="curve"/>
      <point x="693.0" y="552.0" type="line"/>
      <point x="633.0" y="646.0"/>
      <point x="530.0" y="705.0"/>
      <point x="399.0" y="705.0" type="curve" smooth="yes"/>
      <point x="189.0" y="705.0"/>
      <point x="50.0" y="544.0"/>
      <point x="50.0" y="348.0" type="curve" smooth="yes"/>
      <point x="50.0" y="174.39"/>
      <point x="162.11" y="28.81"/>
      <point x="335.46" y="0.12" type="curve"/>
      <point x="294.0" y="-90.01" type="line"/>
      <point x="357.0" y="-90.01" type="line"/>
      <point x="362.0" y="-83.01"/>
      <point x="375.0" y="-73.01"/>
      <point x="397.0" y="-73.01" type="curve" smooth="yes"/>
      <point x="414.61" y="-73.01"/>
      <point x="425.19" y="-82.86"/>
      <point x="425.19" y="-99.61" type="curve" smooth="yes"/>
      <point x="425.19" y="-133.37"/>
      <point x="392.79" y="-151.01"/>
      <point x="357.99" y="-151.01" type="curve" smooth="yes"/>
      <point x="334.99" y="-151.01"/>
      <point x="289.99" y="-140.01"/>
      <point x="277.99" y="-130.01" type="curve"/>
      <point x="277.99" y="-196.01" type="line"/>
      <point x="284.99" y="-200.01"/>
      <point x="318.99" y="-208.01"/>
      <point x="345.99" y="-208.01" type="curve" smooth="yes"/>
      <point x="400.99" y="-208.01"/>
      <point x="471.99" y="-181.01"/>
      <point x="486.99" y="-112.01" type="curve" smooth="yes"/>
      <point x="488.14" y="-106.52"/>
      <point x="488.72" y="-101.11"/>
      <point x="488.72" y="-95.86" type="curve" smooth="yes"/>
      <point x="488.72" y="-59.93"/>
      <point x="461.7" y="-31.01"/>
      <point x="404.99" y="-31.01" type="curve" smooth="yes"/>
      <point x="397.5" y="-31.01"/>
      <point x="389.75" y="-32.22"/>
      <point x="382.05" y="-34.33" type="curve"/>
      <point x="395.25" y="-4.99" type="line"/>
      <point x="396.49" y="-5.0"/>
      <point x="397.74" y="-5.01"/>
      <point x="398.99" y="-5.01" type="curve" smooth="yes"/>
      <point x="528.99" y="-5.01"/>
      <point x="631.99" y="51.99"/>
      <point x="690.99" y="143.99" type="curve"/>
      <point x="588.99" y="192.99" type="line"/>
      <point x="547.99" y="128.99"/>
      <point x="477.99" y="92.99"/>
    </contour>
  </outline>
</glyph>
<glyph name="Iacute" format="2">
  <advance width="248.0"/>
  <unicode hex="00CD"/>
  <note>
Iacute
</note>
  <outline>
    <contour>
      <point x="185.0" y="965.0" type="line"/>
      <point x="1.0" y="793.0" type="line"/>
      <point x="89.0" y="766.0" type="line"/>
      <point x="246.0" y="864.0" type="line"/>
    </contour>
    <contour>
      <point x="178.0" y="0.0" type="line"/>
      <point x="178.0" y="700.0" type="line"/>
      <point x="70.0" y="700.0" type="line"/>
      <point x="70.0" y="0.0" type="line"/>
    </contour>
  </outline>
</glyph>
<glyph name="Idieresis" format="2">
  <advance width="248.0"/>
  <unicode hex="00CF"/>
  <note>
Idieresis
</note>
  <outline>
    <contour>
      <point x="54.0" y="783.0" type="line"/>
      <point x="54.0" y="891.0" type="line"/>
      <point x="-54.0" y="891.0" type="line"/>
      <point x="-54.0" y="783.0" type="line"/>
    </contour>
    <contour>
      <point x="302.0" y="783.0" type="line"/>
      <point x="302.0" y="891.0" type="line"/>
      <point x="194.0" y="891.0" type="line"/>
      <point x="194.0" y="783.0" type="line"/>
    </contour>
    <contour>
      <point x="178.0" y="0.0" type="line"/>
      <point x="178.0" y="700.0" type="line"/>
      <point x="70.0" y="700.0" type="line"/>
      <point x="70.0" y="0.0" type="line"/>
    </contour>
  </outline>
</glyph>
<glyph name="Eth" format="2">
  <advance width="777.0"/>
  <unicode hex="00D0"/>
  <note>
Eth
</note>
  <outline>
    <contour>
      <point x="356.0" y="700.0" type="curve" smooth="yes"/>
      <point x="176.0" y="700.0" type="line"/>
      <point x="176.0" y="358.0" type="line"/>
      <point x="32.0" y="358.0" type="line"/>
      <point x="32.0" y="258.0" type="line"/>
      <point x="176.0" y="258.0" type="line"/>
      <point x="176.0" y="0.0" type="line"/>
      <point x="372.0" y="0.0" type="line" smooth="yes"/>
      <point x="575.0" y="0.0"/>
      <point x="737.0" y="105.0"/>
      <point x="737.0" y="351.0" type="curve" smooth="yes"/>
      <point x="737.0" y="602.0"/>
      <point x="554.0" y="700.0"/>
    </contour>
    <contour>
      <point x="372.0" y="98.0" type="curve" smooth="yes"/>
      <point x="284.0" y="98.0" type="line"/>
      <point x="284.0" y="258.0" type="line"/>
      <point x="453.0" y="258.0" type="line"/>
      <point x="453.0" y="358.0" type="line"/>
      <point x="284.0" y="358.0" type="line"/>
      <point x="284.0" y="602.0" type="line"/>
      <point x="356.0" y="602.0" type="line" smooth="yes"/>
      <point x="509.0" y="602.0"/>
      <point x="624.0" y="537.0"/>
      <point x="624.0" y="351.0" type="curve" smooth="yes"/>
      <point x="624.0" y="169.0"/>
      <point x="528.0" y="98.0"/>
    </contour>
  </outline>
</glyph>
<glyph name="Ntilde" format="2">
  <advance width="625.0"/>
  <unicode hex="00D1"/>
  <note>
Ntilde
</note>
  <outline>
    <contour>
      <point x="460.0" y="947.99" type="curve"/>
      <point x="365.0" y="948.0" type="line"/>
      <point x="403.87" y="920.13"/>
      <point x="426.06" y="879.89"/>
      <point x="426.06" y="860.41" type="curve" smooth="yes"/>
      <point x="426.06" y="853.33"/>
      <point x="423.13" y="849.0"/>
      <point x="417.0" y="849.0" type="curve" smooth="yes"/>
      <point x="392.0" y="849.0"/>
      <point x="349.0" y="889.0"/>
      <point x="326.0" y="906.0" type="curve" smooth="yes"/>
      <point x="282.0" y="937.0"/>
      <point x="261.0" y="948.0"/>
      <point x="220.0" y="948.0" type="curve" smooth="yes"/>
      <point x="160.83" y="948.0"/>
      <point x="129.0" y="906.39"/>
      <point x="129.0" y="861.84" type="curve" smooth="yes"/>
      <point x="129.0" y="835.62"/>
      <point x="140.03" y="808.37"/>
      <point x="163.0" y="787.99" type="curve"/>
      <point x="263.0" y="787.99" type="line"/>
      <point x="224.13" y="815.86"/>
      <point x="201.93" y="861.48"/>
      <point x="201.93" y="883.83" type="curve" smooth="yes"/>
      <point x="201.93" y="891.95"/>
      <point x="204.87" y="897.0"/>
      <point x="211.0" y="897.0" type="curve" smooth="yes"/>
      <point x="237.0" y="897.0"/>
      <point x="280.0" y="847.0"/>
      <point x="319.0" y="819.0" type="curve" smooth="yes"/>
      <point x="343.0" y="801.0"/>
      <point x="372.0" y="788.0"/>
      <point x="408.0" y="788.0" type="curve" smooth="yes"/>
      <point x="466.83" y="788.0"/>
      <point x="501.12" y="833.26"/>
      <point x="501.12" y="877.69" type="curve" smooth="yes"/>
      <point x="501.12" y="905.01"/>
      <point x="488.17" y="932.01"/>
    </contour>
    <contour>
      <point x="158.0" y="498.22" type="line"/>
      <point x="472.0" y="-0.01" type="line"/>
      <point x="585.0" y="-0.01" type="line"/>
      <point x="585.0" y="699.99" type="line"/>
      <point x="477.0" y="699.99" type="line"/>
      <point x="477.0" y="191.49" type="line"/>
      <point x="158.0" y="699.99" type="line"/>
      <point x="50.0" y="699.99" type="line"/>
      <point x="50.0" y="-0.01" type="line"/>
      <point x="158.0" y="-0.01" type="line"/>
    </contour>
  </outline>
</glyph>
<glyph name="Ocircumflex" format="2">
  <advance width="798.0"/>
  <unicode hex="00D4"/>
  <note>
Ocircumflex
</note>
  <outline>
    <contour>
      <point x="216.0" y="806.0" type="line"/>
      <point x="304.0" y="779.0" type="line"/>
      <point x="400.0" y="869.12" type="line"/>
      <point x="496.0" y="779.0" type="line"/>
      <point x="584.0" y="806.0" type="line"/>
      <point x="400.0" y="968.0" type="line"/>
    </contour>
    <contour>
      <point x="399.0" y="-5.0" type="curve" smooth="yes"/>
      <point x="609.0" y="-5.0"/>
      <point x="748.0" y="154.0"/>
      <point x="748.0" y="348.0" type="curve" smooth="yes"/>
      <point x="748.0" y="544.0"/>
      <point x="609.0" y="705.0"/>
      <point x="399.0" y="705.0" type="curve" smooth="yes"/>
      <point x="189.0" y="705.0"/>
      <point x="50.0" y="544.0"/>
      <point x="50.0" y="348.0" type="curve" smooth="yes"/>
      <point x="50.0" y="154.0"/>
      <point x="190.0" y="-5.0"/>
    </contour>
    <contour>
      <point x="399.0" y="93.0" type="curve" smooth="yes"/>
      <point x="253.0" y="93.0"/>
      <point x="158.0" y="200.0"/>
      <point x="158.0" y="348.0" type="curve" smooth="yes"/>
      <point x="158.0" y="498.0"/>
      <point x="254.0" y="607.0"/>
      <point x="399.0" y="607.0" type="curve" smooth="yes"/>
      <point x="545.0" y="607.0"/>
      <point x="640.0" y="498.0"/>
      <point x="640.0" y="348.0" type="curve" smooth="yes"/>
      <point x="640.0" y="200.0"/>
      <point x="545.0" y="93.0"/>
    </contour>
  </outline>
</glyph>
<glyph name="Otilde" format="2">
  <advance width="798.0"/>
  <unicode hex="00D5"/>
  <note>
Otilde
</note>
  <outline>
    <contour>
      <point x="541.0" y="947.99" type="curve"/>
      <point x="446.0" y="948.0" type="line"/>
      <point x="484.87" y="920.13"/>
      <point x="507.06" y="879.89"/>
      <point x="507.06" y="860.41" type="curve" smooth="yes"/>
      <point x="507.06" y="853.33"/>
      <point x="504.13" y="849.0"/>
      <point x="498.0" y="849.0" type="curve" smooth="yes"/>
      <point x="473.0" y="849.0"/>
      <point x="430.0" y="889.0"/>
      <point x="407.0" y="906.0" type="curve" smooth="yes"/>
      <point x="363.0" y="937.0"/>
      <point x="342.0" y="948.0"/>
      <point x="301.0" y="948.0" type="curve" smooth="yes"/>
      <point x="241.83" y="948.0"/>
      <point x="210.0" y="906.39"/>
      <point x="210.0" y="861.84" type="curve" smooth="yes"/>
      <point x="210.0" y="835.62"/>
      <point x="221.03" y="808.37"/>
      <point x="244.0" y="787.99" type="curve"/>
      <point x="344.0" y="787.99" type="line"/>
      <point x="305.13" y="815.86"/>
      <point x="282.93" y="861.48"/>
      <point x="282.93" y="883.83" type="curve" smooth="yes"/>
      <point x="282.93" y="891.95"/>
      <point x="285.87" y="897.0"/>
      <point x="292.0" y="897.0" type="curve" smooth="yes"/>
      <point x="318.0" y="897.0"/>
      <point x="361.0" y="847.0"/>
      <point x="400.0" y="819.0" type="curve" smooth="yes"/>
      <point x="424.0" y="801.0"/>
      <point x="453.0" y="788.0"/>
      <point x="489.0" y="788.0" type="curve" smooth="yes"/>
      <point x="547.83" y="788.0"/>
      <point x="582.12" y="833.26"/>
      <point x="582.12" y="877.69" type="curve" smooth="yes"/>
      <point x="582.12" y="905.01"/>
      <point x="569.17" y="932.01"/>
    </contour>
    <contour>
      <point x="399.0" y="-5.01" type="curve" smooth="yes"/>
      <point x="609.0" y="-5.01"/>
      <point x="748.0" y="153.99"/>
      <point x="748.0" y="347.99" type="curve" smooth="yes"/>
      <point x="748.0" y="543.99"/>
      <point x="609.0" y="704.99"/>
      <point x="399.0" y="704.99" type="curve" smooth="yes"/>
      <point x="189.0" y="704.99"/>
      <point x="50.0" y="543.99"/>
      <point x="50.0" y="347.99" type="curve" smooth="yes"/>
      <point x="50.0" y="153.99"/>
      <point x="190.0" y="-5.01"/>
    </contour>
    <contour>
      <point x="399.0" y="92.99" type="curve" smooth="yes"/>
      <point x="253.0" y="92.99"/>
      <point x="158.0" y="199.99"/>
      <point x="158.0" y="347.99" type="curve" smooth="yes"/>
      <point x="158.0" y="497.99"/>
      <point x="254.0" y="606.99"/>
      <point x="399.0" y="606.99" type="curve" smooth="yes"/>
      <point x="545.0" y="606.99"/>
      <point x="640.0" y="497.99"/>
      <point x="640.0" y="347.99" type="curve" smooth="yes"/>
      <point x="640.0" y="199.99"/>
      <point x="545.0" y="92.99"/>
    </contour>
  </outline>
</glyph>
<glyph name="multiply" format="2">
  <advance width="600.0"/>
  <unicode hex="00D7"/>
  <note>
multiply
</note>
  <outline>
    <contour>
      <point x="31.0" y="74.0" type="line"/>
      <point x="100.0" y="3.0" type="line"/>
      <point x="309.78" y="212.78" type="line"/>
      <point x="518.0" y="5.0" type="line"/>
      <point x="590.0" y="74.0" type="line"/>
      <point x="380.28" y="283.28" type="line"/>
      <point x="589.0" y="492.0" type="line"/>
      <point x="520.0" y="563.0" type="line"/>
      <point x="310.21" y="353.21" type="line"/>
      <point x="100.0" y="563.0" type="line"/>
      <point x="30.0" y="492.0" type="line"/>
      <point x="239.71" y="282.71" type="line"/>
    </contour>
  </outline>
</glyph>
<glyph name="Oslash" format="2">
  <advance width="798.0"/>
  <unicode hex="00D8"/>
  <note>
Oslash
</note>
  <outline>
    <contour>
      <point x="539.59" y="677.84" type="curve"/>
      <point x="569.0" y="777.0" type="line"/>
      <point x="464.0" y="777.0" type="line"/>
      <point x="441.96" y="702.68" type="line"/>
      <point x="428.0" y="704.21"/>
      <point x="413.67" y="705.0"/>
      <point x="398.99" y="705.0" type="curve" smooth="yes"/>
      <point x="188.99" y="705.0"/>
      <point x="49.99" y="544.0"/>
      <point x="49.99" y="348.0" type="curve" smooth="yes"/>
      <point x="49.99" y="207.92"/>
      <point x="122.98" y="86.1"/>
      <point x="242.22" y="29.19" type="curve"/>
      <point x="213.99" y="-66.0" type="line"/>
      <point x="318.99" y="-66.0" type="line"/>
      <point x="338.46" y="-0.36" type="line"/>
      <point x="357.9" y="-3.42"/>
      <point x="378.1" y="-5.01"/>
      <point x="398.99" y="-5.01" type="curve" smooth="yes"/>
      <point x="608.99" y="-5.01"/>
      <point x="747.99" y="153.99"/>
      <point x="747.99" y="347.99" type="curve" smooth="yes"/>
      <point x="747.99" y="495.96"/>
      <point x="668.77" y="623.98"/>
    </contour>
    <contour>
      <point x="158.0" y="348.0" type="curve"/>
      <point x="157.99" y="497.99"/>
      <point x="253.99" y="606.99"/>
      <point x="398.99" y="606.99" type="curve" smooth="yes"/>
      <point x="403.88" y="606.99"/>
      <point x="408.7" y="606.87"/>
      <point x="413.47" y="606.63" type="curve"/>
      <point x="271.1" y="126.54" type="line"/>
      <point x="200.01" y="169.29"/>
      <point x="158.0" y="249.58"/>
    </contour>
    <contour>
      <point x="398.99" y="92.99" type="curve" smooth="yes"/>
      <point x="387.93" y="93.0"/>
      <point x="377.15" y="93.61"/>
      <point x="366.69" y="94.81" type="curve"/>
      <point x="511.07" y="581.66" type="line"/>
      <point x="591.7" y="541.04"/>
      <point x="639.99" y="454.94"/>
      <point x="639.99" y="347.99" type="curve" smooth="yes"/>
      <point x="639.99" y="199.99"/>
      <point x="544.99" y="92.99"/>
    </contour>
  </outline>
</glyph>
<glyph name="Uacute" format="2">
  <advance width="652.0"/>
  <unicode hex="00DA"/>
  <note>
Uacute
</note>
  <outline>
    <contour>
      <point x="372.0" y="965.0" type="line"/>
      <point x="188.0" y="793.0" type="line"/>
      <point x="276.0" y="766.0" type="line"/>
      <point x="433.0" y="864.0" type="line"/>
    </contour>
    <contour>
      <point x="572.0" y="225.0" type="curve"/>
      <point x="571.0" y="700.0" type="line"/>
      <point x="463.0" y="700.0" type="line"/>
      <point x="463.0" y="225.0" type="line" smooth="yes"/>
      <point x="463.0" y="124.0"/>
      <point x="402.0" y="83.0"/>
      <point x="311.0" y="83.0" type="curve" smooth="yes"/>
      <point x="220.0" y="83.0"/>
      <point x="159.0" y="124.0"/>
      <point x="159.0" y="225.0" type="curve" smooth="yes"/>
      <point x="159.0" y="700.0" type="line"/>
      <point x="51.0" y="700.0" type="line"/>
      <point x="50.0" y="225.0" type="line" smooth="yes"/>
      <point x="50.0" y="64.0"/>
      <point x="162.0" y="-12.0"/>
      <point x="311.0" y="-12.0" type="curve" smooth="yes"/>
      <point x="460.0" y="-12.0"/>
      <point x="572.0" y="64.0"/>
    </contour>
  </outline>
</glyph>
<glyph name="Ucircumflex" format="2">
  <advance width="652.0"/>
  <unicode hex="00DB"/>
  <note>
Ucircumflex
</note>
  <outline>
    <contour>
      <point x="128.0" y="806.0" type="line"/>
      <point x="216.0" y="779.0" type="line"/>
      <point x="312.0" y="869.12" type="line"/>
      <point x="408.0" y="779.0" type="line"/>
      <point x="496.0" y="806.0" type="line"/>
      <point x="312.0" y="968.0" type="line"/>
    </contour>
    <contour>
      <point x="572.0" y="225.0" type="curve"/>
      <point x="571.0" y="700.0" type="line"/>
      <point x="463.0" y="700.0" type="line"/>
      <point x="463.0" y="225.0" type="line" smooth="yes"/>
      <point x="463.0" y="124.0"/>
      <point x="402.0" y="83.0"/>
      <point x="311.0" y="83.0" type="curve" smooth="yes"/>
      <point x="220.0" y="83.0"/>
      <point x="159.0" y="124.0"/>
      <point x="159.0" y="225.0" type="curve" smooth="yes"/>
      <point x="159.0" y="700.0" type="line"/>
      <point x="51.0" y="700.0" type="line"/>
      <point x="50.0" y="225.0" type="line" smooth="yes"/>
      <point x="50.0" y="64.0"/>
      <point x="162.0" y="-12.0"/>
      <point x="311.0" y="-12.0" type="curve" smooth="yes"/>
      <point x="460.0" y="-12.0"/>
      <point x="572.0" y="64.0"/>
    </contour>
  </outline>
</glyph>
<glyph name="Udieresis" format="2">
  <advance width="652.0"/>
  <unicode hex="00DC"/>
  <note>
Udieresis
</note>
  <outline>
    <contour>
      <point x="241.0" y="783.0" type="line"/>
      <point x="241.0" y="891.0" type="line"/>
      <point x="133.0" y="891.0" type="line"/>
      <point x="133.0" y="783.0" type="line"/>
    </contour>
    <contour>
      <point x="489.0" y="783.0" type="line"/>
      <point x="489.0" y="891.0" type="line"/>
      <point x="381.0" y="891.0" type="line"/>
      <point x="381.0" y="783.0" type="line"/>
    </contour>
    <contour>
      <point x="572.0" y="225.0" type="curve"/>
      <point x="571.0" y="700.0" type="line"/>
      <point x="463.0" y="700.0" type="line"/>
      <point x="463.0" y="225.0" type="line" smooth="yes"/>
      <point x="463.0" y="124.0"/>
      <point x="402.0" y="83.0"/>
      <point x="311.0" y="83.0" type="curve" smooth="yes"/>
      <point x="220.0" y="83.0"/>
      <point x="159.0" y="124.0"/>
      <point x="159.0" y="225.0" type="curve" smooth="yes"/>
      <point x="159.0" y="700.0" type="line"/>
      <point x="51.0" y="700.0" type="line"/>
      <point x="50.0" y="225.0" type="line" smooth="yes"/>
      <point x="50.0" y="64.0"/>
      <point x="162.0" y="-12.0"/>
      <point x="311.0" y="-12.0" type="curve" smooth="yes"/>
      <point x="460.0" y="-12.0"/>
      <point x="572.0" y="64.0"/>
    </contour>
  </outline>
</glyph>
<glyph name="Yacute" format="2">
  <advance width="649.0"/>
  <unicode hex="00DD"/>
  <note>
Yacute
</note>
  <outline>
    <contour>
      <point x="386.0" y="965.0" type="line"/>
      <point x="202.0" y="793.0" type="line"/>
      <point x="290.0" y="766.0" type="line"/>
      <point x="447.0" y="864.0" type="line"/>
    </contour>
    <contour>
      <point x="270.0" y="0.0" type="line"/>
      <point x="378.0" y="0.0" type="line"/>
      <point x="378.0" y="307.0" type="line"/>
      <point x="634.0" y="700.0" type="line"/>
      <point x="521.0" y="700.0" type="line"/>
      <point x="324.09" y="400.18" type="line"/>
      <point x="128.0" y="700.0" type="line"/>
      <point x="15.0" y="700.0" type="line"/>
      <point x="270.0" y="307.0" type="line"/>
    </contour>
  </outline>
</glyph>
<glyph name="Thorn" format="2">
  <advance width="531.0"/>
  <unicode hex="00DE"/>
  <note>
Thorn
</note>
  <outline>
    <contour>
      <point x="294.0" y="597.0" type="curve" smooth="yes"/>
      <point x="158.0" y="597.0" type="line"/>
      <point x="158.0" y="700.0" type="line"/>
      <point x="50.0" y="700.0" type="line"/>
      <point x="50.0" y="0.0" type="line"/>
      <point x="158.0" y="0.0" type="line"/>
      <point x="158.0" y="199.0" type="line"/>
      <point x="288.0" y="199.0" type="line" smooth="yes"/>
      <point x="398.0" y="199.0"/>
      <point x="511.0" y="249.0"/>
      <point x="511.0" y="400.0" type="curve" smooth="yes"/>
      <point x="511.0" y="549.0"/>
      <point x="393.0" y="597.0"/>
    </contour>
    <contour>
      <point x="288.0" y="298.0" type="curve" smooth="yes"/>
      <point x="158.0" y="298.0" type="line"/>
      <point x="158.0" y="499.0" type="line"/>
      <point x="291.0" y="499.0" type="line" smooth="yes"/>
      <point x="360.0" y="499.0"/>
      <point x="403.0" y="469.0"/>
      <point x="403.0" y="400.0" type="curve" smooth="yes"/>
      <point x="403.0" y="331.0"/>
      <point x="361.0" y="298.0"/>
    </contour>
  </outline>
</glyph>
<glyph name="germandbls" format="2">
  <advance width="596.0"/>
  <unicode hex="00DF"/>
  <note>
germandbls
</note>
  <outline>
    <contour>
      <point x="45.0" y="531.0" type="curve" smooth="yes"/>
      <point x="45.0" y="0.0" type="line"/>
      <point x="153.0" y="0.0" type="line"/>
      <point x="153.0" y="523.0" type="line" smooth="yes"/>
      <point x="153.0" y="572.0"/>
      <point x="186.0" y="602.0"/>
      <point x="251.0" y="602.0" type="curve" smooth="yes"/>
      <point x="320.0" y="602.0"/>
      <point x="353.0" y="572.0"/>
      <point x="353.0" y="523.0" type="curve" smooth="yes"/>
      <point x="353.0" y="474.0"/>
      <point x="321.0" y="441.0"/>
      <point x="248.0" y="441.0" type="curve" smooth="yes"/>
      <point x="235.0" y="441.0" type="line"/>
      <point x="235.0" y="362.0" type="line"/>
      <point x="304.0" y="362.0" type="line" smooth="yes"/>
      <point x="402.0" y="362.0"/>
      <point x="467.0" y="313.0"/>
      <point x="467.0" y="222.0" type="curve" smooth="yes"/>
      <point x="467.0" y="135.0"/>
      <point x="405.0" y="98.0"/>
      <point x="299.0" y="98.0" type="curve" smooth="yes"/>
      <point x="260.0" y="98.0"/>
      <point x="209.0" y="117.0"/>
      <point x="193.0" y="128.0" type="curve"/>
      <point x="193.0" y="30.0" type="line"/>
      <point x="212.0" y="19.0"/>
      <point x="266.0" y="0.0"/>
      <point x="308.0" y="0.0" type="curve" smooth="yes"/>
      <point x="461.0" y="0.0"/>
      <point x="576.0" y="71.0"/>
      <point x="576.0" y="222.0" type="curve" smooth="yes"/>
      <point x="576.0" y="330.0"/>
      <point x="520.0" y="398.0"/>
      <point x="426.0" y="426.0" type="curve"/>
      <point x="448.0" y="452.0"/>
      <point x="461.0" y="486.0"/>
      <point x="461.0" y="533.0" type="curve" smooth="yes"/>
      <point x="461.0" y="662.0"/>
      <point x="360.0" y="700.0"/>
      <point x="251.0" y="700.0" type="curve" smooth="yes"/>
      <point x="138.0" y="700.0"/>
      <point x="45.0" y="662.0"/>
    </contour>
  </outline>
</glyph>
<glyph name="agrave" format="2">
  <advance width="526.0"/>
  <unicode hex="00E0"/>
  <note>
agrave
</note>
  <outline>
    <contour>
      <point x="289.0" y="566.0" type="line"/>
      <point x="377.0" y="593.0" type="line"/>
      <point x="193.0" y="765.0" type="line"/>
      <point x="132.0" y="664.0" type="line"/>
    </contour>
    <contour>
      <point x="277.0" y="509.99" type="curve" smooth="yes"/>
      <point x="165.37" y="510.0"/>
      <point x="70.48" y="442.18"/>
      <point x="70.48" y="360.94" type="curve" smooth="yes"/>
      <point x="70.48" y="353.4"/>
      <point x="71.3" y="345.74"/>
      <point x="73.0" y="338.0" type="curve"/>
      <point x="192.0" y="337.0" type="line"/>
      <point x="187.0" y="349.0"/>
      <point x="199.88" y="427.0"/>
      <point x="288.88" y="427.0" type="curve" smooth="yes"/>
      <point x="339.54" y="427.0"/>
      <point x="365.27" y="408.15"/>
      <point x="372.81" y="376.41" type="curve" smooth="yes"/>
      <point x="373.96" y="371.55"/>
      <point x="374.55" y="366.84"/>
      <point x="374.55" y="362.31" type="curve" smooth="yes"/>
      <point x="374.55" y="324.65"/>
      <point x="333.87" y="298.69"/>
      <point x="239.01" y="289.99" type="curve" smooth="yes"/>
      <point x="82.84" y="275.67"/>
      <point x="30.01" y="215.99"/>
      <point x="30.01" y="139.99" type="curve" smooth="yes"/>
      <point x="30.01" y="48.99"/>
      <point x="97.01" y="-12.01"/>
      <point x="219.01" y="-12.01" type="curve" smooth="yes"/>
      <point x="295.25" y="-12.01"/>
      <point x="346.7" y="21.15"/>
      <point x="378.0" y="66.56" type="curve"/>
      <point x="378.0" y="-0.01" type="line"/>
      <point x="486.0" y="-0.01" type="line"/>
      <point x="486.0" y="312.99" type="line" smooth="yes"/>
      <point x="486.0" y="393.99"/>
      <point x="468.0" y="509.99"/>
    </contour>
    <contour>
      <point x="233.0" y="64.99" type="curve" smooth="yes"/>
      <point x="162.0" y="64.99"/>
      <point x="143.0" y="111.99"/>
      <point x="143.0" y="144.99" type="curve" smooth="yes"/>
      <point x="143.0" y="187.99"/>
      <point x="185.0" y="214.99"/>
      <point x="244.0" y="221.99" type="curve" smooth="yes"/>
      <point x="295.74" y="228.2"/>
      <point x="343.73" y="242.44"/>
      <point x="378.0" y="267.34" type="curve"/>
      <point x="378.0" y="227.99" type="line" smooth="yes"/>
      <point x="378.0" y="111.99"/>
      <point x="309.0" y="64.99"/>
    </contour>
  </outline>
</glyph>
<glyph name="aring" format="2">
  <advance width="526.0"/>
  <unicode hex="00E5"/>
  <note>
aring
</note>
  <outline>
    <contour>
      <point x="258.0" y="555.0" type="curve" smooth="yes"/>
      <point x="329.0" y="555.0"/>
      <point x="386.0" y="612.0"/>
      <point x="386.0" y="683.0" type="curve" smooth="yes"/>
      <point x="386.0" y="754.0"/>
      <point x="329.0" y="811.0"/>
      <point x="258.0" y="811.0" type="curve" smooth="yes"/>
      <point x="187.0" y="811.0"/>
      <point x="130.0" y="754.0"/>
      <point x="130.0" y="683.0" type="curve" smooth="yes"/>
      <point x="130.0" y="612.0"/>
      <point x="187.0" y="555.0"/>
    </contour>
    <contour>
      <point x="258.0" y="615.0" type="curve" smooth="yes"/>
      <point x="220.0" y="615.0"/>
      <point x="190.0" y="645.0"/>
      <point x="190.0" y="683.0" type="curve" smooth="yes"/>
      <point x="190.0" y="721.0"/>
      <point x="220.0" y="751.0"/>
      <point x="258.0" y="751.0" type="curve" smooth="yes"/>
      <point x="296.0" y="751.0"/>
      <point x="326.0" y="721.0"/>
      <point x="326.0" y="683.0" type="curve" smooth="yes"/>
      <point x="326.0" y="645.0"/>
      <point x="296.0" y="615.0"/>
    </contour>
    <contour>
      <point x="277.0" y="509.99" type="curve" smooth="yes"/>
      <point x="165.37" y="510.0"/>
      <point x="70.48" y="442.18"/>
      <point x="70.48" y="360.94" type="curve" smooth="yes"/>
      <point x="70.48" y="353.4"/>
      <point x="71.3" y="345.74"/>
      <point x="73.0" y="338.0" type="curve"/>
      <point x="192.0" y="337.0" type="line"/>
      <point x="187.0" y="349.0"/>
      <point x="199.88" y="427.0"/>
      <point x="288.88" y="427.0" type="curve" smooth="yes"/>
      <point x="339.54" y="427.0"/>
      <point x="365.27" y="408.15"/>
      <point x="372.81" y="376.41" type="curve" smooth="yes"/>
      <point x="373.96" y="371.55"/>
      <point x="374.55" y="366.84"/>
      <point x="374.55" y="362.31" type="curve" smooth="yes"/>
      <point x="374.55" y="324.65"/>
      <point x="333.87" y="298.69"/>
      <point x="239.01" y="289.99" type="curve" smooth="yes"/>
      <point x="82.84" y="275.67"/>
      <point x="30.01" y="215.99"/>
      <point x="30.01" y="139.99" type="curve" smooth="yes"/>
      <point x="30.01" y="48.99"/>
      <point x="97.01" y="-12.01"/>
      <point x="219.01" y="-12.01" type="curve" smooth="yes"/>
      <point x="295.25" y="-12.01"/>
      <point x="346.7" y="21.15"/>
      <point x="378.0" y="66.56" type="curve"/>
      <point x="378.0" y="-0.01" type="line"/>
      <point x="486.0" y="-0.01" type="line"/>
      <point x="486.0" y="312.99" type="line" smooth="yes"/>
      <point x="486.0" y="393.99"/>
      <point x="468.0" y="509.99"/>
    </contour>
    <contour>
      <point x="233.0" y="64.99" type="curve" smooth="yes"/>
      <point x="162.0" y="64.99"/>
      <point x="143.0" y="111.99"/>
      <point x="143.0" y="144.99" type="curve" smooth="yes"/>
      <point x="143.0" y="187.99"/>
      <point x="185.0" y="214.99"/>
      <point x="244.0" y="221.99" type="curve" smooth="yes"/>
      <point x="295.74" y="228.2"/>
      <point x="343.73" y="242.44"/>
      <point x="378.0" y="267.34" type="curve"/>
      <point x="378.0" y="227.99" type="line" smooth="yes"/>
      <point x="378.0" y="111.99"/>
      <point x="309.0" y="64.99"/>
    </contour>
  </outline>
</glyph>
<glyph name="ae" format="2">
  <advance width="954.0"/>
  <unicode hex="00E6"/>
  <note>
ae
</note>
  <outline>
    <contour>
      <point x="889.47" y="115.99" type="curve"/>
      <point x="790.45" y="163.0" type="line"/>
      <point x="766.45" y="120.0"/>
      <point x="727.45" y="79.0"/>
      <point x="644.45" y="79.0" type="curve" smooth="yes"/>
      <point x="570.72" y="79.0"/>
      <point x="502.79" y="124.57"/>
      <point x="491.19" y="224.0" type="curve"/>
      <point x="866.45" y="224.0" type="line"/>
      <point x="871.77" y="249.16"/>
      <point x="874.34" y="273.01"/>
      <point x="874.34" y="295.42" type="curve" smooth="yes"/>
      <point x="874.34" y="428.89"/>
      <point x="783.15" y="511.0"/>
      <point x="638.45" y="511.0" type="curve" smooth="yes"/>
      <point x="565.0" y="511.0"/>
      <point x="499.4" y="487.21"/>
      <point x="452.34" y="442.95" type="curve"/>
      <point x="423.79" y="481.53"/>
      <point x="371.63" y="510.0"/>
      <point x="277.0" y="510.0" type="curve" smooth="yes"/>
      <point x="165.37" y="510.0"/>
      <point x="70.49" y="442.18"/>
      <point x="70.49" y="360.94" type="curve" smooth="yes"/>
      <point x="70.49" y="353.4"/>
      <point x="71.31" y="345.74"/>
      <point x="73.01" y="338.0" type="curve"/>
      <point x="192.01" y="337.0" type="line"/>
      <point x="187.01" y="349.0"/>
      <point x="199.89" y="427.0"/>
      <point x="288.89" y="427.0" type="curve" smooth="yes"/>
      <point x="339.55" y="427.0"/>
      <point x="365.27" y="408.15"/>
      <point x="372.81" y="376.41" type="curve" smooth="yes"/>
      <point x="373.97" y="371.55"/>
      <point x="374.56" y="366.84"/>
      <point x="374.56" y="362.31" type="curve" smooth="yes"/>
      <point x="374.56" y="324.65"/>
      <point x="333.88" y="298.69"/>
      <point x="239.01" y="289.99" type="curve" smooth="yes"/>
      <point x="82.85" y="275.67"/>
      <point x="30.01" y="215.99"/>
      <point x="30.01" y="139.99" type="curve" smooth="yes"/>
      <point x="30.01" y="48.99"/>
      <point x="97.01" y="-12.01"/>
      <point x="219.01" y="-12.01" type="curve" smooth="yes"/>
      <point x="328.07" y="-12.01"/>
      <point x="391.21" y="36.53"/>
      <point x="414.59" y="107.33" type="curve"/>
      <point x="462.55" y="26.86"/>
      <point x="551.02" y="-12.01"/>
      <point x="644.47" y="-12.01" type="curve" smooth="yes"/>
      <point x="763.47" y="-12.01"/>
      <point x="843.47" y="33.99"/>
    </contour>
    <contour>
      <point x="638.47" y="421.99" type="curve" smooth="yes"/>
      <point x="723.67" y="421.99"/>
      <point x="763.02" y="370.52"/>
      <point x="763.02" y="317.34" type="curve" smooth="yes"/>
      <point x="763.02" y="311.22"/>
      <point x="762.5" y="305.08"/>
      <point x="761.47" y="298.99" type="curve"/>
      <point x="493.56" y="298.99" type="line"/>
      <point x="508.25" y="374.15"/>
      <point x="561.58" y="421.99"/>
    </contour>
    <contour>
      <point x="378.02" y="234.77" type="curve"/>
      <point x="378.02" y="227.99" type="line" smooth="yes"/>
      <point x="378.02" y="113.08"/>
      <point x="309.02" y="64.99"/>
      <point x="233.02" y="64.99" type="curve" smooth="yes"/>
      <point x="162.02" y="64.99"/>
      <point x="143.02" y="111.99"/>
      <point x="143.02" y="144.99" type="curve" smooth="yes"/>
      <point x="143.02" y="187.99"/>
      <point x="185.02" y="214.99"/>
      <point x="244.02" y="221.99" type="curve" smooth="yes"/>
      <point x="295.59" y="228.18"/>
      <point x="343.44" y="242.35"/>
      <point x="377.69" y="267.11" type="curve"/>
      <point x="377.54" y="263.11"/>
      <point x="377.47" y="259.08"/>
      <point x="377.47" y="255.0" type="curve" smooth="yes"/>
      <point x="377.47" y="248.12"/>
      <point x="377.65" y="241.37"/>
    </contour>
  </outline>
</glyph>
<glyph name="ccedilla" format="2">
  <advance width="569.0"/>
  <unicode hex="00E7"/>
  <note>
ccedilla
</note>
  <outline>
    <contour>
      <point x="538.99" y="151.58" type="curve"/>
      <point x="441.0" y="191.0" type="line"/>
      <point x="421.0" y="132.0"/>
      <point x="388.0" y="79.0"/>
      <point x="297.0" y="79.0" type="curve" smooth="yes"/>
      <point x="216.0" y="79.0"/>
      <point x="140.0" y="134.0"/>
      <point x="140.0" y="245.0" type="curve" smooth="yes"/>
      <point x="140.0" y="355.0"/>
      <point x="203.0" y="422.0"/>
      <point x="304.0" y="422.0" type="curve" smooth="yes"/>
      <point x="371.0" y="422.0"/>
      <point x="420.0" y="397.0"/>
      <point x="443.0" y="320.0" type="curve"/>
      <point x="535.0" y="371.0" type="line"/>
      <point x="504.0" y="459.0"/>
      <point x="423.0" y="511.0"/>
      <point x="304.0" y="511.0" type="curve" smooth="yes"/>
      <point x="148.0" y="511.0"/>
      <point x="30.0" y="417.0"/>
      <point x="30.0" y="245.0" type="curve" smooth="yes"/>
      <point x="30.0" y="97.3"/>
      <point x="125.49" y="13.02"/>
      <point x="241.08" y="-7.21" type="curve"/>
      <point x="202.99" y="-90.0" type="line"/>
      <point x="265.99" y="-90.0" type="line"/>
      <point x="270.99" y="-83.0"/>
      <point x="283.99" y="-73.0"/>
      <point x="305.99" y="-73.0" type="curve" smooth="yes"/>
      <point x="323.61" y="-73.0"/>
      <point x="334.19" y="-82.85"/>
      <point x="334.19" y="-99.61" type="curve" smooth="yes"/>
      <point x="334.19" y="-133.36"/>
      <point x="301.79" y="-151.0"/>
      <point x="266.99" y="-151.0" type="curve" smooth="yes"/>
      <point x="243.99" y="-151.0"/>
      <point x="198.99" y="-140.0"/>
      <point x="186.99" y="-130.0" type="curve"/>
      <point x="186.99" y="-196.0" type="line"/>
      <point x="193.99" y="-200.0"/>
      <point x="227.99" y="-208.0"/>
      <point x="254.99" y="-208.0" type="curve" smooth="yes"/>
      <point x="309.99" y="-208.0"/>
      <point x="380.99" y="-181.0"/>
      <point x="395.99" y="-112.0" type="curve" smooth="yes"/>
      <point x="397.14" y="-106.51"/>
      <point x="397.72" y="-101.11"/>
      <point x="397.72" y="-95.85" type="curve" smooth="yes"/>
      <point x="397.72" y="-59.92"/>
      <point x="370.69" y="-31.0"/>
      <point x="313.99" y="-31.0" type="curve" smooth="yes"/>
      <point x="306.49" y="-31.0"/>
      <point x="298.74" y="-32.21"/>
      <point x="291.04" y="-34.32" type="curve"/>
      <point x="301.1" y="-11.98" type="line"/>
      <point x="423.85" y="-10.67"/>
      <point x="507.34" y="49.71"/>
    </contour>
  </outline>
</glyph>
<glyph name="egrave" format="2">
  <advance width="607.0"/>
  <unicode hex="00E8"/>
  <note>
egrave
</note>
  <outline>
    <contour>
      <point x="320.0" y="566.0" type="line"/>
      <point x="408.0" y="593.0" type="line"/>
      <point x="224.0" y="765.0" type="line"/>
      <point x="163.0" y="664.0" type="line"/>
    </contour>
    <contour>
      <point x="542.0" y="116.0" type="curve"/>
      <point x="443.0" y="163.0" type="line"/>
      <point x="419.0" y="120.0"/>
      <point x="380.0" y="79.0"/>
      <point x="297.0" y="79.0" type="curve" smooth="yes"/>
      <point x="223.27" y="79.0"/>
      <point x="155.34" y="124.57"/>
      <point x="143.74" y="224.0" type="curve"/>
      <point x="519.0" y="224.0" type="line"/>
      <point x="524.32" y="249.16"/>
      <point x="526.89" y="273.01"/>
      <point x="526.89" y="295.42" type="curve" smooth="yes"/>
      <point x="526.89" y="428.89"/>
      <point x="435.7" y="511.0"/>
      <point x="291.0" y="511.0" type="curve" smooth="yes"/>
      <point x="145.0" y="511.0"/>
      <point x="30.0" y="417.0"/>
      <point x="30.0" y="255.0" type="curve" smooth="yes"/>
      <point x="30.0" y="74.0"/>
      <point x="158.0" y="-12.0"/>
      <point x="297.0" y="-12.0" type="curve" smooth="yes"/>
      <point x="416.0" y="-12.0"/>
      <point x="496.0" y="34.0"/>
    </contour>
    <contour>
      <point x="291.0" y="422.0" type="curve" smooth="yes"/>
      <point x="376.2" y="422.0"/>
      <point x="415.55" y="370.53"/>
      <point x="415.55" y="317.35" type="curve" smooth="yes"/>
      <point x="415.55" y="311.23"/>
      <point x="415.03" y="305.09"/>
      <point x="414.0" y="299.0" type="curve"/>
      <point x="146.09" y="299.0" type="line"/>
      <point x="160.78" y="374.16"/>
      <point x="214.11" y="422.0"/>
    </contour>
  </outline>
</glyph>
<glyph name="igrave" format="2">
  <advance width="248.0"/>
  <unicode hex="00EC"/>
  <note>
igrave
</note>
  <outline>
    <contour>
      <point x="155.0" y="566.0" type="line"/>
      <point x="243.0" y="593.0" type="line"/>
      <point x="59.0" y="765.0" type="line"/>
      <point x="-2.0" y="664.0" type="line"/>
    </contour>
    <contour>
      <point x="178.0" y="0.0" type="line"/>
      <point x="178.0" y="500.0" type="line"/>
      <point x="70.0" y="500.0" type="line"/>
      <point x="70.0" y="0.0" type="line"/>
    </contour>
  </outline>
</glyph>
<glyph name="iacute" format="2">
  <advance width="248.0"/>
  <unicode hex="00ED"/>
  <note>
iacute
</note>
  <outline>
    <contour>
      <point x="185.0" y="765.0" type="line"/>
      <point x="1.0" y="593.0" type="line"/>
      <point x="89.0" y="566.0" type="line"/>
      <point x="246.0" y="664.0" type="line"/>
    </contour>
    <contour>
      <point x="178.0" y="0.0" type="line"/>
      <point x="178.0" y="500.0" type="line"/>
      <point x="70.0" y="500.0" type="line"/>
      <point x="70.0" y="0.0" type="line"/>
    </contour>
  </outline>
</glyph>
<glyph name="icircumflex" format="2">
  <advance width="248.0"/>
  <unicode hex="00EE"/>
  <note>
icircumflex
</note>
  <outline>
    <contour>
      <point x="-59.0" y="606.0" type="line"/>
      <point x="29.0" y="579.0" type="line"/>
      <point x="125.0" y="669.12" type="line"/>
      <point x="221.0" y="579.0" type="line"/>
      <point x="309.0" y="606.0" type="line"/>
      <point x="125.0" y="768.0" type="line"/>
    </contour>
    <contour>
      <point x="178.0" y="0.0" type="line"/>
      <point x="178.0" y="500.0" type="line"/>
      <point x="70.0" y="500.0" type="line"/>
      <point x="70.0" y="0.0" type="line"/>
    </contour>
  </outline>
</glyph>
<glyph name="eth" format="2">
  <advance width="573.0"/>
  <unicode hex="00F0"/>
  <note>
eth
</note>
  <outline>
    <contour>
      <point x="551.99" y="322.98" type="curve" smooth="yes"/>
      <point x="552.0" y="493.87"/>
      <point x="465.34" y="629.71"/>
      <point x="322.12" y="709.18" type="curve"/>
      <point x="373.0" y="753.0" type="line"/>
      <point x="329.0" y="805.0" type="line"/>
      <point x="254.79" y="740.73" type="line"/>
      <point x="199.95" y="762.16"/>
      <point x="138.95" y="776.54"/>
      <point x="73.0" y="782.99" type="curve"/>
      <point x="73.0" y="681.99" type="line"/>
      <point x="105.91" y="677.27"/>
      <point x="136.45" y="670.79"/>
      <point x="164.69" y="662.7" type="curve"/>
      <point x="120.0" y="623.99" type="line"/>
      <point x="164.0" y="572.99" type="line"/>
      <point x="237.34" y="636.16" type="line"/>
      <point x="319.18" y="598.86"/>
      <point x="375.38" y="544.38"/>
      <point x="409.19" y="478.3" type="curve"/>
      <point x="374.43" y="499.09"/>
      <point x="333.73" y="511.99"/>
      <point x="287.99" y="511.99" type="curve" smooth="yes"/>
      <point x="279.99" y="511.99"/>
      <point x="270.99" y="511.99"/>
      <point x="261.99" y="510.99" type="curve" smooth="yes"/>
      <point x="123.99" y="495.99"/>
      <point x="38.99" y="389.99"/>
      <point x="38.99" y="257.99" type="curve" smooth="yes"/>
      <point x="38.99" y="247.99"/>
      <point x="39.99" y="236.99"/>
      <point x="40.99" y="225.99" type="curve" smooth="yes"/>
      <point x="55.99" y="88.99"/>
      <point x="151.99" y="-10.01"/>
      <point x="285.99" y="-10.01" type="curve" smooth="yes"/>
      <point x="295.99" y="-10.01"/>
      <point x="305.99" y="-9.01"/>
      <point x="315.99" y="-8.01" type="curve" smooth="yes"/>
      <point x="441.84" y="5.24"/>
      <point x="515.59" y="104.86"/>
      <point x="537.24" y="199.47" type="curve" smooth="yes"/>
      <point x="538.47" y="204.46"/>
      <point x="539.72" y="209.95"/>
      <point x="540.99" y="215.98" type="curve" smooth="yes"/>
      <point x="548.99" y="252.98"/>
      <point x="551.99" y="288.98"/>
    </contour>
    <contour>
      <point x="305.99" y="86.99" type="curve"/>
      <point x="300.99" y="85.98"/>
      <point x="295.99" y="85.98"/>
      <point x="289.99" y="85.98" type="curve" smooth="yes"/>
      <point x="207.99" y="85.98"/>
      <point x="148.99" y="159.98"/>
      <point x="148.99" y="261.98" type="curve" smooth="yes"/>
      <point x="148.99" y="347.64"/>
      <point x="199.32" y="416.63"/>
      <point x="285.82" y="416.63" type="curve" smooth="yes"/>
      <point x="349.13" y="416.63"/>
      <point x="444.99" y="377.87"/>
      <point x="444.99" y="244.98" type="curve" smooth="yes"/>
      <point x="444.99" y="239.52"/>
      <point x="444.78" y="234.17"/>
      <point x="444.36" y="228.94" type="curve"/>
      <point x="443.46" y="221.69"/>
      <point x="442.41" y="214.25"/>
      <point x="441.21" y="206.63" type="curve"/>
      <point x="427.01" y="137.59"/>
      <point x="374.11" y="93.8"/>
    </contour>
  </outline>
</glyph>
<glyph name="ntilde" format="2">
  <advance width="571.0"/>
  <unicode hex="00F1"/>
  <note>
ntilde
</note>
  <outline>
    <contour>
      <point x="422.0" y="747.99" type="curve"/>
      <point x="327.0" y="748.0" type="line"/>
      <point x="365.87" y="720.13"/>
      <point x="388.06" y="679.89"/>
      <point x="388.06" y="660.41" type="curve" smooth="yes"/>
      <point x="388.06" y="653.33"/>
      <point x="385.13" y="649.0"/>
      <point x="379.0" y="649.0" type="curve" smooth="yes"/>
      <point x="354.0" y="649.0"/>
      <point x="311.0" y="689.0"/>
      <point x="288.0" y="706.0" type="curve" smooth="yes"/>
      <point x="244.0" y="737.0"/>
      <point x="223.0" y="748.0"/>
      <point x="182.0" y="748.0" type="curve" smooth="yes"/>
      <point x="122.83" y="748.0"/>
      <point x="91.0" y="706.39"/>
      <point x="91.0" y="661.84" type="curve" smooth="yes"/>
      <point x="91.0" y="635.62"/>
      <point x="102.03" y="608.37"/>
      <point x="125.0" y="587.99" type="curve"/>
      <point x="225.0" y="587.99" type="line"/>
      <point x="186.13" y="615.86"/>
      <point x="163.93" y="661.48"/>
      <point x="163.93" y="683.83" type="curve" smooth="yes"/>
      <point x="163.93" y="691.95"/>
      <point x="166.87" y="697.0"/>
      <point x="173.0" y="697.0" type="curve" smooth="yes"/>
      <point x="199.0" y="697.0"/>
      <point x="242.0" y="647.0"/>
      <point x="281.0" y="619.0" type="curve" smooth="yes"/>
      <point x="305.0" y="601.0"/>
      <point x="334.0" y="588.0"/>
      <point x="370.0" y="588.0" type="curve" smooth="yes"/>
      <point x="428.83" y="588.0"/>
      <point x="463.12" y="633.26"/>
      <point x="463.12" y="677.69" type="curve" smooth="yes"/>
      <point x="463.12" y="705.01"/>
      <point x="450.17" y="732.01"/>
    </contour>
    <contour>
      <point x="317.99" y="506.99" type="curve" smooth="yes"/>
      <point x="245.3" y="506.99"/>
      <point x="184.78" y="468.42"/>
      <point x="147.99" y="411.59" type="curve"/>
      <point x="147.99" y="499.99" type="line"/>
      <point x="39.99" y="499.99" type="line"/>
      <point x="39.99" y="-0.01" type="line"/>
      <point x="147.99" y="-0.01" type="line"/>
      <point x="147.99" y="239.86" type="line" smooth="yes"/>
      <point x="148.89" y="363.51"/>
      <point x="238.34" y="414.99"/>
      <point x="306.99" y="414.99" type="curve" smooth="yes"/>
      <point x="389.99" y="414.99"/>
      <point x="417.99" y="363.99"/>
      <point x="417.99" y="295.99" type="curve" smooth="yes"/>
      <point x="417.99" y="-0.01" type="line"/>
      <point x="525.99" y="-0.01" type="line"/>
      <point x="525.99" y="295.99" type="line" smooth="yes"/>
      <point x="525.99" y="396.99"/>
      <point x="485.99" y="506.99"/>
    </contour>
  </outline>
</glyph>
<glyph name="otilde" format="2">
  <advance width="569.0"/>
  <unicode hex="00F5"/>
  <note>
otilde
</note>
  <outline>
    <contour>
      <point x="416.48" y="747.99" type="curve"/>
      <point x="321.48" y="748.0" type="line"/>
      <point x="360.35" y="720.13"/>
      <point x="382.55" y="679.89"/>
      <point x="382.55" y="660.41" type="curve" smooth="yes"/>
      <point x="382.55" y="653.33"/>
      <point x="379.61" y="649.0"/>
      <point x="373.48" y="649.0" type="curve" smooth="yes"/>
      <point x="348.48" y="649.0"/>
      <point x="305.48" y="689.0"/>
      <point x="282.48" y="706.0" type="curve" smooth="yes"/>
      <point x="238.48" y="737.0"/>
      <point x="217.48" y="748.0"/>
      <point x="176.48" y="748.0" type="curve" smooth="yes"/>
      <point x="117.31" y="748.0"/>
      <point x="85.48" y="706.39"/>
      <point x="85.48" y="661.84" type="curve" smooth="yes"/>
      <point x="85.48" y="635.62"/>
      <point x="96.51" y="608.37"/>
      <point x="119.48" y="587.99" type="curve"/>
      <point x="219.48" y="587.99" type="line"/>
      <point x="180.61" y="615.86"/>
      <point x="158.42" y="661.48"/>
      <point x="158.42" y="683.83" type="curve" smooth="yes"/>
      <point x="158.42" y="691.95"/>
      <point x="161.35" y="697.0"/>
      <point x="167.48" y="697.0" type="curve" smooth="yes"/>
      <point x="193.48" y="697.0"/>
      <point x="236.48" y="647.0"/>
      <point x="275.48" y="619.0" type="curve" smooth="yes"/>
      <point x="299.48" y="601.0"/>
      <point x="328.48" y="588.0"/>
      <point x="364.48" y="588.0" type="curve" smooth="yes"/>
      <point x="423.32" y="588.0"/>
      <point x="457.61" y="633.26"/>
      <point x="457.61" y="677.69" type="curve" smooth="yes"/>
      <point x="457.61" y="705.01"/>
      <point x="444.65" y="732.01"/>
    </contour>
    <contour>
      <point x="284.48" y="-12.01" type="curve" smooth="yes"/>
      <point x="434.91" y="-12.01"/>
      <point x="538.97" y="101.99"/>
      <point x="538.97" y="246.99" type="curve" smooth="yes"/>
      <point x="538.97" y="392.99"/>
      <point x="434.91" y="509.99"/>
      <point x="284.48" y="509.99" type="curve" smooth="yes"/>
      <point x="134.06" y="509.99"/>
      <point x="30.0" y="392.99"/>
      <point x="30.0" y="246.99" type="curve" smooth="yes"/>
      <point x="30.0" y="101.99"/>
      <point x="134.06" y="-12.01"/>
    </contour>
    <contour>
      <point x="284.48" y="76.99" type="curve" smooth="yes"/>
      <point x="196.2" y="76.99"/>
      <point x="136.29" y="147.99"/>
      <point x="136.29" y="246.99" type="curve" smooth="yes"/>
      <point x="136.29" y="346.99"/>
      <point x="196.2" y="417.99"/>
      <point x="284.48" y="417.99" type="curve" smooth="yes"/>
      <point x="372.77" y="417.99"/>
      <point x="432.67" y="346.99"/>
      <point x="432.67" y="246.99" type="curve" smooth="yes"/>
      <point x="432.67" y="147.99"/>
      <point x="372.77" y="76.99"/>
    </contour>
  </outline>
</glyph>
<glyph name="divide" format="2">
  <advance width="600.0"/>
  <unicode hex="00F7"/>
  <note>
divide
</note>
  <outline>
    <contour>
      <point x="363.0" y="397.0" type="line"/>
      <point x="363.0" y="529.0" type="line"/>
      <point x="231.0" y="529.0" type="line"/>
      <point x="231.0" y="397.0" type="line"/>
    </contour>
    <contour>
      <point x="543.0" y="210.0" type="line"/>
      <point x="543.0" y="310.0" type="line"/>
      <point x="52.0" y="310.0" type="line"/>
      <point x="52.0" y="210.0" type="line"/>
    </contour>
    <contour>
      <point x="363.61" y="-2.01" type="line"/>
      <point x="363.61" y="131.05" type="line"/>
      <point x="230.55" y="131.05" type="line"/>
      <point x="230.55" y="-2.01" type="line"/>
    </contour>
  </outline>
</glyph>
<glyph name="oslash" format="2">
  <advance width="569.0"/>
  <unicode hex="00F8"/>
  <note>
oslash
</note>
  <outline>
    <contour>
      <point x="392.75" y="487.2" type="curve"/>
      <point x="452.0" y="687.0" type="line"/>
      <point x="347.0" y="687.0" type="line"/>
      <point x="294.45" y="509.82" type="line"/>
      <point x="291.15" y="509.94"/>
      <point x="287.83" y="510.0"/>
      <point x="284.48" y="510.0" type="curve" smooth="yes"/>
      <point x="134.05" y="510.0"/>
      <point x="29.99" y="393.0"/>
      <point x="29.99" y="247.0" type="curve" smooth="yes"/>
      <point x="29.99" y="150.91"/>
      <point x="75.69" y="68.43"/>
      <point x="150.29" y="23.72" type="curve"/>
      <point x="96.99" y="-156.01" type="line"/>
      <point x="201.99" y="-156.01" type="line"/>
      <point x="245.48" y="-9.36" type="line"/>
      <point x="258.09" y="-11.11"/>
      <point x="271.1" y="-12.01"/>
      <point x="284.48" y="-12.01" type="curve" smooth="yes"/>
      <point x="434.9" y="-12.01"/>
      <point x="538.96" y="101.99"/>
      <point x="538.96" y="246.99" type="curve" smooth="yes"/>
      <point x="538.96" y="354.49"/>
      <point x="482.55" y="446.27"/>
    </contour>
    <contour>
      <point x="136.29" y="247.0" type="curve" smooth="yes"/>
      <point x="136.29" y="340.22"/>
      <point x="188.35" y="408.24"/>
      <point x="266.94" y="417.03" type="curve"/>
      <point x="179.54" y="122.32" type="line"/>
      <point x="152.14" y="152.57"/>
      <point x="136.29" y="196.08"/>
    </contour>
    <contour>
      <point x="284.48" y="76.99" type="curve" smooth="yes"/>
      <point x="280.0" y="77.0"/>
      <point x="275.59" y="77.18"/>
      <point x="271.26" y="77.54" type="curve"/>
      <point x="365.08" y="393.92" type="line"/>
      <point x="407.23" y="365.01"/>
      <point x="432.67" y="312.16"/>
      <point x="432.67" y="246.99" type="curve" smooth="yes"/>
      <point x="432.67" y="147.99"/>
      <point x="372.77" y="76.99"/>
    </contour>
  </outline>
</glyph>
<glyph name="uacute" format="2">
  <advance width="576.0"/>
  <unicode hex="00FA"/>
  <note>
uacute
</note>
  <outline>
    <contour>
      <point x="339.0" y="765.0" type="line"/>
      <point x="155.0" y="593.0" type="line"/>
      <point x="243.0" y="566.0" type="line"/>
      <point x="400.0" y="664.0" type="line"/>
    </contour>
    <contour>
      <point x="408.0" y="63.92" type="curve"/>
      <point x="408.0" y="0.0" type="line"/>
      <point x="516.0" y="0.0" type="line"/>
      <point x="516.0" y="500.0" type="line"/>
      <point x="408.0" y="500.0" type="line"/>
      <point x="408.0" y="262.0" type="line" smooth="yes"/>
      <point x="408.0" y="115.0"/>
      <point x="328.0" y="85.0"/>
      <point x="259.0" y="85.0" type="curve" smooth="yes"/>
      <point x="176.0" y="85.0"/>
      <point x="148.0" y="136.0"/>
      <point x="148.0" y="204.0" type="curve" smooth="yes"/>
      <point x="148.0" y="500.0" type="line"/>
      <point x="40.0" y="500.0" type="line"/>
      <point x="40.0" y="204.0" type="line" smooth="yes"/>
      <point x="40.0" y="103.0"/>
      <point x="80.0" y="-7.0"/>
      <point x="248.0" y="-7.0" type="curve" smooth="yes"/>
      <point x="316.13" y="-7.0"/>
      <point x="372.55" y="17.45"/>
    </contour>
  </outline>
</glyph>
<glyph name="yacute" format="2">
  <advance width="532.0"/>
  <unicode hex="00FD"/>
  <note>
yacute
</note>
  <outline>
    <contour>
      <point x="327.0" y="765.0" type="line"/>
      <point x="143.0" y="593.0" type="line"/>
      <point x="231.0" y="566.0" type="line"/>
      <point x="388.0" y="664.0" type="line"/>
    </contour>
    <contour>
      <point x="230.14" y="63.76" type="line"/>
      <point x="122.0" y="-200.0" type="line"/>
      <point x="236.0" y="-200.0" type="line"/>
      <point x="522.0" y="500.0" type="line"/>
      <point x="409.0" y="500.0" type="line"/>
      <point x="284.42" y="196.14" type="line"/>
      <point x="139.0" y="500.0" type="line"/>
      <point x="15.0" y="500.0" type="line"/>
    </contour>
  </outline>
</glyph>
<glyph name="ydieresis" format="2">
  <advance width="532.0"/>
  <unicode hex="00FF"/>
  <note>
ydieresis
</note>
  <outline>
    <contour>
      <point x="196.0" y="583.0" type="line"/>
      <point x="196.0" y="691.0" type="line"/>
      <point x="88.0" y="691.0" type="line"/>
      <point x="88.0" y="583.0" type="line"/>
    </contour>
    <contour>
      <point x="444.0" y="583.0" type="line"/>
      <point x="444.0" y="691.0" type="line"/>
      <point x="336.0" y="691.0" type="line"/>
      <point x="336.0" y="583.0" type="line"/>
    </contour>
    <contour>
      <point x="230.14" y="63.76" type="line"/>
      <point x="122.0" y="-200.0" type="line"/>
      <point x="236.0" y="-200.0" type="line"/>
      <point x="522.0" y="500.0" type="line"/>
      <point x="409.0" y="500.0" type="line"/>
      <point x="284.42" y="196.14" type="line"/>
      <point x="139.0" y="500.0" type="line"/>
      <point x="15.0" y="500.0" type="line"/>
    </contour>
  </outline>
</glyph>
<glyph name="Lslash" format="2">
  <advance width="697.0"/>
  <unicode hex="0141"/>
  <note>
Lslash
</note>
  <outline>
    <contour>
      <point x="165.0" y="0.0" type="line"/>
      <point x="666.0" y="0.0" type="line"/>
      <point x="666.0" y="108.0" type="line"/>
      <point x="273.0" y="108.0" type="line"/>
      <point x="273.0" y="363.71" type="line"/>
      <point x="382.0" y="395.0" type="line"/>
      <point x="381.0" y="500.0" type="line"/>
      <point x="273.0" y="469.0" type="line"/>
      <point x="273.0" y="700.0" type="line"/>
      <point x="165.0" y="700.0" type="line"/>
      <point x="165.0" y="438.0" type="line"/>
      <point x="50.0" y="405.0" type="line"/>
      <point x="51.0" y="300.0" type="line"/>
      <point x="165.0" y="332.72" type="line"/>
    </contour>
  </outline>
</glyph>
<glyph name="lslash" format="2">
  <advance width="472.0"/>
  <unicode hex="0142"/>
  <note>
lslash
</note>
  <outline>
    <contour>
      <point x="173.0" y="0.0" type="line"/>
      <point x="281.0" y="0.0" type="line"/>
      <point x="281.0" y="360.27" type="line"/>
      <point x="402.0" y="395.0" type="line"/>
      <point x="401.0" y="500.0" type="line"/>
      <point x="281.0" y="465.56" type="line"/>
      <point x="281.0" y="700.0" type="line"/>
      <point x="173.0" y="700.0" type="line"/>
      <point x="173.0" y="434.56" type="line"/>
      <point x="70.0" y="405.0" type="line"/>
      <point x="71.0" y="300.0" type="line"/>
      <point x="173.0" y="329.27" type="line"/>
    </contour>
  </outline>
</glyph>
<glyph name="OE" format="2">
  <advance width="1154.0"/>
  <unicode hex="0152"/>
  <note>
OE
</note>
  <outline>
    <contour>
      <point x="571.0" y="0.0" type="line"/>
      <point x="1116.0" y="0.0" type="line"/>
      <point x="1116.0" y="108.0" type="line"/>
      <point x="679.0" y="108.0" type="line"/>
      <point x="679.0" y="304.0" type="line"/>
      <point x="1096.0" y="304.0" type="line"/>
      <point x="1096.0" y="412.0" type="line"/>
      <point x="679.0" y="412.0" type="line"/>
      <point x="679.0" y="592.0" type="line"/>
      <point x="1106.0" y="592.0" type="line"/>
      <point x="1106.0" y="700.0" type="line"/>
      <point x="571.0" y="700.0" type="line"/>
      <point x="571.0" y="650.51" type="line"/>
      <point x="517.89" y="685.02"/>
      <point x="452.44" y="705.0"/>
      <point x="379.0" y="705.0" type="curve" smooth="yes"/>
      <point x="169.0" y="705.0"/>
      <point x="30.0" y="544.0"/>
      <point x="30.0" y="348.0" type="curve" smooth="yes"/>
      <point x="30.0" y="154.0"/>
      <point x="170.0" y="-5.0"/>
      <point x="379.0" y="-5.0" type="curve" smooth="yes"/>
      <point x="452.99" y="-5.0"/>
      <point x="517.68" y="14.4"/>
      <point x="571.0" y="48.41" type="curve"/>
    </contour>
    <contour>
      <point x="379.0" y="92.99" type="curve" smooth="yes"/>
      <point x="233.0" y="93.0"/>
      <point x="138.0" y="200.0"/>
      <point x="138.0" y="348.0" type="curve" smooth="yes"/>
      <point x="138.0" y="498.0"/>
      <point x="234.0" y="607.0"/>
      <point x="379.0" y="607.0" type="curve" smooth="yes"/>
      <point x="462.35" y="607.0"/>
      <point x="529.08" y="571.47"/>
      <point x="571.0" y="513.07" type="curve"/>
      <point x="571.0" y="185.34" type="line"/>
      <point x="529.08" y="127.87"/>
      <point x="462.35" y="92.99"/>
    </contour>
    <contour>
      <point x="595.82" y="228.28" type="curve"/>
      <point x="601.1" y="456.55" type="line"/>
      <point x="613.43" y="424.02"/>
      <point x="620.0" y="387.42"/>
      <point x="620.0" y="347.99" type="curve" smooth="yes"/>
      <point x="620.0" y="303.86"/>
      <point x="611.55" y="263.37"/>
    </contour>
  </outline>
</glyph>
<glyph name="oe" format="2">
  <advance width="1013.0"/>
  <unicode hex="0153"/>
  <note>
oe
</note>
  <outline>
    <contour>
      <point x="947.99" y="116.0" type="curve"/>
      <point x="849.0" y="163.0" type="line"/>
      <point x="825.0" y="120.0"/>
      <point x="786.0" y="79.0"/>
      <point x="703.0" y="79.0" type="curve" smooth="yes"/>
      <point x="629.27" y="79.0"/>
      <point x="561.34" y="124.57"/>
      <point x="549.74" y="224.0" type="curve"/>
      <point x="925.0" y="224.0" type="line"/>
      <point x="930.32" y="249.16"/>
      <point x="932.89" y="273.01"/>
      <point x="932.89" y="295.42" type="curve" smooth="yes"/>
      <point x="932.89" y="428.89"/>
      <point x="841.7" y="511.0"/>
      <point x="697.0" y="511.0" type="curve" smooth="yes"/>
      <point x="608.73" y="511.0"/>
      <point x="531.8" y="476.65"/>
      <point x="484.75" y="413.68" type="curve"/>
      <point x="439.77" y="472.59"/>
      <point x="369.54" y="510.0"/>
      <point x="284.48" y="510.0" type="curve" smooth="yes"/>
      <point x="134.05" y="510.0"/>
      <point x="29.99" y="393.0"/>
      <point x="29.99" y="247.0" type="curve" smooth="yes"/>
      <point x="29.99" y="102.0"/>
      <point x="134.05" y="-12.0"/>
      <point x="284.48" y="-12.0" type="curve" smooth="yes"/>
      <point x="371.3" y="-12.0"/>
      <point x="442.67" y="25.98"/>
      <point x="487.51" y="85.98" type="curve"/>
      <point x="537.56" y="19.98"/>
      <point x="618.23" y="-12.0"/>
      <point x="702.99" y="-12.0" type="curve" smooth="yes"/>
      <point x="821.99" y="-12.0"/>
      <point x="901.99" y="34.0"/>
    </contour>
    <contour>
      <point x="696.99" y="422.0" type="curve" smooth="yes"/>
      <point x="782.19" y="422.0"/>
      <point x="821.54" y="370.53"/>
      <point x="821.54" y="317.35" type="curve" smooth="yes"/>
      <point x="821.54" y="311.23"/>
      <point x="821.02" y="305.09"/>
      <point x="819.99" y="299.0" type="curve"/>
      <point x="552.08" y="299.0" type="line"/>
      <point x="566.77" y="374.16"/>
      <point x="620.1" y="422.0"/>
    </contour>
    <contour>
      <point x="284.48" y="77.0" type="curve" smooth="yes"/>
      <point x="196.19" y="77.0"/>
      <point x="136.29" y="148.0"/>
      <point x="136.29" y="247.0" type="curve" smooth="yes"/>
      <point x="136.29" y="347.0"/>
      <point x="196.19" y="418.0"/>
      <point x="284.48" y="418.0" type="curve" smooth="yes"/>
      <point x="372.76" y="418.0"/>
      <point x="432.67" y="347.0"/>
      <point x="432.67" y="247.0" type="curve" smooth="yes"/>
      <point x="432.67" y="148.0"/>
      <point x="372.76" y="77.0"/>
    </contour>
  </outline>
</glyph>
